<?xml version="1.0" encoding="utf-8"?>
<!-- Generator: Adobe Illustrator 18.1.1, SVG Export Plug-In . SVG Version: 6.00 Build 0)  -->
<svg version="1.1" id="Layer_1" xmlns="http://www.w3.org/2000/svg" xmlns:xlink="http://www.w3.org/1999/xlink" x="0px" y="0px"
	 viewBox="0 0 1207.4 63.2" enable-background="new 0 0 1207.4 63.2" xml:space="preserve">
<path fill="#FCC854" d="M1.7,29C14.8,16.5,47.5-0.8,81.2,0.1c41.5,1.1,51,28.9,87.2,28.9c36.9,0,50.8-29,87.2-28.9
	c36.3,0.1,49,28.8,85.3,28.9c36.5,0.1,50.3-28.9,87.2-28.9s50.8,29,87.2,28.9c36.3-0.1,49-28.8,85.3-28.9C637.1,0,651,29,687.9,29
	c36.9,0,50.8-29,87.2-28.9c36.3,0.1,49,28.8,85.3,28.9c36.5,0.1,50.7-29,87.2-28.9c36.3,0.1,49,28.8,85.3,28.9
	c35.4,0.1,43.6-27.3,87.2-28.9c35.1-1.3,73.3,14.8,87.2,28.9c0,0-1.9,34.2-1.9,34.2L0,63.1C0,63.1,1.7,29,1.7,29z"/>
<rect x="0" y="41.1" fill="#FCC854" width="1205.5" height="20.4"/>
</svg>
