<svg version="1.1" id="Layer_1" xmlns="http://www.w3.org/2000/svg" xmlns:xlink="http://www.w3.org/1999/xlink" x="0px" y="0px"
	 viewBox="0 0 1207.4 110.1" enable-background="new 0 0 1207.4 110.1" xml:space="preserve">
<path fill="#E97B25" d="M1.1,29c8.3-12.5,28.9-29.8,50-28.9C77.2,1.2,83.2,29,106,29c23.2,0,32-29,54.9-28.9
	c22.8,0.1,30.9,28.8,53.7,28.9c23,0.1,31.7-28.9,54.9-28.9s32,29,54.9,28.9c22.8-0.1,30.9-28.8,53.7-28.9C401.1,0,409.8,29,433.1,29
	c23.2,0,32-29,54.9-28.9c22.8,0.1,30.9,28.8,53.7,28.9c23,0.1,31.9-29,54.9-28.9c22.8,0.1,30.9,28.8,53.7,28.9
	c22.3,0.1,27.4-27.3,54.9-28.9c22.1-1.3,46.2,14.8,54.9,28.9c0,0-1.2,34.2-1.2,34.2L0,63.2C0,63.2,1.1,29,1.1,29z"/>
<path fill="#E97B25" d="M663.1,29c8.3-12.5,28.9-29.8,50-28.9C739.2,1.1,745.2,29,768,29c23.2,0,32-29,54.9-28.9
	c22.8,0.1,30.9,28.8,53.7,28.9c23,0.1,31.7-28.9,54.9-28.9s32,29,54.9,28.9c22.8-0.1,30.9-28.8,53.7-28.9
	c23-0.1,31.7,28.9,54.9,28.9s32-29,54.9-28.9c22.8,0.1,30.9,28.8,53.7,28.9c23,0.1,31.9-29,54.9-28.9c22.8,0.1,30.9,28.8,53.7,28.9
	c22.3,0.1,27.4-27.3,54.9-28.9c22.1-1.3,46.2,14.8,54.9,28.9c0,0-1.2,34.2-1.2,34.2l-758.9,0C662,63.1,663.1,29,663.1,29z"/>
<rect y="41.2" fill="#E97B25" width="1422.1" height="67.8"/>
</svg>
