<svg version="1.1" id="Layer_1" xmlns="http://www.w3.org/2000/svg" xmlns:xlink="http://www.w3.org/1999/xlink" x="0px" y="0px"
	 viewBox="0 0 1207.4 110.1" enable-background="new 0 0 1207.4 110.1" xml:space="preserve">
<path fill="#EB482F" d="M0.6,19.4C5.4,11,17.3-0.5,29.6,0.1c15.1,0.7,18.6,19.3,31.8,19.3C74.9,19.3,79.9,0,93.2,0.1
	c13.2,0.1,17.9,19.2,31.1,19.3c13.3,0.1,18.4-19.3,31.8-19.3s18.5,19.3,31.8,19.3c13.2-0.1,17.9-19.2,31.1-19.3
	c13.3-0.1,18.4,19.3,31.8,19.3c13.5,0,18.5-19.3,31.8-19.3c13.2,0.1,17.9,19.2,31.1,19.3c13.3,0.1,18.5-19.3,31.8-19.3
	c13.2,0.1,17.9,19.2,31.1,19.3c12.9,0.1,15.9-18.2,31.8-19.3c12.8-0.9,26.7,9.9,31.8,19.3c0,0-0.7,22.8-0.7,22.8L0,42.1
	C0,42.1,0.6,19.4,0.6,19.4z"/>
<path fill="#EB482F" d="M384.1,19.3c4.8-8.3,16.7-19.9,29-19.3c15.1,0.7,18.6,19.3,31.8,19.3c13.5,0,18.5-19.3,31.8-19.3
	c13.2,0.1,17.9,19.2,31.1,19.3c13.3,0.1,18.4-19.3,31.8-19.3c13.5,0,18.5,19.3,31.8,19.3c13.2-0.1,17.9-19.2,31.1-19.3
	C615.9,0,621,19.3,634.4,19.3c13.5,0,18.5-19.3,31.8-19.3c13.2,0.1,17.9,19.2,31.1,19.3c13.3,0.1,18.5-19.3,31.8-19.3
	c13.2,0.1,17.9,19.2,31.1,19.3c12.9,0.1,15.9-18.2,31.8-19.3c12.8-0.9,26.7,9.9,31.8,19.3c0,0-0.7,22.8-0.7,22.8l-439.7,0
	C383.5,42.1,384.1,19.3,384.1,19.3z"/>
<path fill="#EB482F" d="M767.7,19.3c4.8-8.3,16.7-19.9,29-19.3c15.1,0.7,18.6,19.3,31.8,19.3c13.5,0,18.5-19.3,31.8-19.3
	c13.2,0.1,17.9,19.2,31.1,19.3c13.3,0.1,18.4-19.3,31.8-19.3c13.5,0,18.5,19.3,31.8,19.3c13.2-0.1,17.9-19.2,31.1-19.3
	c13.3-0.1,18.4,19.3,31.8,19.3c13.5,0,18.5-19.3,31.8-19.3c13.2,0.1,17.9,19.2,31.1,19.3c13.3,0.1,18.5-19.3,31.8-19.3
	c13.2,0.1,17.9,19.2,31.1,19.3c12.9,0.1,15.9-18.2,31.8-19.3c12.8-0.9,26.7,9.9,31.8,19.3c0,0-0.7,22.8-0.7,22.8l-439.7,0
	C767,42.1,767.7,19.3,767.7,19.3z"/>
<rect y="41.1" fill="#EB482F" width="1207.4" height="67.9"/>
</svg>
