<?xml version="1.0" encoding="iso-8859-1"?>
<!-- Generator: Adobe Illustrator 18.0.0, SVG Export Plug-In . SVG Version: 6.00 Build 0)  -->
<!DOCTYPE svg PUBLIC "-//W3C//DTD SVG 1.1//EN" "http://www.w3.org/Graphics/SVG/1.1/DTD/svg11.dtd">
<svg version="1.1" id="Capa_1" xmlns="http://www.w3.org/2000/svg" xmlns:xlink="http://www.w3.org/1999/xlink" x="0px" y="0px"
	 viewBox="0 0 148.107 148.107" style="enable-background:new 0 0 148.107 148.107;" xml:space="preserve">
<g>
	<path style="fill:#BF4442;" d="M21.992,58.903C9.846,58.903,0,69.724,0,83.073c0,13.347,9.846,24.169,21.992,24.169
		c12.145,0,21.993-10.822,21.993-24.169C43.985,69.724,34.137,58.903,21.992,58.903z M21.992,98.33
		c-7.669,0-13.886-6.829-13.886-15.257c0-8.428,6.217-15.258,13.886-15.258c7.668,0,13.884,6.83,13.884,15.258
		C35.876,91.501,29.661,98.33,21.992,98.33z"/>
	<polygon style="fill:#BF4442;" points="74.562,81.127 126.923,54.519 135.038,65.203 82.484,106.184 	"/>
	<polygon style="opacity:0.2;fill:#23292A;" points="119.618,77.565 135.268,65.36 127.153,54.676 119.618,58.505 	"/>
	<polygon style="fill:#FF5A58;" points="85.563,56.053 57.92,56.053 55.982,56.053 28.337,56.053 21.065,121.053 55.982,121.053 
		57.92,121.053 92.836,121.053 	"/>
	<polygon style="fill:#BF4442;" points="22.3,112.423 21.295,121.053 93.066,121.053 92.058,112.423 	"/>
	<path style="fill:#FF5A58;" d="M130.5,39.251c-0.271,0.172-0.544,0.35-0.811,0.543c-7.421,5.354-9.489,16.305-4.619,24.461
		c4.871,8.154,14.836,10.428,22.258,5.074c0.266-0.193,0.525-0.395,0.778-0.6L130.5,39.251z"/>
	<path style="fill:#BF4442;" d="M61.061,72.46c0,2.917-1.89,4.594-4.545,4.594h-0.135c-2.656,0-5.32-1.677-5.32-4.594V32.371
		c0-2.918,2.664-5.317,5.32-5.317h0.135c2.655,0,4.545,2.399,4.545,5.317V72.46z"/>
	<ellipse style="fill:#FF5A58;" cx="56.236" cy="70.599" rx="3.311" ry="3.638"/>
</g>
<g>
</g>
<g>
</g>
<g>
</g>
<g>
</g>
<g>
</g>
<g>
</g>
<g>
</g>
<g>
</g>
<g>
</g>
<g>
</g>
<g>
</g>
<g>
</g>
<g>
</g>
<g>
</g>
<g>
</g>
</svg>
