<?xml version="1.0" encoding="utf-8"?>
<!-- Generator: Adobe Illustrator 19.0.0, SVG Export Plug-In . SVG Version: 6.00 Build 0)  -->
<svg version="1.1" id="Layer_1" xmlns="http://www.w3.org/2000/svg" xmlns:xlink="http://www.w3.org/1999/xlink" x="0px" y="0px"
	 viewBox="0 0 1000 1000" style="enable-background:new 0 0 1000 1000;" xml:space="preserve">
<style type="text/css">
	.st0{fill:#8CAE3E;}
	.st1{fill:#7B5AA2;}
</style>
<path class="st0" d="M601.3,675c-28.5-11.6-59.9,0-91.5,20.1v-94.6c32.7,20.8,64.3,31.4,91.5,20c19.4-8.1,19.5-35.6,0-43.5
	c-28.5-11.6-59.9,0-91.5,20.1V474.8c0-2.8-2.2-5-5-5s-5,2.2-5,5v121.4c-31.2-19.6-62-30.7-90.2-19.3c-19.5,7.9-19.4,35.3,0,43.5
	c26.8,11.3,57.9,1.2,90.2-19.1v92.9c-31.2-19.6-62-30.7-90.2-19.3c-19.5,7.9-19.4,35.3,0,43.5c26.8,11.3,57.9,1.2,90.2-19.1v155.8
	c0,2.8,2.2,5,5,5s5-2.2,5-5V698.5c32.7,20.8,64.3,31.4,91.5,20C620.7,710.3,620.8,682.9,601.3,675L601.3,675z"/>
<path class="st1" d="M666.5,397.4c-0.9-29.8-10.5-58.4-26-67.7c-13.9-11.8-52.5-19-108.2-23.1c50.5-2.7,85.8-9.1,104.5-22.3
	c19.6-13.9,30.4-39.9,27.9-85.2c0.2-19.9-1.9-40,1.2-56c-20.4,2.9-45.7-1.8-72.2-1.6c-29.8,0.2-58.6,9.2-68.3,24.5
	c-12.5,14.2-20.7,54.8-26,113.6c-2.8-53.6-9.3-91.1-23.1-110.4c-14-19.5-40.1-30.3-85.3-27.5c-19.9-0.1-40,2.1-56-1
	c3,20.4-1.5,45.7-1.3,72.2c0.3,29.8,9.5,58.5,24.8,68.2c14.4,12.6,55.9,20.7,116.1,25.7c-54.8,3.7-92.9,10.8-112.3,25.2
	c-19.3,14.3-29.6,40.6-26,85.8c0.3,19.9,2.8,40,0,56c20.4-3.4,45.8,0.8,72.3,0c29.8-0.8,58.4-10.5,67.8-26
	c12.1-14.4,19.5-54.9,23.5-113.4c3.8,53.2,10.9,90.2,25,109.2c14.3,19.3,40.6,29.5,85.8,26c19.9-0.3,40-2.8,56,0
	C663.1,449.2,667.3,423.9,666.5,397.4z M544.9,214L544.9,214c9.8-19.6,19.9-27.5,30.3-26.3c14,2.7,13.8,18.3,3.9,41.4
	c22.1-8.5,35.6-7.2,40.9,3.7c2.8,13-5.7,22.2-21.1,29c-26.4,10.5-51.7,17.1-75.8,19.8C526,257.9,534.1,235.6,544.9,214z
	 M406.4,261.5L406.4,261.5c-19.6-9.7-27.5-19.8-26.5-30.1c2.6-14,18.2-13.8,41.4-4.1c-8.6-22-7.3-35.6,3.5-40.9
	c13-2.9,22.2,5.6,29.1,21c10.7,26.4,17.4,51.6,20.2,75.7C450.3,280.1,428,272.1,406.4,261.5z M455.7,400.3L455.7,400.3
	c-9.4,19.8-19.3,27.9-29.7,27c-14.1-2.3-14.2-18-4.8-41.3c-21.9,9-35.4,7.9-41-2.8c-3.1-12.9,5.2-22.3,20.5-29.5
	c26.2-11.1,51.3-18.3,75.3-21.5C473.5,356.1,465.9,378.6,455.7,400.3z M499.2,326.7L499.2,326.7
	C499.2,326.7,499.2,326.7,499.2,326.7c-11.7-1.1-18.7-7.4-20-20c0,0-0.1,0-0.1,0c1.4-11.8,7.8-18.9,20.5-20l0,0c0,0,0-0.1,0-0.1
	c11.7,1.5,18.6,7.9,19.6,20.6l0,0c0,0,0,0,0.1,0C517.9,318.5,511.6,325.4,499.2,326.7z M619.9,379.9c-2.3,14.1-18,14.2-41.3,4.9
	c9,21.9,8,35.4-2.8,41c-12.9,3.1-22.3-5.2-29.5-20.5c-11.1-26.2-18.3-51.3-21.5-75.3c23.9,2.4,46.4,10,68.2,20.3l0,0
	C612.7,359.6,620.8,369.5,619.9,379.9z"/>
</svg>
