<?xml version="1.0" encoding="utf-8"?>
<!-- Generator: Adobe Illustrator 19.0.0, SVG Export Plug-In . SVG Version: 6.00 Build 0)  -->
<svg version="1.1" id="Layer_1" xmlns="http://www.w3.org/2000/svg" xmlns:xlink="http://www.w3.org/1999/xlink" x="0px" y="0px"
	 viewBox="0 0 1000 1000" style="enable-background:new 0 0 1000 1000;" xml:space="preserve">
<style type="text/css">
	.st0{fill:#8CAE3E;}
	.st1{fill:#D14140;}
</style>
<path class="st0" d="M583.2,629.7c-29.2,25.9-53.1,69.2-73.7,120.8V596.4c42-8.9,80.5-30.1,101.5-76.7c17.5-38.9-21.7-46.2-55-15
	c-18.3,17.2-33.4,45.5-46.5,79.3V449.6c0-2.8-2.2-5-5-5s-5,2.2-5,5v133.3c-13.1-33.8-28.2-62.1-46.5-79.3
	c-33.3-31.2-72.5-23.9-55,15c21,46.7,59.5,67.9,101.5,76.7v155.1c-20.5-51.6-44.4-94.9-73.7-120.8c-50.8-45-110.8-34.4-84,21.6
	c32.6,68.2,92.5,98.7,157.7,111.1v155.7c0,2.8,2.2,5,5,5s5-2.2,5-5V762.5c65.2-12.4,125.1-43,157.7-111.1
	C694,595.3,634,584.7,583.2,629.7L583.2,629.7z"/>
<path class="st1" d="M696.5,214.8c-1.5-54.5-11.5-93.5-31.3-120.3c-26.5,16.4-59.5,57.8-91.8,102.3h-0.8v-78.4
	c10.1-1.9,17.7-10.7,17.7-21.3c0-12-9.7-21.7-21.7-21.7s-21.7,9.7-21.7,21.7c0,10.6,7.6,19.4,17.7,21.3v78.4h-0.3
	c-19.9-47.3-37.8-95-58-114.7c-26.7,28.3-48.9,68.7-68.7,116l-2.3-0.6v-79.1c10.1-1.9,17.7-10.7,17.7-21.3c0-12-9.7-21.7-21.7-21.7
	c-12,0-21.7,9.7-21.7,21.7c0,10.6,7.6,19.4,17.7,21.3v76.3c-32.2-40.4-62.5-77.6-81.4-95.9c-45.2,93.1-42.1,181,18.7,259
	c36.2,46.6,83.4,71.8,139.7,71C628.5,427.1,699.2,314.6,696.5,214.8L696.5,214.8z M394.5,334.3c-19.7-29.7-10.4-45,9.9-39.5
	c39.5,14.3,71,59.8,88.5,109.3C460,391.3,418.5,370.6,394.5,334.3z M485.6,271.5c6.9-35,24.3-39.3,34.8-21.1
	c18.1,37.9,8.3,92.4-14,139.9C492.1,358,477.1,314.2,485.6,271.5L485.6,271.5z M629.1,314.4c-14,39.6-59.3,71.4-108.6,89.3
	c12.5-33,32.9-74.6,69-98.9C619.1,285,634.4,294.2,629.1,314.4L629.1,314.4z"/>
</svg>
