<?xml version="1.0" encoding="utf-8"?>
<!-- Generator: Adobe Illustrator 19.0.0, SVG Export Plug-In . SVG Version: 6.00 Build 0)  -->
<svg version="1.1" id="Layer_1" xmlns="http://www.w3.org/2000/svg" xmlns:xlink="http://www.w3.org/1999/xlink" x="0px" y="0px"
	 viewBox="0 0 1000 1000" style="enable-background:new 0 0 1000 1000;" xml:space="preserve">
<style type="text/css">
	.st0{fill:#8CAE3E;}
	.st1{fill:#FBAB45;}
</style>
<path class="st0" d="M553.2,714.1c-21.3,20-37.1,50-49.1,86.7V665.2c43.1-13,79.7-33.8,100.3-70.8c25.9-46.6-10.1-63.7-51.3-25
	c-21.3,20-37.1,50-49.1,86.7V498.5c0-2.8-2.2-5-5-5s-5,2.2-5,5V654c-11.9-35.7-27.5-65-48.4-84.6c-41.2-38.7-77.2-21.6-51.3,25
	c20.5,36.8,56.9,57.6,99.7,70.6v133.8c-11.9-35.7-27.5-65-48.4-84.6c-41.2-38.7-77.2-21.6-51.3,25c20.5,36.8,56.9,57.6,99.7,70.6
	v18.4c0,2.8,2.2,5,5,5s5-2.2,5-5V810c43.1-13,79.7-33.8,100.3-70.8C630.4,692.5,594.4,675.4,553.2,714.1L553.2,714.1z"/>
<path class="st1" d="M656.6,321.9c0-24.7-20-44.7-44.7-44.7c-2,0-3.9,0.1-5.8,0.4c1.3-1,2.5-2.1,3.7-3.3c17.4-17.4,17.4-45.7,0-63.2
	c-17.4-17.4-45.7-17.4-63.2,0c-1.4,1.4-2.7,2.8-3.8,4.4c0.2-1.6,0.3-3.3,0.3-5c0-24.7-20-44.7-44.7-44.7s-44.7,20-44.7,44.7
	c0,2,0.1,3.9,0.4,5.8c-1-1.3-2.1-2.5-3.3-3.7c-17.4-17.4-45.7-17.4-63.2,0c-17.4,17.4-17.4,45.7,0,63.2c1.4,1.4,2.8,2.7,4.4,3.8
	c-1.6-0.2-3.3-0.3-5-0.3c-24.7,0-44.7,20-44.7,44.7s20,44.7,44.7,44.7c2,0,3.9-0.1,5.8-0.4c-1.3,1-2.5,2.1-3.7,3.3
	c-17.4,17.4-17.4,45.7,0,63.2c17.4,17.4,45.7,17.4,63.2,0c1.4-1.4,2.7-2.8,3.8-4.4c-0.2,1.6-0.3,3.3-0.3,5c0,24.7,20,44.7,44.7,44.7
	s44.7-20,44.7-44.7c0-2-0.1-3.9-0.4-5.8c1,1.3,2.1,2.5,3.3,3.7c17.4,17.4,45.7,17.4,63.2,0c17.4-17.4,17.4-45.7,0-63.2
	c-1.4-1.4-2.8-2.7-4.4-3.8c1.6,0.2,3.3,0.3,5,0.3C636.6,366.6,656.6,346.6,656.6,321.9z M499.5,402.9c-44.2,0-80-35.8-80-80
	s35.8-80,80-80s80,35.8,80,80S543.7,402.9,499.5,402.9z"/>
</svg>
