<?xml version="1.0" encoding="iso-8859-1"?>
<!-- Generator: Adobe Illustrator 19.0.0, SVG Export Plug-In . SVG Version: 6.00 Build 0)  -->
<svg version="1.1" id="Layer_1" xmlns="http://www.w3.org/2000/svg" xmlns:xlink="http://www.w3.org/1999/xlink" x="0px" y="0px"
	 viewBox="0 0 512 512" style="enable-background:new 0 0 512 512;" xml:space="preserve">
<path style="fill:#C5DCFD;" d="M256,512c-3.245,0-6.492-0.94-9.311-2.82c-67.749-45.169-108.197-120.744-108.197-202.164v-21.638
	c0-9.273,7.514-16.787,16.787-16.787h201.443c9.273,0,16.787,7.514,16.787,16.787v21.639c0,81.421-40.449,156.994-108.197,202.164
	C262.492,511.06,259.245,512,256,512z"/>
<g>
	<path style="fill:#B1C6E4;" d="M356.721,268.59H256V512c3.245,0,6.492-0.94,9.311-2.82
		c67.749-45.169,108.197-120.744,108.197-202.164v-21.638C373.508,276.104,365.994,268.59,356.721,268.59z"/>
	<path style="fill:#B1C6E4;" d="M256,380.503c-9.273,0-16.787-7.514-16.787-16.787V229.421c0-9.273,7.514-16.787,16.787-16.787
		c9.273,0,16.787,7.514,16.787,16.787v134.295C272.787,372.989,265.273,380.503,256,380.503z"/>
</g>
<path style="fill:#9DB0CA;" d="M272.787,363.716V229.421c0-9.273-7.514-16.787-16.787-16.787v167.869
	C265.273,380.503,272.787,372.989,272.787,363.716z"/>
<path style="fill:#6E6057;" d="M289.574,246.208h-67.148c-9.273,0-16.787-7.514-16.787-16.787V50.361C205.639,22.591,228.23,0,256,0
	s50.361,22.591,50.361,50.361v179.06C306.361,238.694,298.847,246.208,289.574,246.208z"/>
<path style="fill:#615349;" d="M289.574,246.208c9.273,0,16.787-7.514,16.787-16.787V50.361C306.361,22.591,283.77,0,256,0v246.208
	H289.574z"/>
<g>
</g>
<g>
</g>
<g>
</g>
<g>
</g>
<g>
</g>
<g>
</g>
<g>
</g>
<g>
</g>
<g>
</g>
<g>
</g>
<g>
</g>
<g>
</g>
<g>
</g>
<g>
</g>
<g>
</g>
</svg>
