<?xml version="1.0" encoding="utf-8"?>
<!-- Generator: Adobe Illustrator 16.0.0, SVG Export Plug-In . SVG Version: 6.00 Build 0)  -->
<!DOCTYPE svg PUBLIC "-//W3C//DTD SVG 1.1//EN" "http://www.w3.org/Graphics/SVG/1.1/DTD/svg11.dtd">
<svg version="1.1" id="Layer_1" xmlns="http://www.w3.org/2000/svg" xmlns:xlink="http://www.w3.org/1999/xlink" x="0px" y="0px"
	 width="30.486px" height="26.319px" viewBox="0 0 30.486 26.319" enable-background="new 0 0 30.486 26.319" xml:space="preserve">
<g id="heart">
	<g>
		<path fill-rule="evenodd" clip-rule="evenodd" fill="#F9F9FA" d="M29.912,7.739c-0.366-4.549-4.766-6.924-7.366-7.175
			C22.116,0.521,21.718,0.5,21.341,0.5c-3.006,0-4.449,1.295-6.098,3.256C13.592,1.795,12.149,0.5,9.143,0.5
			c-0.376,0-0.777,0.021-1.205,0.064C5.338,0.815,0.94,3.189,0.574,7.739L0.5,9.252c0,6.696,5.103,9.723,14.743,16.457
			c9.639-6.734,14.743-9.761,14.743-16.457L29.912,7.739z"/>
	</g>
	<g>
		<path fill="none" stroke="#FFFFFF" stroke-miterlimit="10" d="M29.912,7.739c-0.366-4.549-4.766-6.924-7.366-7.175
			C22.116,0.521,21.718,0.5,21.341,0.5c-3.006,0-4.449,1.295-6.098,3.256C13.592,1.795,12.149,0.5,9.143,0.5
			c-0.376,0-0.777,0.021-1.205,0.064C5.338,0.815,0.94,3.189,0.574,7.739L0.5,9.252c0,6.696,5.103,9.723,14.743,16.457
			c9.639-6.734,14.743-9.761,14.743-16.457L29.912,7.739z"/>
	</g>
</g>
<g id="plus">
	<g>
		<path fill-rule="evenodd" clip-rule="evenodd" fill="#F05657" d="M19.963,10.387l-2.782-0.125l0.125-2.783
			c0.023-0.512-0.373-0.945-0.886-0.968l-1.854-0.083C14.053,6.404,13.62,6.8,13.597,7.312l-0.125,2.783L10.69,9.971
			c-0.513-0.023-0.946,0.373-0.969,0.886l-0.083,1.854c-0.023,0.512,0.373,0.945,0.886,0.968l2.782,0.125l-0.125,2.781
			c-0.023,0.514,0.373,0.945,0.886,0.969l1.854,0.084c0.512,0.022,0.946-0.373,0.969-0.887l0.125-2.781l2.781,0.125
			c0.514,0.022,0.946-0.373,0.969-0.886l0.084-1.854C20.872,10.842,20.476,10.41,19.963,10.387z"/>
	</g>
</g>
</svg>
