<?xml version="1.0" encoding="utf-8"?>
<!-- Generator: Adobe Illustrator 25.0.1, SVG Export Plug-In . SVG Version: 6.00 Build 0)  -->
<svg version="1.1" id="Capa_1" xmlns="http://www.w3.org/2000/svg" xmlns:xlink="http://www.w3.org/1999/xlink" x="0px" y="0px"
	 viewBox="0 0 529.2 609.4" style="enable-background:new 0 0 529.2 609.4;" xml:space="preserve">
<style type="text/css">
	.st0{fill:#715A47;}
	.st1{fill:#A57F5D;}
	.st2{fill:#F39877;}
	.st3{fill:#C25F40;}
	.st4{fill:#F8BFA7;}
</style>
<g>
	<g>
		<path class="st0" d="M37.4,408c20.4,60.4,48.1,118.4,82.3,172.2c0,0,133.1,39.7,295.2,0c34.3-53.8,63.8-114.8,84.2-175.3
			l-234.5,24.6L37.4,408z"/>
		<path class="st1" d="M511.2,358.1c-0.2-0.3-0.4-0.6-0.6-0.9c2.5-19.4,1.5-58.8,1.5-58.8c0-140.7-110.5-254.8-246.8-254.8
			C129,43.7,18.5,157.8,18.5,298.5c0,0-1.3,29.8,2.1,59.9c-5.4,5.2-7.9,13.1-7.2,20.5c0.8,8.4,5.5,16.2,11.9,21.9
			c6.3,5.6,14.2,9.3,22.4,11.7c-0.7,0.9,1.1,0.3,2.1,1c11.5,8.5,25.1,14.1,39.3,16.1c1.7,0.2,3.5,0.4,5.2,0.7c1.5,2,4,2.1,6.4,2.8
			c19.5,5.7,40.4,8.9,60.2,4.2c22.1,7.1,44.6,7.9,67.3,2.9c3.6,1.8,5.4,2.1,8.2,2.4c23,2.8,46.6,1.3,69-4.4
			c-0.2-1.4,0.8-0.2,2.2,0.1c20.2,5.1,42.1,3.2,61.1-5.3c29.2,6.3,59.3,1.8,85.3-13c13.4,2.8,28.5-2.2,37.4-9.1
			c8.4-6.5,17.9-12.2,22-22C517.2,379,516.7,367.2,511.2,358.1z M472.7,388c-2.3,2.8-3.9,6.6-3.5,10.2c-8.7-0.3-16.5-1.3-25.2-0.2
			c-8.7,1.1-16.7,2.1-22.3,6.7c-1.8,1.5-3.4,4-4.1,5.2c-1-0.5-3.8-1.3-5.8-1.8c-25.3-6.1-46.2,0.2-70.4,9.7
			c-22.4-7.8-49.5-7.1-72.1-0.1c-28.4-7.1-56.2-6-84.5,1.6c-18.4-8.9-38.7-10.9-58.8-6.8c-18.9-14.4-38.9-16.5-56.6-14.8
			c-4.5-7.3-12.3-12.5-20.8-14.1l-4.3-34.6c-2.1-16-2.8-50.4-2.8-50.4C41.5,167.9,141.7,62,265.3,62C388.9,62,489,167.9,489,298.5
			c0,0,0.9,45.1-3.8,77.2C480.6,379.3,476.3,383.4,472.7,388z"/>
		<g>
			<path class="st0" d="M125.2,411.7l8.9,7.8c3,2.5,6,5,9,7.4c3,2.4,6.2,4.6,9.5,6.5c3.4,1.9,6.9,3.4,10.8,4.4
				c-4,0.2-8-0.8-11.8-2.4c-3.7-1.6-7.2-3.8-10.3-6.2C135,424.3,129.4,418.4,125.2,411.7z"/>
			<path class="st0" d="M68.6,396.5c1.4,3.6,3,7.1,4.8,10.3c1.8,3.3,3.9,6.4,6.2,9.3c2.3,2.9,4.9,5.6,7.6,8.2
				c2.8,2.5,5.7,4.9,8.8,7.2c-7.3-2.6-13.8-7.5-18.7-13.6C72.5,411.8,69.2,404.2,68.6,396.5z"/>
			<path class="st0" d="M45.9,382.7c0.4,2.8,0.4,5.6,0.4,8.4c-0.1,2.8-0.3,5.5-0.3,8.1c0,2.6,0.3,5.2,0.9,7.8c0.7,2.5,1.6,5,3.6,7.1
				c-2.7-1.1-4.5-3.7-5.7-6.3c-1.2-2.7-1.7-5.6-1.7-8.5c0-2.9,0.4-5.7,0.8-8.4C44.4,388.1,44.9,385.3,45.9,382.7z"/>
			<path class="st0" d="M184.1,418.7c3.9,1.8,7.6,3.8,11.4,5.7c3.8,1.9,7.5,3.8,11.3,5.6c3.8,1.9,7.6,3.7,11.4,5.5
				c3.8,1.8,7.7,3.5,11.5,5.4c-4.2-0.7-8.3-1.9-12.4-3.3c-4-1.4-8-3.1-11.8-5c-3.8-1.9-7.6-4-11.2-6.3
				C190.8,424,187.3,421.5,184.1,418.7z"/>
			<path class="st0" d="M268.3,417.2c3.7,0.7,7.4,1.7,11,3.3c1.8,0.7,3.5,1.7,5.1,2.7c1.6,1.1,3.1,2.2,4.6,3.3
				c6,4.4,12.1,8.5,18.9,11.9c-3.8-0.6-7.4-1.9-10.9-3.6c-3.5-1.7-6.7-3.7-9.8-5.9c-3.1-2.3-5.9-4.5-9.1-6.3
				C275,420.6,271.6,419,268.3,417.2z"/>
			<path class="st0" d="M340,417.4c3,0.3,5.8,1.4,8.5,2.8c2.6,1.4,5.1,3.1,7.5,4.6c2.4,1.6,4.8,3.1,7.3,4.6c2.5,1.4,5,2.8,7.7,4
				c-3,0-5.9-0.8-8.7-1.9c-2.8-1.1-5.4-2.5-7.9-4.2c-2.4-1.7-4.8-3.4-7.1-5.1C344.9,420.5,342.6,418.9,340,417.4z"/>
			<path class="st0" d="M415.4,410c3.6-0.4,7.1-0.4,10.7-0.1c3.6,0.3,7.2,1,10.6,2.3c3.4,1.3,6.5,3.1,9.6,4.6c3.1,1.5,6.2,3,9.8,3.5
				c-3.6,0.7-7.3-0.2-10.7-1.4c-3.4-1.2-6.6-2.8-9.8-4C429.4,412.4,422.4,411.6,415.4,410z"/>
			<path class="st0" d="M467.6,398.2c2.6-0.7,5.3-0.4,7.9,0.3c2.6,0.7,5,1.6,7.3,2.5l7,2.9c2.3,0.9,4.7,1.8,7.2,2.6
				c-2.6,0.4-5.3,0.2-7.8-0.4c-2.6-0.6-5-1.4-7.4-2.4c-2.4-1-4.7-2.1-7-3.1C472.5,399.7,470.2,398.8,467.6,398.2z"/>
			<path class="st0" d="M492.8,370.5c1.5-1.3,3.4-2.1,5.4-2.5c2-0.4,4.2-0.2,6.1,0.2c1.9,0.4,3.7,1,5.5,1.6c1.8,0.5,3.5,1,5.5,1.1
				c-1.7,1.1-3.9,1.3-5.9,1.1c-2-0.1-3.9-0.6-5.7-1c-1.8-0.4-3.5-0.7-5.3-0.8C496.7,370.1,494.8,370.3,492.8,370.5z"/>
		</g>
		<path class="st1" d="M421.3,466.1l2.5-0.8c6.6-2,13-4.9,19.2-8c3.5-0.2,7-0.6,10.5-1.1c3.5-0.5,7.1-1.2,10.5-2.1
			c6.9-1.8,13.7-4.2,19.9-7.8l-0.1-0.3c-6.3,3.3-13.1,5.4-20.1,6.8c-6.7,1.4-13.6,2.2-20.4,2.5c0.8-2.2,1.1-4.6,1-6.9
			c-0.1-2.3-0.6-4.6-1.6-6.8c5.3-0.7,10.5-1.7,15.7-2.9c5.7-1.3,11.2-2.8,16.7-4.7c5.5-1.8,10.8-4.1,16.1-6.5l-0.1-0.3
			c-5.3,2.2-10.7,4.2-16.3,5.8c-5.5,1.6-11.1,3-16.7,4.1c-5.6,1.1-11.3,2-17,2.6c-5.3,0.6-10.6,1-15.9,1.1c0.4-1.1,0.5-2.3,0.4-3.4
			c-0.1-1.7-0.4-3.3-1.5-4.8c-0.5,1.7-0.5,3.3-0.5,4.9c0.1,1.1,0.2,2.2,0.4,3.4c-0.1,0-0.1,0-0.2,0l-0.3,0l-0.3,0.2
			c-2.3,1.3-5,2.1-7.7,2.8c-2.7,0.7-5.4,1.2-8.2,1.6c-5.2,0.8-10.4,1.3-15.6,1.6c0.5-1.8,0.6-3.5,0.6-5.2c0-1-0.1-1.9-0.3-2.9
			c-0.1-1-0.6-1.8-0.4-2.8c-0.5,0.2-0.7,0.9-0.9,1.4c-0.1,0.5-0.2,1-0.2,1.5c-0.1,1-0.1,1.9-0.1,2.9c0.1,1.7,0,3.4,0.6,5.1
			c-0.2,0-0.2,0.1-0.4,0.2l-0.2,0l-0.2,0.1c-7.9,2.5-15.8,4.8-24,6.1l-3,0.6l-3.1,0.4l-6.1,0.9c-4.1,0.4-8.2,0.9-12.3,1.2
			c-8.2,0.5-16.5,0.7-24.8,0.3c-8.2-0.3-16.4-1-24.4-2.4c0.2-1.9,0.2-3.8,0.2-5.6c0-2.3,0-4.5-0.4-6.9c-1.1,2.2-1.5,4.5-1.5,6.9
			c0,1.9,0.3,3.8,1,5.6l0,0c-7.9,2.1-16.2,2.7-24.4,2.9c-4.1,0.1-8.3-0.1-12.4-0.3c-4.1-0.2-8.2-0.5-12.2-1c0.3-1.8,0.4-3.6,0.5-5.3
			c0-2,0.1-3.9-0.2-6c-1.2,1.8-1.6,3.9-1.8,5.9c0,1.8,0.2,3.7,1,5.4c-6.9,0.8-13.8,1.6-20.7,1.8c-7,0.3-14,0.3-21,0
			c-7-0.3-14-0.9-20.9-1.7c-6.9-0.8-13.7-1.8-20.5-3.2c0-0.2,0.1-0.4,0.1-0.6c0.1-0.7,0.2-1.4,0.2-2c0.1-1.4,0.2-2.7,0.3-4.1
			c0.1-2.7,0.1-5.4-0.3-8.2c-1.1,2.6-1.6,5.4-1.7,8.1c0,1.4,0,2.8,0.2,4.2c0.1,0.7,0.2,1.4,0.3,2.1c0.1,0.2,0.1,0.4,0.1,0.5
			c-5.5,0.2-11,0.2-16.4-0.1c-2.8-0.1-5.5-0.3-8.3-0.7c-1.4-0.2-2.7-0.3-4.1-0.6c-1.3-0.2-2.7-0.6-3.8-1l-0.4-0.1l-0.3,0
			c-0.2,0-0.5,0-0.7,0c0.5-1.8,0.7-3.6,0.8-5.3c0.1-2,0-4-0.5-6.2c-1,1.9-1.3,4-1.5,6.1c-0.1,1.8,0.1,3.7,0.7,5.4
			c-6.4,0.4-12.8,0.4-19.2,0.1c-6.8-0.4-13.5-1.3-20.2-2.5c-13.3-2.5-26.4-7-37.9-14.5l-0.2,0.2c5.5,4.1,11.6,7.4,17.9,10
			c5.6,2.3,11.3,4.1,17.2,5.5c-0.6,1.1-1,2.3-1.2,3.5c-0.2,1.7,0,3.6,0.9,5.2c-0.1,0-0.1-0.1-0.2-0.1l-0.2-0.1l-0.2,0
			c-4.4,0.1-8.9,0-13.3-0.6c-4.4-0.6-8.8-1.4-13-2.7l-0.1,0.3c4.2,1.6,8.6,2.7,13,3.4c4.3,0.7,8.8,1.1,13.2,1.1
			c0.2,0.1,0.4,0.2,0.6,0.4c-1.3,2.5-1.8,5.2-1.9,7.9c0,2.6,0.3,5.2,1.4,7.6c-1.7,0-3.5,0-5.2-0.2c-1.8-0.2-3.5-0.6-5.3-1.1
			c-3.4-1.1-6.7-2.7-9.6-4.9l-0.2,0.2c2.7,2.5,6,4.3,9.5,5.6c3.4,1.2,7.1,1.9,10.7,1.9c4.5,2.5,9.2,4.3,14.1,6c4.9,1.6,9.9,3,14.9,4
			c5.1,0.9,10.2,1.7,15.3,2.1c0.3,0,0.6,0,0.8,0.1c-1.3,1.8-2,3.9-2.2,6.1c-0.1,2.1,0.2,4.2,1.1,6.1c-0.1-0.1-0.3-0.1-0.4-0.2
			l-0.3-0.2l-0.3,0c-4.6,0-9.3-0.4-13.9-0.9c-2.3-0.3-4.6-0.7-6.9-1.2c-1.5-0.3-2.9-0.7-4.4-1.1c0.5-2,0.7-3.9,0.9-5.8
			c0.2-2.1,0.3-4.2,0.2-6.4c-1.3,1.9-1.9,4.1-2.1,6.2c-0.2,2,0,4,0.7,5.9c-0.7-0.2-1.3-0.4-2-0.6l-0.2-0.1l-0.1,0
			c-4.4,0.2-8.9-0.4-13.3-1.6c-4.3-1.2-8.6-2.9-12.6-5l-0.2,0.2c3.9,2.4,8.1,4.3,12.4,5.8c4.3,1.4,8.8,2.3,13.5,2.2
			c0.1,0,0.2,0.1,0.3,0.1c-1.1,2.8-1.5,5.8-1.4,8.8c0,1.5,0.2,3.1,0.5,4.6c0.2,0.8,0.3,1.5,0.6,2.3c0,0.1,0.1,0.1,0.1,0.2l-0.1,0
			c-2.4,0.5-5,0.5-7.5,0.1c-2.5-0.4-5-1-7.4-1.9l-0.1,0.3c2.4,1.1,4.8,1.9,7.4,2.4c2.5,0.5,5,0.7,7.6,0.3c3.9,2.3,7.9,4.1,12.1,5.7
			c4.2,1.6,8.6,2.9,13,3.9c1.3,0.3,2.7,0.5,4,0.8c-1.2,2.7-1.8,5.7-1.9,8.6c0,1.6,0,3.3,0.3,4.9c0.2,1.5,0.8,3.1,1.8,4.2l-0.2,0
			l-3.9,0.4c-1.3,0.1-2.6,0.2-3.9,0.2c-2.6,0-5.2-0.1-7.8-0.4c-2.6-0.3-5.1-0.9-7.6-1.7c-2.4-0.8-4.9-1.9-7-3.4l-0.2,0.2
			c2,1.7,4.4,2.9,6.9,3.9c2.5,1,5.1,1.6,7.7,2.1c2.6,0.5,5.3,0.7,7.9,0.8c1.3,0,2.7,0,4,0l2.4-0.2c-0.3,1.5-0.4,3.2-0.1,4.7
			c0.2,1.9,0.8,3.7,1.6,5.4c0.8,1.7,1.7,3.3,2.8,4.8c0.6,0.8,1.1,1.5,1.8,2.2c0.1,0.1,0.2,0.2,0.3,0.3c-4.1,0.4-8.2,0.2-12.3-0.6
			c-2.3-0.5-4.6-1.1-6.9-2c-1.1-0.4-2.2-0.9-3.3-1.4c-1-0.5-2-1.3-2.1-2.5l-0.3,0c-0.1,1.4,1.1,2.4,2.1,3c1.1,0.6,2.1,1.2,3.2,1.7
			c2.2,1,4.5,1.8,6.9,2.4c4.6,1.2,9.4,1.5,14.2,1.1c0.3,0.3,0.6,0.5,0.9,0.8c-0.9,3.2-0.8,6.5-0.2,9.7c0.4,1.7,0.8,3.3,1.5,4.9
			c0.3,0.8,0.7,1.5,1.2,2.3c0.2,0.3,0.5,0.8,0.8,1.1c0.3,0.3,0.9,0.6,1.3,0.3c-0.4,0-0.7-0.3-0.8-0.7c-0.2-0.3-0.3-0.7-0.3-1.1
			l-0.6-2.4c-0.4-1.6-0.8-3.2-1.1-4.7c-0.6-3-1-6.1-1.6-9.2c2,1.5,4.4,2.4,6.7,2.9c3,0.6,5.9,0.7,8.7,0.9c5.1,0.4,10.3,0.7,15.5,0.1
			l0.1,0.1c0.4,0.2,0.8,0.3,1.2,0.4c-0.5,3.7,0,7.5,1.1,11.1c1.1,3.7,2.8,7.2,5.4,10.1c-1.2-3.7-2.5-7.1-3.5-10.7
			c-1.1-3.5-1.9-6.9-2.8-10.6c5.3,2,10.8,3.2,16.3,3.9c5.9,0.7,11.9,0.8,17.9,0.7c0.1,0,0.3,0.1,0.4,0.1c-1.2,3.2-1.7,6.7-1.8,10.2
			c0,1.8,0.1,3.6,0.4,5.4c0.1,0.9,0.3,1.8,0.5,2.7c0.1,0.4,0.2,0.9,0.4,1.3c0.1,0.2,0.1,0.5,0.3,0.7c0.1,0.1,0.2,0.2,0.3,0.2
			c0.1,0.1,0.3,0,0.3-0.2c-0.1,0.2-0.3-0.1-0.4-0.2c-0.1-0.1,0-0.4,0-0.6l0-1.3l0-2.7l0-5.3c0-3.3,0.1-6.7,0-10.1
			c4.2,1.2,8.3,1.8,12.6,2.4c4.5,0.6,9,1,13.4,1.2c4.5,0.3,9,0.4,13.5,0.5l6.7,0l6.6-0.1c-0.2,3.1-0.1,6.1-0.1,9.1
			c0.1,3.1,0.1,6.1,0.4,9.3c1.2-3,1.5-6.2,1.5-9.3c-0.1-3.1-0.6-6.2-1.8-9.1l0,0c8.6,1.2,17.3,1.9,26,2.2c4.4,0.1,8.7,0.1,13.1-0.1
			c4-0.1,8-0.5,11.9-1c-0.8,2.7-1.2,5.6-1.1,8.4c0.2,3.3,1,6.8,3.2,9.3c-0.8-3.2-1.1-6.2-1.2-9.4c-0.1-2.8-0.1-5.5-0.4-8.4
			c0.2,0,0.4,0,0.6-0.1c4.9,0.1,9.7-0.1,14.5-0.4c4.8-0.3,9.7-0.7,14.5-1.5c4.8-0.8,9.6-1.7,14.3-3c4.1-1.2,8.2-2.6,12.2-4.6
			c-0.9,2.9-1.4,5.9-1.6,9c-0.1,1.9-0.1,3.7,0.1,5.6c0.2,1.8,0.6,3.9,1.8,5.3c-0.5-1.8-0.4-3.6-0.3-5.3l0.3-5.4
			c0.1-3.1,0.3-6.2,0.3-9.4c0.2-0.1,0.3-0.2,0.5-0.3c2.8,0.3,5.6,0.4,8.3,0.5c2.9,0,5.8,0,8.8-0.2c5.6-0.3,11.1-1,16.6-2.2
			c-0.5,3-0.5,5.8-0.7,8.7c-0.1,2.9-0.5,5.6-1,8.6c2-2.3,2.8-5.5,3-8.5c0.1-3-0.2-5.9-1.2-8.8c0.2,0,0.4-0.1,0.6-0.1
			c5.4-0.3,10.8-0.9,16.1-1.9c2.7-0.5,5.3-1.1,7.9-2c2.6-0.8,5.2-1.8,7.5-3.2l-0.1-0.3c-2.4,1.3-5,2-7.6,2.7
			c-2.6,0.7-5.3,1.1-7.9,1.4c-5.3,0.7-10.7,1.1-16.1,1.2l-0.1,0l-0.1,0c-0.1,0-0.2,0-0.3,0.1c0.7-2.8,1-5.6,0.8-8.5
			c-0.2-2.7-0.8-5.5-2.2-7.9c1.9-0.5,3.9-1,5.8-1.6c4.4-1.4,8.7-3.2,12.8-5.3c2.7,0.4,5.3,0.2,7.9-0.1c2.7-0.4,5.3-1,7.9-1.9
			c2.6-0.8,5.1-1.9,7.5-3c1.2-0.6,2.4-1.2,3.6-1.8l3.5-2l-0.1-0.3l-3.6,1.8c-1.2,0.5-2.4,1.1-3.7,1.6c-2.5,1-5,1.9-7.5,2.5
			c-2.6,0.7-5.1,1.2-7.8,1.5c-2.6,0.2-5.3,0.3-7.7-0.2l-0.2,0c1.6-2.8,2.3-6,2.5-9.2c0.1-3.1-0.2-6.2-1.4-9.1c3.3,0.2,6.5,0.1,9.7,0
			c3.6-0.2,7.2-0.6,10.8-1.2c3.6-0.7,7.1-1.6,10.5-2.9c3.4-1.3,6.6-3,9.5-5.3l-0.2-0.2c-2.9,2-6.2,3.5-9.6,4.7
			c-3.4,1.1-6.9,1.8-10.4,2.3c-3.5,0.5-7.1,0.7-10.6,0.8c-3.3,0-6.6-0.1-9.9-0.3c0.8-2.3,0.9-4.7,0.7-7.1c-0.2-2-0.6-4-1.4-5.9
			c5.4-2.4,10.5-5.6,15.3-9.2c7-1,13.9-2.6,20.6-4.6c6.8-2.2,13.5-4.9,19.3-9.1l-0.2-0.2c-6,3.8-12.7,6.2-19.5,8
			c-6.5,1.8-13.2,3-19.9,3.8c1-1.6,1.6-3.4,1.9-5.3c0.2-2,0.1-4.1-0.7-6.1c0.7-0.1,1.5-0.2,2.2-0.3c4.9-0.7,9.7-1.7,14.5-2.9
			c2.4-0.6,4.8-1.3,7.1-2c2.3-0.8,4.7-1.5,7-2.4c4.6-1.7,9.1-3.8,13.5-6l-0.1-0.3c-4.5,2-9,3.8-13.7,5.3c-4.7,1.5-9.4,2.8-14.2,3.8
			c-4.8,1-9.6,1.8-14.4,2.4c-4.7,0.5-9.5,0.9-14.2,1c0.9-2.7,1.2-5.4,1.3-8.2c0-2.4-0.1-4.9-0.7-7.3c0.4-0.1,0.7-0.2,1.1-0.3
			L421.3,466.1z M342,459.2c4.2-0.2,8.4-0.6,12.5-1c2.1-0.3,4.2-0.6,6.2-0.9l0.2,0c-0.7,1.9-0.9,4-0.9,6c0,2.1,0.3,4.2,1.1,6.2
			c-6,1.5-12.3,2.2-18.6,2.3c-6.2,0.1-12.5-0.1-18.7-0.9c-0.1-0.7,0.1-1.4,0.1-2.2c0.2-1.1,0.3-2.3,0.3-3.4c0-2-0.1-3.9-0.5-5.9
			C329.8,459.6,335.9,459.5,342,459.2z M342.5,474.8c6.4-0.1,12.9-0.6,19.2-2.3c6.4,0.5,12.7,0.6,19,0.3c-0.3,2.9-0.5,5.7-0.8,8.4
			c-0.1,1.5-0.3,2.9-0.5,4.4c-0.1,0.9-0.2,1.7-0.4,2.6l-0.4,0l-0.4,0.2c-6,3-12.7,4.7-19.4,5.9c-6.7,1.2-13.6,1.8-20.5,2.2
			c-6.9,0.4-13.8,0.4-20.7,0.2c-6.9-0.2-13.8-0.6-20.6-1.3l-0.2,0c0.2-1,0.4-2,0.6-3c0.2-1.5,0.3-3.1,0.4-4.6c0-2.7-0.2-5.5-0.8-8.1
			c1.3-0.1,2.6-0.3,3.9-0.5c7.6-1.1,15.1-2.9,22.4-5.4C329.7,474.5,336.1,474.8,342.5,474.8z M381,472.8c0.5,0,1.1,0,1.6-0.1
			c7-0.4,14-1.1,20.9-2.4c3.5-0.6,6.9-1.4,10.3-2.2c1.1-0.3,2.2-0.6,3.3-0.9c-0.4,2.4-0.5,4.7-0.6,7.1c0,2.7,0,5.4,0.4,8.2
			c0,0-0.1,0-0.1,0l-0.2,0l-0.2,0.1c-2.9,1.1-5.9,2.1-9,2.8c-3.1,0.7-6.2,1.3-9.3,1.7c-3.1,0.4-6.3,0.7-9.5,0.9
			c-2.9,0.2-5.8,0.2-8.6,0.1c0.4-0.7,0.7-1.5,0.9-2.3c0.5-1.5,0.8-3,1-4.5C382.2,478.5,382,475.5,381,472.8z M358.3,513
			c-0.1,0-0.1,0-0.2,0l-0.4,0l-0.4,0.2c-6.1,2.5-12.9,3.5-19.6,3.8c-3.4,0.2-6.8,0.1-10.2,0c-3.4-0.2-6.8-0.4-10.2-0.9l-0.3,0
			l-0.3,0.1c-0.2,0-0.3,0.1-0.5,0.1c-0.6-2.6-0.7-5.2-0.8-7.8l-0.1-5.1c-0.1-1.3-0.1-2.7-0.2-4c0.8,0,1.7,0.1,2.5,0.1
			c7,0.3,13.9,0.4,20.9,0.1c6.2-0.2,12.5-0.7,18.7-1.8c-0.8,2.5-1.2,5.1-1.1,7.8C356.3,508,356.8,510.7,358.3,513z M367.2,527.2
			c-4.1,1.9-8.6,3.1-13.1,4.1c-4.6,1-9.4,1.6-14.1,2.1c-9.5,1.1-19.1,1.5-28.6,1.5l-0.2,0l-0.2,0c-1.7,0.4-3.4,0.6-5.1,0.9
			c-0.3-2.6-0.7-5.1-1-7.6c-0.3-2.3-0.5-4.7-0.8-7.1c4.4-0.6,8.7-1.4,13-2.4c3.4,0.5,6.8,0.8,10.2,1c3.5,0.2,7,0.3,10.5,0.2
			c6.8-0.3,13.8-1.1,20.4-3.8c2.9,0.2,5.8,0.2,8.7,0.2c-0.3,1.8-0.4,3.7-0.4,5.5C366.6,523.5,366.7,525.4,367.2,527.2z M311,554.6
			C310.9,554.6,310.9,554.6,311,554.6l-0.3,0l-0.3,0.1c-4.9,2.2-10.1,3.5-15.4,4.5c-5.3,0.9-10.8,1.2-16.2,1.4
			c-5.4,0.2-10.9-0.1-16.4-0.5c-5.4-0.4-10.9-1-16.3-2l-0.1,0l-0.1,0c0,0,0,0,0,0c-0.5-1.6-0.5-3.1-0.5-4.7c0-1.7,0.2-3.5,0.2-5.2
			c0.1-3.3,0-6.7-0.6-10.1c0.3,0,0.7-0.1,1-0.1l16.3,0.6c5.5,0.2,10.9,0.3,16.4,0.4c5.5,0.1,10.9,0.1,16.4-0.1
			c5.4-0.2,10.7-0.3,16.3-1.5c0.2,0,0.3,0,0.5,0c-1,2.9-1.5,5.9-1.7,8.9C310.1,549.2,310.3,552,311,554.6z M200,545.5
			c-0.3-3.2-1-6.4-2.4-9.4c3.8,0.5,7.6,0.8,11.4,1.2c4.1,0.4,8.2,0.7,12.3,1c4.1,0.2,8.2,0.4,12.4,0.4c3.7,0,7.5-0.1,11.2-0.5
			c-0.8,3.3-1.1,6.7-1.2,10.1c0,1.8-0.1,3.5,0.2,5.3c0.2,1.6,0.8,3.3,1.8,4.6c-3.8,0.3-7.6,0.5-11.5,0.5c-3.9,0-7.8-0.1-11.7-0.4
			c-7.8-0.5-15.5-1.6-23.1-3.2l-0.1,0l-0.2,0c-0.1,0-0.2,0-0.2,0C200,552,200.2,548.7,200,545.5z M196.2,496.1
			c6.3,1,12.6,1.8,18.9,2.2c3.3,0.2,6.7,0.4,10,0.4l5,0.1c1.7,0,3.3-0.1,5-0.1c1.6,0,3.3-0.1,4.9-0.2c-1.6,2.9-2.1,6.3-1.9,9.6
			c0.3,3,1.3,6,3.1,8.4c-0.2,0-0.4-0.1-0.7-0.1l-0.1,0l-0.1,0c-3.7,0.2-7.5,0.4-11.2,0.4c-3.7,0-7.5-0.1-11.2-0.3
			c-7.5-0.4-14.9-1.3-22.2-2.8c0.5-3,0.7-5.8,0.8-8.7C196.6,502,196.6,499.1,196.2,496.1z M256.6,496c0.5-2.9,0.5-5.6,0.7-8.4
			c0.1-2.6,0.2-5.2,0.1-8c6.7,0.6,13.5,0.9,20.3,1c6.3,0,12.7-0.4,19-1.1c-0.4,2.7-0.5,5.4-0.7,8c-0.1,1.5-0.1,3-0.2,4.5
			c0,1.1,0,2.3,0,3.4c-3.1,0.7-6.2,1.3-9.3,1.6c-3.4,0.4-6.9,0.6-10.4,0.6c-7,0-14-0.6-20.8-1.9l-0.1,0l-0.1,0
			c-3.3,0.4-6.6,0.9-9.9,1.2c-3.3,0.2-6.6,0.6-10,0.6c-6.7,0.4-13.3,0.1-20-0.4c-6.6-0.5-13.3-1.4-19.8-2.7c-6.5-1.3-13-3-19.2-5.2
			l0,0c0.1-2.4,0-4.7,0.1-7c0-2.3,0.2-4.5,0.2-6.9c3.2-0.4,6.4-0.9,9.6-1.3c7.5,1.1,15.1,1.8,22.7,2.2c7.6,0.4,15.3,0.4,22.9-0.5
			c7.6,1.6,15.2,2.6,22.9,3.4c0.9,0.1,1.8,0.2,2.7,0.2c-1.2,2.5-1.7,5.2-1.9,7.9C255.3,490.4,255.6,493.3,256.6,496z M314.3,513.6
			c0.3,0.9,0.6,1.8,1.1,2.7c-5.7,1.4-11.5,2.5-17.4,3.1c-6.3,0.6-12.7,1-19.1,0.9c-12.4-0.1-24.9-1.2-37.1-3.7
			c-0.7-3-1.3-5.8-1.5-8.7c-0.3-3.1-0.2-6.2,0-9.5c5-0.3,10-0.8,15-1.3c6.9,1.6,13.9,2.4,21,2.5c3.5,0.1,7.1,0,10.6-0.3
			c3.5-0.3,6.9-0.9,10.3-1.6c5.9,0.7,11.7,1.2,17.6,1.5c-0.5,1.3-0.7,2.7-0.9,4c-0.2,1.7-0.3,3.5-0.3,5.2
			C313.6,510.1,313.7,511.9,314.3,513.6z M303,528.4c0.3,2.6,1.1,5.2,2.6,7.4c-3.5,0.4-7,0.7-10.6,0.9c-5.4,0.3-10.9,0.4-16.3,0.5
			c-5.4,0.1-10.9,0.1-16.3,0.1c-3.7,0-7.4-0.1-11.1-0.1c1.9-2.3,2.8-5.3,3.1-8.3c0.3-3.1,0.1-6.1-0.6-9.1c1.9,0.3,3.8,0.6,5.7,0.8
			c6.4,0.8,12.8,1.3,19.3,1.6c6.5,0.3,12.9,0.1,19.4-0.4c1.8-0.1,3.6-0.3,5.4-0.6C302.8,523.5,302.7,526,303,528.4z M206.7,516.7
			c3.8,0.4,7.5,0.7,11.3,0.8c3.8,0.2,7.5,0.2,11.3,0.2c3.7,0,7.5-0.1,11.2-0.3c4.4,1,8.8,1.7,13.2,2.4c-0.7,3-0.9,6-1.2,8.9
			c-0.3,2.8-0.8,5.6-1.5,8.5c-1.7,0-3.3-0.1-5-0.1l0,0l0,0c-4,0.6-8.1,0.7-12.3,0.7c-4.1,0-8.2-0.2-12.3-0.5
			c-8.2-0.6-16.4-1.6-24.5-2.9l0,0l-0.1,0c-1.1,0-2.1,0-3.2-0.1c-1.2-1.2-1.9-2.6-2.5-4.1c-0.6-1.6-1.1-3.3-1.5-4.9
			c-0.4-1.6-0.8-3.3-1-5c-0.2-1.5-0.2-3.1-0.2-4.7c2.4-0.1,4.7-0.3,7.1-0.4C199.3,515.9,203,516.4,206.7,516.7z M196.8,536
			c0.2,0,0.5,0.1,0.7,0.1c0.1,3.3,0.4,6.4,0.6,9.5c0.3,3.1,0.4,6.3,0.8,9.5c-4.2,0.4-8.3,0.6-12.5,0.5c-4.3-0.1-8.6-0.5-12.8-1.1
			c-4.3-0.6-8.4-1.5-12.6-2.6c-4.1-1.1-8.3-2.5-12.1-4.2l-0.3-0.2l-0.3,0c-0.1,0-0.2,0-0.3,0c-0.8-3.3-0.8-6.5-0.7-9.9
			c0.1-3.7,0.3-7.3,0.4-11.1c0,0,0.1,0,0.1,0c3.9,1.4,7.8,2.6,11.8,3.7c4,1.1,8.1,2.1,12.2,3C180,535,188.3,536.2,196.8,536z
			 M312.2,546.6c0.1-3,0.2-5.9,0.2-8.9c4.5,0.1,9,0,13.4-0.2c4.8-0.2,9.7-0.5,14.5-1c4.8-0.5,9.6-1.2,14.4-2.2
			c1.1-0.2,2.2-0.5,3.3-0.8c-0.2,2.8-0.2,5.5-0.3,8.2c-0.1,2.7-0.2,5.3-0.2,8.1l-0.2,0.1c-3.3,1.4-7.3,2-11.1,2.6
			c-3.9,0.5-7.8,0.9-11.7,1.2c-7.6,0.6-15.2,0.9-22.8,1C312,551.9,312,549.2,312.2,546.6z M200.6,458.8c7,0.2,14,0.1,21-0.2
			c5.9-0.2,11.8-0.7,17.7-1.4c-2.4,2-4.2,4.7-5.5,7.5c-1.3,3.2-2.1,6.7-1.6,10.1c1.1-3.3,2.1-6.3,3.4-9.3c1.2-2.8,2.6-5.5,4.1-8.4
			c0.9-0.1,1.8-0.2,2.8-0.3c8.3,1,16.5,1.7,24.8,1.8c4.2,0,8.3,0,12.5-0.3c4.1-0.3,8.2-0.9,12.2-1.9c8.2,1.5,16.4,2.4,24.7,2.8
			c2.1,0.1,4.2,0.2,6.3,0.3c-0.6,1.9-0.8,3.9-0.9,5.8c0,1.1,0,2.3,0.1,3.4c0.1,0.7,0.2,1.5,0.6,2.2l-0.3,0.1
			c-7.2,2.5-14.6,4.4-22.1,5.7c-7.6,1.1-15.2,1.9-22.9,2.1c-7.7,0.2-15.4,0-23.1-0.6c-7.7-0.6-15.3-1.7-22.9-3.1l-0.1,0l-0.1,0
			c-7.5,1-15.2,0.8-22.8,0.3c-7.3-0.5-14.5-1.5-21.7-2.7c0.7-2.3,0.9-4.7,0.7-7.1c-0.2-2.5-0.7-5-1.8-7.3
			C191,458.5,195.8,458.7,200.6,458.8z M107.3,452.9c6,0.3,12,0.3,18,0c1.4,0.5,2.7,0.8,4,1.1c1.4,0.3,2.8,0.5,4.2,0.7
			c2.8,0.3,5.7,0.5,8.5,0.6c5.6,0.2,11.2,0.1,16.8-0.1c6.9,1.2,13.8,2,20.8,2.6c2.1,0.2,4.2,0.3,6.3,0.4c-0.1,2.6,0,5,0.1,7.4
			c0.1,2.3,0.2,4.6,0.5,6.9c-0.1,0-0.1,0-0.2,0l-0.1,0l-0.2,0c-3.4,0.4-6.8,0.8-10.2,1.1c-3.4,0.2-6.8,0.5-10.2,0.5
			c-6.8,0.2-13.6,0.1-20.4-0.5c-6.8-0.7-13.5-1.5-20.1-3.1c-6.4-1.5-12.8-3.4-18.7-6.2c0.3-1.8,0.4-3.6,0.6-5.3
			C107.2,457,107.4,455,107.3,452.9z M82.7,452.9c0.1-1.1,0.2-2.3,0.3-3.5c0.5,0.1,1,0.2,1.5,0.4c7.4,1.6,14.9,2.6,22.5,3.1
			c-1.1,1.8-1.7,3.9-1.9,6c-0.1,1.7,0,3.5,0.5,5.2l-0.1,0c-2.1-0.2-4.2-0.4-6.3-0.7c-2.1-0.3-4.1-0.7-6.2-1.2c-2-0.5-4.1-1.1-6-1.8
			c-1.8-0.7-3.7-1.5-5.3-2.5C82.3,456.1,82.5,454.6,82.7,452.9z M125.3,486c-5.1-0.3-10.1-1-15.1-1.9c-5-0.9-9.9-2.1-14.8-3.5
			c-4.8-1.5-9.6-3.2-14.1-5.5l-0.2-0.1l-0.1,0c0.2-2.6,0.2-5.1,0.3-7.5c0-2.6,0.2-5.2,0.1-7.9c1.6,1,3.3,1.7,5,2.4
			c2,0.8,4.1,1.5,6.2,2c2.1,0.6,4.2,1,6.3,1.4c2.1,0.4,4.1,0.6,6.2,0.8c6.3,3.1,12.8,5.1,19.4,6.7c5,1.2,10.1,2.1,15.2,2.7
			c-0.5,1.4-0.7,2.9-0.7,4.4c0,2.1,0.4,4.2,1.6,6c0.4-2.1,0.3-4.1,0.3-6c0-1.4-0.1-2.8-0.2-4.3c1.4,0.2,2.9,0.3,4.3,0.4
			c3.4,0.2,6.9,0.5,10.3,0.4c3.5,0.1,6.9,0,10.3-0.2c3.4-0.1,6.9-0.6,10.3-0.9c0.1,0,0.2,0,0.3,0c-1.3,2.1-1.8,4.5-1.9,6.8
			c0,2.4,0.4,4.8,1.6,6.9l-0.2,0c-2.9,0.2-5.9,0.3-8.8,0.2c-2.9,0-5.9-0.1-8.8-0.3c-2.9-0.2-5.9-0.5-8.7-1c-2.9-0.5-5.8-1.1-8.5-1.9
			l-0.2-0.1l-0.2,0c-2.5,0-5.1,0.1-7.6,0C130.3,486.2,127.8,486.2,125.3,486z M125.7,494.7c0.1-2,0.4-4,0.7-6.2
			c2.2,0.2,4.3,0.2,6.5,0.4c2.5,0.1,5,0,7.5,0c2.9,0.9,5.8,1.4,8.7,1.9c3,0.4,6,0.7,9,0.9c3,0.2,6,0.3,9,0.2
			c2.9-0.1,5.9-0.3,8.8-0.5c6.4,2.1,12.8,3.5,19.4,4.6c0.3,0,0.6,0.1,0.9,0.1c-1,2.9-1.3,5.9-1.4,8.8c0,2.9,0.2,5.9,1,8.8l-0.1,0
			c-3.1,0.1-6.1,0.3-9.2,0.3c-3.1-0.1-6.1,0-9.2-0.3l-4.6-0.3l-4.6-0.5c-3-0.2-6.1-0.8-9.1-1.2c-6-1.1-11.9-2.5-17.8-4.3
			c-5.4-1.7-10.9-3.8-15.8-6.5C125.5,498.8,125.5,496.8,125.7,494.7z M121.5,522.5c-4.4-0.8-8.7-2-12.9-3.4c-4-1.3-7.9-3-11.6-4.9
			c-0.2-0.9-0.1-2-0.1-3l-0.1-4.5c-0.1-2.9-0.1-5.8-0.4-8.8c4.4,1.5,8.8,2.5,13.3,3.3c2.3,0.4,4.7,0.7,7.1,0.9
			c2.3,0.2,4.5,0.3,6.8,0.3c5.4,3.1,11.1,5.3,16.9,7.3c2.5,0.8,5.1,1.5,7.7,2.2c-0.9,1.6-1.2,3.5-1.2,5.4c0.1,2.4,0.8,4.9,2.4,6.8
			c-0.2-2.4-0.5-4.6-0.5-6.8c0-1.7,0.1-3.4,0.2-5.1c3.2,0.8,6.4,1.4,9.6,1.9c6.1,0.9,12.3,1.6,18.5,1.7c3.1,0.2,6.2,0,9.3,0
			c0.6,0,1.2-0.1,1.8-0.1c-0.7,1.5-1,3.1-1.1,4.7c-0.1,1.8,0.2,3.7,0.6,5.4c0.5,1.8,1.1,3.4,2,5.1c0.8,1.4,2,2.8,3.5,3.4
			c-2.9-0.2-5.9-0.5-8.8-0.9c-4.1-0.6-8.1-1.5-12.2-2.4c-4-0.9-8-2-12-3.1c-4-1.2-8-2.4-11.9-3.7l-0.3-0.1l-0.3,0
			c-4.4,0.3-8.8,0.5-13.2,0.1C130.2,524,125.8,523.4,121.5,522.5z M124.9,538.8c0-1.5,0.1-3.1,0.2-4.7c0.1-2.9,0.3-5.7,0.3-8.7
			c3,0.5,6,0.9,9.1,1.1c4.3,0.4,8.7,0.3,13,0.1c-1.4,3.5-2.1,7.3-2.2,11.1c0,2,0,4,0.5,6c0.3,1.4,0.8,2.8,1.5,4
			c-1.7,0.2-3.3,0.3-5,0.2c-2,0-3.9-0.2-5.8-0.5c-1.9-0.3-3.8-0.8-5.6-1.5c-1.8-0.7-3.6-1.5-5.1-2.6l-0.3-0.3l0,0
			C125,541.7,124.9,540.3,124.9,538.8z M148.4,566.7c-2.9-0.2-5.8-0.3-8.5-0.8c-2.7-0.5-5.3-1.4-7.3-3.3l-0.3-0.3l-0.4,0.1
			c-0.3,0-0.6,0.1-0.9,0.1c-0.2-0.2-0.4-0.5-0.5-0.8l-1.2-2.4c-0.8-1.6-1.6-3.2-2.3-4.8c-1.4-3-2.3-6-2.9-9.4l0.8-0.1
			c1.7,1.3,3.4,2.1,5.2,2.9c1.9,0.8,4,1.3,6,1.7c2,0.4,4.1,0.6,6.2,0.6c2,0.1,3.9,0,5.8-0.2c4,1.8,8,3.2,12.1,4.4
			c0.3,0.1,0.5,0.1,0.8,0.2c0.2,2,0.5,3.9,0.9,5.7c0.4,2,0.8,4,1.5,6.1C158.5,567.1,153.4,566.9,148.4,566.7z M199.7,572.5l-0.1-0.1
			l-0.2,0c-5.9-0.1-11.8-0.5-17.6-1.4c-5.6-0.8-11-2.1-16.2-4.1l-0.2-0.7c-0.6,0.1-1.1,0.1-1.7,0.2c0.6-2.1,0.6-4.3,0.2-6.4
			c-0.4-1.8-1-3.6-2-5.2c3.8,1,7.6,1.7,11.4,2.2c4.4,0.6,8.8,0.9,13.2,0.8c4.4,0,8.7-0.4,13-1c-0.3,2.7-0.2,5.4-0.1,8
			c0.1,1.4,0.1,2.8,0.3,4.1c0.1,0.7,0.1,1.4,0.2,2.1c0,0.5,0.2,1,0.2,1.4C199.8,572.5,199.7,572.5,199.7,572.5z M278.8,578.4
			c-8.6,0.1-17.2-0.3-25.7-1.2c0.8-2.8,0.9-5.6,0.7-8.4c-0.2-2.9-0.7-5.7-1.8-8.5c-0.4,2.9-0.3,5.8-0.1,8.6c0.2,2.7,0.4,5.5,1.1,8.3
			c0,0-0.1,0-0.1,0l-0.1,0l0,0c-4.5,0.2-9,0.3-13.4,0.3c-4.5,0-9-0.1-13.4-0.5c-4.5-0.3-8.9-0.8-13.3-1.5c-4.2-0.7-8.4-1.6-12.4-2.9
			c0.3-0.5,0.3-1,0.5-1.5c0.1-0.7,0.3-1.4,0.4-2.1c0.2-1.4,0.2-2.8,0.2-4.2c-0.1-2.7-0.6-5.4-1.7-7.9c7.7,1.3,15.3,2,23.1,2.5
			c3.9,0.2,7.8,0.3,11.7,0.3c3.9,0,7.8-0.2,11.7-0.4c5.4,1,10.8,1.8,16.3,2.4c5.5,0.6,11,1,16.5,1c5.5,0,11.1-0.2,16.6-1
			c2.6-0.4,5.2-0.9,7.8-1.6c-0.8,2.6-1.1,5.4-1.3,8.1c0,1.7-0.1,3.3,0.2,5.1c0.2,1.2,0.6,2.5,1.3,3.5
			C295.3,577.9,287.1,578.4,278.8,578.4z M360.1,566.7c-4,2-8.3,3.6-12.7,4.8c-4.6,1.3-9.3,2.1-14,2.9c-4.7,0.7-9.5,1.3-14.3,1.6
			c-4.8,0.4-9.6,0.6-14.3,0.6l-0.1,0l-0.1,0c-0.2,0-0.4,0.1-0.6,0.1c-0.4-1.2-0.4-2.4-0.4-3.6l0.2-4.9c0.1-2.8,0.1-5.5,0-8.4
			c2.5-0.7,5-1.5,7.4-2.5c7.9,0,15.7-0.2,23.6-0.7c4-0.3,7.9-0.6,11.9-1.2c3.8-0.6,7.7-1.2,11.5-2.7c0.9,0,1.7,0,2.6,0.1
			c-0.3,2.2-0.4,4.4-0.5,6.5C360.2,561.7,360,564.1,360.1,566.7z M394.2,556.9c0.2,2.8,0.3,5.6,0.8,8.4c-5.4,0.9-10.9,1.5-16.4,1.7
			c-2.9,0.1-5.7,0.1-8.6,0c-2.8-0.1-5.7-0.3-8.5-0.7l-0.5-0.1l-0.4,0.2c-0.1,0.1-0.2,0.1-0.3,0.2c1.2-2.2,1.8-4.7,1.9-7.2
			c0.1-2.2-0.2-4.5-0.9-6.6c3.6,0,7.1-0.1,10.7-0.4c4.7-0.3,9.4-1,14-1.8c2.5-0.4,4.9-1,7.4-1.6C393.7,551.7,394,554.3,394.2,556.9z
			 M413.2,521.7c-0.2,3.1-0.2,6-0.4,9c-0.1,3.1-0.5,6.1-0.6,9.3l-0.1,0l-0.3,0.1c-4.2,2-8.4,3.6-12.9,4.9c-4.4,1.2-8.9,2.3-13.5,3
			c-4.6,0.7-9.1,1.2-13.7,1.5c-4.6,0.3-9.2,0.4-13.7,0.2c1-2.5,1.5-5.2,1.6-7.9c0.1-2.8-0.3-5.7-1.2-8.4c3.4-0.9,6.8-1.9,10.1-3.5
			c7.4-0.7,14.8-1.6,22.2-2.8c3.7-0.6,7.4-1.3,11.1-2.1c3.6-0.9,7.2-1.7,10.7-3.4C412.7,521.7,412.9,521.7,413.2,521.7z
			 M412.9,519.6c-0.2,0-0.4,0-0.6,0l-0.3,0l-0.3,0.2c-3.1,1.5-6.8,2.3-10.4,3c-3.6,0.7-7.3,1.3-11,1.8c-7.4,1-14.7,1.8-22.1,2.5
			c0.3-1.8,0.4-3.5,0.3-5.3c-0.1-1.8-0.2-3.7-0.6-5.5c2.8-0.1,5.7-0.2,8.5-0.5c6.1-0.6,12.3-1.5,18.3-3c5.9-1.4,11.6-3.4,17.2-5.8
			c-0.1,1.9,0.1,3.8,0.2,5.7C412.2,514.9,412.4,517.2,412.9,519.6z M428.9,484c-0.3,2-0.5,3.9-0.7,5.8c-0.2,1.8-0.5,3.7-0.7,5.6
			c0,0-0.1,0-0.1,0l-0.3,0l-0.3,0.2c-5,3.4-10.1,6.6-15.7,8.9c-5.6,2.3-11.3,4.2-17.2,5.5c-5.9,1.3-11.8,2.3-17.9,2.8
			c-5.7,0.5-11.5,0.6-17.1,0.2c-0.5-2.6-0.7-5.1-0.8-7.6c-0.1-2.5,0-5.1-0.3-7.8c0.5-0.1,1.1-0.2,1.6-0.3c6.8-1.3,13.5-3,19.9-6.1
			c3.2,0.1,6.3,0,9.4-0.1c3.2-0.2,6.5-0.6,9.7-1c3.2-0.5,6.4-1.2,9.6-2c3.1-0.8,6.1-1.8,9.1-3C421,484.9,424.9,484.5,428.9,484z
			 M413.1,465.6c-3.4,0.7-6.7,1.5-10.1,1.9c-6.8,1.1-13.7,1.9-20.5,2.2c-6.9,0.3-13.8,0.3-20.6-0.3l-0.1,0c0.2-2.1,0.2-4.1,0.2-6.1
			c0-2-0.1-4-0.3-6.1l2.2-0.3l3.1-0.6c8.2-1.4,16.2-3.7,24.1-6.3c5.7-0.3,11.3-0.9,16.8-1.8c2.8-0.5,5.6-1.1,8.4-1.8
			c2.7-0.8,5.4-1.6,7.9-3c5.8-0.2,11.4-0.7,17.1-1.4c0.4-0.1,0.8-0.1,1.2-0.2c-0.2,2.4-0.2,4.6-0.1,6.8c0.1,2.3,0.3,4.5,0.7,6.8
			c-0.1,0-0.3,0-0.4,0l-0.2,0l-0.2,0.1c-6.3,2.8-12.6,5.6-19.3,7.5l-2.5,0.8l-2.5,0.6C416.4,464.7,414.8,465.2,413.1,465.6z"/>
	</g>
	<g>
		<g>
			<path class="st2" d="M358.2,97c-29.3-7.3-56.8-21.2-80.1-40.3c18.1,2.8,34.4,15.1,52.5,20.1c6.1,1.7,13.3,2.3,17.9-2
				c3.3-3,4.4-7.7,5-12.2c2-13.5,1.9-27.4-0.3-40.9c-0.4-2.8-1.1-5.7-3-7.6c-2.7-2.7-7-2.8-10.8-2.4c-20.7,1.9-39.9,11.1-58.6,20.4
				c-3.8,1.9-7.8,4-10.2,7.5c-2.4-3.4-6.5-5.5-10.3-7.3c-18.7-9-38.1-18-58.8-19.6c-3.8-0.3-8.1-0.2-10.8,2.5c-1.9,2-2.5,4.9-3,7.7
				c-2,13.5-1.9,27.4,0.3,40.9c0.7,4.4,1.8,9.1,5.2,12.1c4.7,4.2,11.9,3.5,18,1.8c16.1-4.7,30.8-15.1,46.7-19.5
				c-3.8,1.9-7.5,4.1-11.3,6.1c-19.5,10.8-40.1,19.4-61.4,25.7c-0.8,0.2-1.6,0.5-2.1,1.1c-0.5,0.6-0.7,1.5-0.8,2.3
				c-1.9,15.9,6.2,32.5,19.8,40.9c1.3,0.8,2.6,1.5,4.1,1.7c3.7,0.5,7.1-2.2,9.9-4.7c12.8-11.2,26.9-21,38.3-33.5
				c8.6-9.4,15.7-20.7,18.4-32.9c7.4,25.9,19.7,50.5,36.1,71.9c1.1,1.4,2.3,2.9,4,3.7c1.5,0.7,3.2,0.7,4.9,0.6
				c5-0.1,10.1-0.2,15-1.4c9.9-2.5,18.2-9.4,24.6-17.4c3.4-4.2,6.4-9.3,7.5-14.5C365.9,102.9,362.9,98.2,358.2,97z"/>
			<g>
				<g>
					<path class="st3" d="M274,45.2c7.2-5,15.4-8.6,23.9-10.9c8.5-2.3,17.4-3.4,26.2-2.8c-8.7,1.1-17.2,2.6-25.6,4.9
						C290.2,38.6,282.1,41.7,274,45.2z"/>
					<path class="st3" d="M273.9,49.7c5.1-2.6,10.7-4.1,16.4-4.9c5.7-0.7,11.5-0.8,17.1,0.3c-5.7,0.6-11.3,1-16.8,1.8
						C285.1,47.7,279.6,48.7,273.9,49.7z"/>
					<path class="st3" d="M220.4,39.8c7.8-3.4,16.7-4.5,25.2-3.5c4.3,0.5,8.5,1.5,12.5,3.1c2,0.8,4,1.7,5.8,2.7l2.7,1.7
						c0.5,0.3,0.9,0.7,1.2,1.1c0.3,0.5,0.5,1.1,0.3,1.6c0.1-0.5-0.1-1-0.5-1.4c-0.4-0.4-0.8-0.6-1.3-0.8l-2.9-1.2
						c-2-0.8-3.9-1.5-5.9-2.1c-4-1.2-8.1-2.1-12.2-2.5C237.1,37.4,228.7,38,220.4,39.8z"/>
					<path class="st3" d="M236.7,49.2c4.7-0.5,9.2-0.7,13.8-1.2c4.6-0.4,9.1-1,13.8-1.3c-4.3,2-8.9,3-13.6,3.4
						C246,50.6,241.3,50.4,236.7,49.2z"/>
				</g>
				<g>
					<g>
						<path class="st3" d="M268.2,58.4c-4.3,8.2-10.3,15.4-17.1,21.7c-6.9,6.2-14.7,11.4-23.3,14.9c7.7-5,15.1-10.4,21.8-16.5
							C256.4,72.4,262.5,65.6,268.2,58.4z"/>
						<path class="st3" d="M271.1,60.4c-2.1,6.2-5.3,12-9.1,17.3c-1.9,2.6-4,5.2-6.3,7.5c-1.1,1.2-2.3,2.3-3.5,3.4
							c-0.6,0.5-1.2,1.1-1.9,1.6c-0.7,0.5-1.6,0.9-2.4,0.5c0.8,0.2,1.5-0.4,2-0.9c0.5-0.6,1-1.2,1.5-1.9l3-3.8c2-2.5,4-5.1,5.8-7.7
							C264.1,71.3,267.5,65.9,271.1,60.4z"/>
					</g>
					<path class="st3" d="M276.9,56.2c4.5,7.5,9.7,14.4,15.8,20.5c6,6.1,12.9,11.4,20.3,16c-8.2-3.1-15.7-8.2-21.9-14.5
						C284.9,71.9,279.9,64.4,276.9,56.2z"/>
				</g>
			</g>
			<path class="st4" d="M261.7,51.4c0,3.6,1.4,7.2,4,9.8c0.8,0.8,1.6,1.5,2.7,1.8c1.9,0.6,5.1-0.2,6.8-1.3
				c4.3-2.9,5.1-11.1,4.1-16.1c-0.8-3.8-5.4-7.2-9.9-6.2C264.5,40.6,261.7,47.1,261.7,51.4z"/>
		</g>
	</g>
</g>
</svg>
