<?xml version="1.0" encoding="utf-8"?>
<!-- Generator: Adobe Illustrator 19.0.0, SVG Export Plug-In . SVG Version: 6.00 Build 0)  -->
<svg version="1.1" id="Layer_1" xmlns="http://www.w3.org/2000/svg" xmlns:xlink="http://www.w3.org/1999/xlink" x="0px" y="0px"
	 viewBox="0 0 1000 1000" style="enable-background:new 0 0 1000 1000;" xml:space="preserve">
<style type="text/css">
	.st0{fill:#8CAE3E;}
	.st1{fill:#D23878;}
</style>
<path id="XMLID_11_" class="st0" d="M569.8,686.9c-29.6,17.6-48.2,49.7-63.4,85.8V657.8c56.8-3.6,124.8-17.5,127.7-65.2
	c2.1-34.9-31.2-42-64.2-22.4c-29.6,17.6-48.2,49.7-63.4,85.8V481.1c0-2.6-2.1-4.7-4.7-4.7s-4.7,2.1-4.7,4.7v172.2
	c-15.1-35.3-33.6-66.6-62.7-83.9c-33-19.7-66.3-12.6-64.2,22.4c2.8,47.4,70.3,61.5,126.9,65.2v116c-15.1-35.3-33.6-66.6-62.7-83.9
	c-33-19.7-66.3-12.6-64.2,22.4c2.8,47.4,70.3,61.5,126.9,65.2v102.8c0,2.6,2.1,4.7,4.7,4.7c2.6,0,4.7-2.1,4.7-4.7V774.5
	c56.8-3.6,124.8-17.5,127.7-65.2C636.1,674.4,602.9,667.3,569.8,686.9L569.8,686.9z"/>
<g>
	<path class="st1" d="M492.3,332.3l-13.4,19.9c-4.1,1.6-5.8,0.1-5.7-3.8l14.8-20l-3.5-3.5c-59.8,22-103,45.6-117.3,71.2
		c-13.4,34.1,5.8,58.8,45,42.6c-8.2,45.7,38.1,54.7,61.2,19.8c12.8-12.5,21.1-53.6,24.7-124.5L492.3,332.3L492.3,332.3z
		 M464.6,379.2c-6.6,0-12-5.4-12-12c0-6.6,5.4-12,12-12s12,5.4,12,12C476.6,373.9,471.2,379.2,464.6,379.2z"/>
	<path class="st1" d="M482.6,310.9l-23.1-6.6c-2.8-3.4-1.9-5.5,1.8-6.6l23.6,7.9l2.2-4.4c-39.5-50-75.3-83.8-104.1-89.4
		c-36.5-2.2-54.1,23.8-26.6,56c-46,6.4-40.2,53.2,0.2,64.3c15.9,8.3,57.5,3.4,126.1-15.1L482.6,310.9L482.6,310.9z M429.4,299.1
		c-2-6.3,1.4-13,7.7-15.1c6.3-2,13,1.4,15.1,7.7c2,6.3-1.4,13-7.7,15.1C438.2,308.8,431.4,305.4,429.4,299.1L429.4,299.1z"/>
	<path class="st1" d="M499.9,295l-0.9-24c2.4-3.7,4.7-3.5,6.8-0.3l-0.2,24.9l4.9,0.8c35.3-53,56.3-97.5,52.8-126.7
		c-9.3-35.4-39.3-44-61.5-7.9c-20.3-41.8-63-21.8-61.1,20.1c-2.9,17.6,14.6,55.7,53.4,115.2L499.9,295L499.9,295z M494.6,240.7
		c5.3-3.9,12.8-2.7,16.7,2.6c3.9,5.3,2.7,12.8-2.6,16.7c-5.3,3.9-12.8,2.7-16.7-2.6C488.1,252.1,489.3,244.6,494.6,240.7z"/>
	<path class="st1" d="M520.4,306.5l22.5-8.3c4.3,1.1,4.7,3.4,2.4,6.4l-23.7,7.5l0.8,4.9c61.4,17.2,110.2,23.3,136.8,10.9
		c30.8-19.8,29.7-51.1-11.5-60.9c33.4-32.3,1.2-66.7-38.1-51.9c-17.7,2.7-48.5,31.1-93,86.5L520.4,306.5L520.4,306.5z M570.4,284.7
		c5.4,3.9,6.6,11.3,2.7,16.7c-3.9,5.4-11.3,6.6-16.7,2.7s-6.6-11.3-2.7-16.7S565,280.8,570.4,284.7L570.4,284.7z"/>
	<path class="st1" d="M515.8,329.6l14.8,18.8c0.3,4.4-1.7,5.6-5.3,4.3l-14.5-20.2l-4.4,2.3c2.7,63.7,12,112,32,133.4
		c28.3,23.2,57.7,12.4,54.3-29.8c41,21.8,63.7-19.5,37.5-52.3c-8-16-44.6-36.4-111-61.6L515.8,329.6L515.8,329.6z M552,370.3
		c-2,6.3-8.8,9.8-15,7.7c-6.3-2-9.8-8.8-7.7-15c2-6.3,8.8-9.8,15-7.7C550.6,357.3,554,364,552,370.3z"/>
</g>
</svg>
