<?xml version="1.0" encoding="iso-8859-1"?>
<!-- Generator: Adobe Illustrator 18.0.0, SVG Export Plug-In . SVG Version: 6.00 Build 0)  -->
<!DOCTYPE svg PUBLIC "-//W3C//DTD SVG 1.1//EN" "http://www.w3.org/Graphics/SVG/1.1/DTD/svg11.dtd">
<svg version="1.1" id="Capa_1" xmlns="http://www.w3.org/2000/svg" xmlns:xlink="http://www.w3.org/1999/xlink" x="0px" y="0px"
	 viewBox="0 0 417.16 417.16" style="enable-background:new 0 0 417.16 417.16;" xml:space="preserve">
<path fill="" d="M362.855,317.251c12.026-73.937,11.721-148.781-0.906-222.72c1.043-0.454,1.985-1.137,2.738-2.026
	c1.426-1.684,2.037-3.91,1.672-6.085l-8.047-48c-0.605-3.613-3.732-6.26-7.396-6.26h-2.536c-2.373-8.984-4.924-17.99-7.625-26.848
	C339.791,2.156,336.88,0,333.58,0H295.9h-54.92h-64.8h-54.92H83.58c-3.299,0-6.211,2.156-7.174,5.312
	c-2.702,8.858-5.252,17.864-7.625,26.848h-2.536c-3.664,0-6.791,2.647-7.397,6.26l-8.047,48c-0.365,2.176,0.247,4.401,1.672,6.085
	c0.753,0.889,1.695,1.573,2.739,2.027c-12.626,73.938-12.933,148.781-0.906,222.719c-0.684,0.415-1.305,0.94-1.833,1.564
	c-1.425,1.684-2.037,3.91-1.672,6.085l8.047,48c0.606,3.613,3.733,6.26,7.397,6.26h1.024c2.787,10.902,5.841,21.868,9.137,32.686
	c0.961,3.157,3.874,5.314,7.174,5.314h37.68h54.92h64.8h54.92h37.681c3.301,0,6.213-2.157,7.175-5.314
	c3.297-10.826,6.351-21.791,9.136-32.686h1.024c3.664,0,6.791-2.647,7.396-6.26l8.047-48c0.365-2.176-0.246-4.401-1.672-6.085
	C364.159,318.191,363.538,317.666,362.855,317.251z M344.568,364.16H72.592l-5.532-33H350.1L344.568,364.16z M70.325,95.16h28.805
	c-8.728,73.359-8.956,147.62-0.678,221H69.331C57.247,242.801,57.582,168.518,70.325,95.16z M346.835,95.16
	c12.743,73.358,13.078,147.641,0.994,221h-29.121c8.276-73.385,8.049-147.645-0.678-221H346.835z M302.923,95.16
	c8.868,73.345,9.099,147.625,0.689,221h-49.469c3.083-73.402,2.996-147.665-0.261-221H302.923z M238.868,95.16
	c3.277,73.332,3.365,147.601,0.263,221H178.03c-3.101-73.398-3.013-147.667,0.263-221H238.868z M163.017,316.16h-49.469
	c-8.41-73.371-8.178-147.65,0.689-221h49.041C160.021,168.497,159.933,242.76,163.017,316.16z M332.856,32.16h-24.411
	c-1.05-5.679-2.16-11.411-3.328-17.16h22.888C329.691,20.688,331.307,26.424,332.856,32.16z M293.187,32.16H250.32
	c-0.405-5.893-0.815-11.587-1.237-17.16h40.725C290.993,20.743,292.118,26.475,293.187,32.16z M234.04,15
	c0.425,5.574,0.837,11.272,1.244,17.16h-53.408c0.407-5.889,0.819-11.588,1.244-17.16H234.04z M168.077,15
	c-0.422,5.572-0.832,11.266-1.237,17.16h-42.867c1.069-5.689,2.194-11.421,3.379-17.16H168.077z M89.156,15h22.888
	c-1.167,5.746-2.277,11.477-3.328,17.16H84.304C85.853,26.424,87.469,20.688,89.156,15z M72.592,47.16h271.976l5.532,33H67.06
	L72.592,47.16z M82.751,379.16h24.901c1.366,7.637,2.827,15.324,4.388,23H89.157C86.894,394.524,84.756,386.832,82.751,379.16z
	 M122.887,379.16h43.551c0.506,7.569,1.054,15.256,1.642,23h-40.73C125.766,394.495,124.276,386.803,122.887,379.16z M183.12,402.16
	c-0.59-7.739-1.142-15.43-1.651-23h54.223c-0.509,7.566-1.062,15.257-1.652,23H183.12z M249.08,402.16
	c0.588-7.749,1.136-15.435,1.642-23h43.551c-1.389,7.644-2.879,15.337-4.463,23H249.08z M328.002,402.16H305.12
	c1.561-7.675,3.022-15.362,4.388-23h24.901C332.405,386.828,330.267,394.521,328.002,402.16z"/>
</svg>
