<svg xmlns="http://www.w3.org/2000/svg" viewBox="0 -0.5 385 385" shape-rendering="crispEdges">
<path stroke="#6b3710" d="M145 1h96M145 2h96M145 3h96M145 4h96M145 5h96M145 6h96M145 7h96M145 8h96M145 9h96M145 10h96M145 11h96M145 12h96M145 13h96M145 14h96M145 15h96M145 16h96M145 17h96M145 18h96M145 19h96M145 20h96M145 21h96M145 22h96M145 23h96M145 24h96M121 25h24M217 25h24M121 26h24M217 26h24M121 27h24M217 27h24M121 28h24M217 28h24M121 29h24M217 29h24M121 30h24M217 30h24M121 31h24M217 31h24M121 32h24M217 32h24M121 33h24M217 33h24M121 34h24M217 34h24M121 35h24M217 35h24M121 36h24M217 36h24M121 37h24M217 37h24M121 38h24M217 38h24M121 39h24M217 39h24M121 40h24M217 40h24M121 41h24M217 41h24M121 42h24M217 42h24M121 43h24M217 43h24M121 44h24M217 44h24M121 45h24M217 45h24M121 46h24M217 46h24M121 47h24M217 47h24M121 48h24M217 48h24M97 49h24M169 49h48M97 50h24M169 50h48M97 51h24M169 51h48M97 52h24M169 52h48M97 53h24M169 53h48M97 54h24M169 54h48M97 55h24M169 55h48M97 56h24M169 56h48M97 57h24M169 57h48M97 58h24M169 58h48M97 59h24M169 59h48M97 60h24M169 60h48M97 61h24M169 61h48M97 62h24M169 62h48M97 63h24M169 63h48M97 64h24M169 64h48M97 65h24M169 65h48M97 66h24M169 66h48M97 67h24M169 67h48M97 68h24M169 68h48M97 69h24M169 69h48M97 70h24M169 70h48M97 71h24M169 71h48M97 72h24M169 72h48M73 73h24M193 73h24M73 74h24M193 74h24M73 75h24M193 75h24M73 76h24M193 76h24M73 77h24M193 77h24M73 78h24M193 78h24M73 79h24M193 79h24M73 80h24M193 80h24M73 81h24M193 81h24M73 82h24M193 82h24M73 83h24M193 83h24M73 84h24M193 84h24M73 85h24M193 85h24M73 86h24M193 86h24M73 87h24M193 87h24M73 88h24M193 88h24M73 89h24M193 89h24M73 90h24M193 90h24M73 91h24M193 91h24M73 92h24M193 92h24M73 93h24M193 93h24M73 94h24M193 94h24M73 95h24M193 95h24M73 96h24M193 96h24M49 97h24M97 97h24M169 97h24M217 97h24M265 97h96M49 98h24M97 98h24M169 98h24M217 98h24M265 98h96M49 99h24M97 99h24M169 99h24M217 99h24M265 99h96M49 100h24M97 100h24M169 100h24M217 100h24M265 100h96M49 101h24M97 101h24M169 101h24M217 101h24M265 101h96M49 102h24M97 102h24M169 102h24M217 102h24M265 102h96M49 103h24M97 103h24M169 103h24M217 103h24M265 103h96M49 104h24M97 104h24M169 104h24M217 104h24M265 104h96M49 105h24M97 105h24M169 105h24M217 105h24M265 105h96M49 106h24M97 106h24M169 106h24M217 106h24M265 106h96M49 107h24M97 107h24M169 107h24M217 107h24M265 107h96M49 108h24M97 108h24M169 108h24M217 108h24M265 108h96M49 109h24M97 109h24M169 109h24M217 109h24M265 109h96M49 110h24M97 110h24M169 110h24M217 110h24M265 110h96M49 111h24M97 111h24M169 111h24M217 111h24M265 111h96M49 112h24M97 112h24M169 112h24M217 112h24M265 112h96M49 113h24M97 113h24M169 113h24M217 113h24M265 113h96M49 114h24M97 114h24M169 114h24M217 114h24M265 114h96M49 115h24M97 115h24M169 115h24M217 115h24M265 115h96M49 116h24M97 116h24M169 116h24M217 116h24M265 116h96M49 117h24M97 117h24M169 117h24M217 117h24M265 117h96M49 118h24M97 118h24M169 118h24M217 118h24M265 118h96M49 119h24M97 119h24M169 119h24M217 119h24M265 119h96M49 120h24M97 120h24M169 120h24M217 120h24M265 120h96M49 121h24M97 121h24M169 121h24M217 121h48M361 121h24M49 122h24M97 122h24M169 122h24M217 122h48M361 122h24M49 123h24M97 123h24M169 123h24M217 123h48M361 123h24M49 124h24M97 124h24M169 124h24M217 124h48M361 124h24M49 125h24M97 125h24M169 125h24M217 125h48M361 125h24M49 126h24M97 126h24M169 126h24M217 126h48M361 126h24M49 127h24M97 127h24M169 127h24M217 127h48M361 127h24M49 128h24M97 128h24M169 128h24M217 128h48M361 128h24M49 129h24M97 129h24M169 129h24M217 129h48M361 129h24M49 130h24M97 130h24M169 130h24M217 130h48M361 130h24M49 131h24M97 131h24M169 131h24M217 131h48M361 131h24M49 132h24M97 132h24M169 132h24M217 132h48M361 132h24M49 133h24M97 133h24M169 133h24M217 133h48M361 133h24M49 134h24M97 134h24M169 134h24M217 134h48M361 134h24M49 135h24M97 135h24M169 135h24M217 135h48M361 135h24M49 136h24M97 136h24M169 136h24M217 136h48M361 136h24M49 137h24M97 137h24M169 137h24M217 137h48M361 137h24M49 138h24M97 138h24M169 138h24M217 138h48M361 138h24M49 139h24M97 139h24M169 139h24M217 139h48M361 139h24M49 140h24M97 140h24M169 140h24M217 140h48M361 140h24M49 141h24M97 141h24M169 141h24M217 141h48M361 141h24M49 142h24M97 142h24M169 142h24M217 142h48M361 142h24M49 143h24M97 143h24M169 143h24M217 143h48M361 143h24M49 144h24M97 144h24M169 144h24M217 144h48M361 144h24M25 145h24M169 145h24M217 145h24M361 145h24M25 146h24M169 146h24M217 146h24M361 146h24M25 147h24M169 147h24M217 147h24M361 147h24M25 148h24M169 148h24M217 148h24M361 148h24M25 149h24M169 149h24M217 149h24M361 149h24M25 150h24M169 150h24M217 150h24M361 150h24M25 151h24M169 151h24M217 151h24M361 151h24M25 152h24M169 152h24M217 152h24M361 152h24M25 153h24M169 153h24M217 153h24M361 153h24M25 154h24M169 154h24M217 154h24M361 154h24M25 155h24M169 155h24M217 155h24M361 155h24M25 156h24M169 156h24M217 156h24M361 156h24M25 157h24M169 157h24M217 157h24M361 157h24M25 158h24M169 158h24M217 158h24M361 158h24M25 159h24M169 159h24M217 159h24M361 159h24M25 160h24M169 160h24M217 160h24M361 160h24M25 161h24M169 161h24M217 161h24M361 161h24M25 162h24M169 162h24M217 162h24M361 162h24M25 163h24M169 163h24M217 163h24M361 163h24M25 164h24M169 164h24M217 164h24M361 164h24M25 165h24M169 165h24M217 165h24M361 165h24M25 166h24M169 166h24M217 166h24M361 166h24M25 167h24M169 167h24M217 167h24M361 167h24M25 168h24M169 168h24M217 168h24M361 168h24M49 169h24M337 169h24M49 170h24M337 170h24M49 171h24M337 171h24M49 172h24M337 172h24M49 173h24M337 173h24M49 174h24M337 174h24M49 175h24M337 175h24M49 176h24M337 176h24M49 177h24M337 177h24M49 178h24M337 178h24M49 179h24M337 179h24M49 180h24M337 180h24M49 181h24M337 181h24M49 182h24M337 182h24M49 183h24M337 183h24M49 184h24M337 184h24M49 185h24M337 185h24M49 186h24M337 186h24M49 187h24M337 187h24M49 188h24M337 188h24M49 189h24M337 189h24M49 190h24M337 190h24M49 191h24M337 191h24M49 192h24M337 192h24M25 193h24M361 193h24M25 194h24M361 194h24M25 195h24M361 195h24M25 196h24M361 196h24M25 197h24M361 197h24M25 198h24M361 198h24M25 199h24M361 199h24M25 200h24M361 200h24M25 201h24M361 201h24M25 202h24M361 202h24M25 203h24M361 203h24M25 204h24M361 204h24M25 205h24M361 205h24M25 206h24M361 206h24M25 207h24M361 207h24M25 208h24M361 208h24M25 209h24M361 209h24M25 210h24M361 210h24M25 211h24M361 211h24M25 212h24M361 212h24M25 213h24M361 213h24M25 214h24M361 214h24M25 215h24M361 215h24M25 216h24M361 216h24M1 217h24M217 217h24M289 217h24M361 217h24M1 218h24M217 218h24M289 218h24M361 218h24M1 219h24M217 219h24M289 219h24M361 219h24M1 220h24M217 220h24M289 220h24M361 220h24M1 221h24M217 221h24M289 221h24M361 221h24M1 222h24M217 222h24M289 222h24M361 222h24M1 223h24M217 223h24M289 223h24M361 223h24M1 224h24M217 224h24M289 224h24M361 224h24M1 225h24M217 225h24M289 225h24M361 225h24M1 226h24M217 226h24M289 226h24M361 226h24M1 227h24M217 227h24M289 227h24M361 227h24M1 228h24M217 228h24M289 228h24M361 228h24M1 229h24M217 229h24M289 229h24M361 229h24M1 230h24M217 230h24M289 230h24M361 230h24M1 231h24M217 231h24M289 231h24M361 231h24M1 232h24M217 232h24M289 232h24M361 232h24M1 233h24M217 233h24M289 233h24M361 233h24M1 234h24M217 234h24M289 234h24M361 234h24M1 235h24M217 235h24M289 235h24M361 235h24M1 236h24M217 236h24M289 236h24M361 236h24M1 237h24M217 237h24M289 237h24M361 237h24M1 238h24M217 238h24M289 238h24M361 238h24M1 239h24M217 239h24M289 239h24M361 239h24M1 240h24M217 240h24M289 240h24M361 240h24M1 241h24M241 241h48M337 241h24M1 242h24M241 242h48M337 242h24M1 243h24M241 243h48M337 243h24M1 244h24M241 244h48M337 244h24M1 245h24M241 245h48M337 245h24M1 246h24M241 246h48M337 246h24M1 247h24M241 247h48M337 247h24M1 248h24M241 248h48M337 248h24M1 249h24M241 249h48M337 249h24M1 250h24M241 250h48M337 250h24M1 251h24M241 251h48M337 251h24M1 252h24M241 252h48M337 252h24M1 253h24M241 253h48M337 253h24M1 254h24M241 254h48M337 254h24M1 255h24M241 255h48M337 255h24M1 256h24M241 256h48M337 256h24M1 257h24M241 257h48M337 257h24M1 258h24M241 258h48M337 258h24M1 259h24M241 259h48M337 259h24M1 260h24M241 260h48M337 260h24M1 261h24M241 261h48M337 261h24M1 262h24M241 262h48M337 262h24M1 263h24M241 263h48M337 263h24M1 264h24M241 264h48M337 264h24M1 265h24M337 265h24M1 266h24M337 266h24M1 267h24M337 267h24M1 268h24M337 268h24M1 269h24M337 269h24M1 270h24M337 270h24M1 271h24M337 271h24M1 272h24M337 272h24M1 273h24M337 273h24M1 274h24M337 274h24M1 275h24M337 275h24M1 276h24M337 276h24M1 277h24M337 277h24M1 278h24M337 278h24M1 279h24M337 279h24M1 280h24M337 280h24M1 281h24M337 281h24M1 282h24M337 282h24M1 283h24M337 283h24M1 284h24M337 284h24M1 285h24M337 285h24M1 286h24M337 286h24M1 287h24M337 287h24M1 288h24M337 288h24M25 289h24M313 289h24M25 290h24M313 290h24M25 291h24M313 291h24M25 292h24M313 292h24M25 293h24M313 293h24M25 294h24M313 294h24M25 295h24M313 295h24M25 296h24M313 296h24M25 297h24M313 297h24M25 298h24M313 298h24M25 299h24M313 299h24M25 300h24M313 300h24M25 301h24M313 301h24M25 302h24M313 302h24M25 303h24M313 303h24M25 304h24M313 304h24M25 305h24M313 305h24M25 306h24M313 306h24M25 307h24M313 307h24M25 308h24M313 308h24M25 309h24M313 309h24M25 310h24M313 310h24M25 311h24M313 311h24M25 312h24M313 312h24M49 313h24M313 313h24M49 314h24M313 314h24M49 315h24M313 315h24M49 316h24M313 316h24M49 317h24M313 317h24M49 318h24M313 318h24M49 319h24M313 319h24M49 320h24M313 320h24M49 321h24M313 321h24M49 322h24M313 322h24M49 323h24M313 323h24M49 324h24M313 324h24M49 325h24M313 325h24M49 326h24M313 326h24M49 327h24M313 327h24M49 328h24M313 328h24M49 329h24M313 329h24M49 330h24M313 330h24M49 331h24M313 331h24M49 332h24M313 332h24M49 333h24M313 333h24M49 334h24M313 334h24M49 335h24M313 335h24M49 336h24M313 336h24M73 337h48M193 337h48M265 337h48M73 338h48M193 338h48M265 338h48M73 339h48M193 339h48M265 339h48M73 340h48M193 340h48M265 340h48M73 341h48M193 341h48M265 341h48M73 342h48M193 342h48M265 342h48M73 343h48M193 343h48M265 343h48M73 344h48M193 344h48M265 344h48M73 345h48M193 345h48M265 345h48M73 346h48M193 346h48M265 346h48M73 347h48M193 347h48M265 347h48M73 348h48M193 348h48M265 348h48M73 349h48M193 349h48M265 349h48M73 350h48M193 350h48M265 350h48M73 351h48M193 351h48M265 351h48M73 352h48M193 352h48M265 352h48M73 353h48M193 353h48M265 353h48M73 354h48M193 354h48M265 354h48M73 355h48M193 355h48M265 355h48M73 356h48M193 356h48M265 356h48M73 357h48M193 357h48M265 357h48M73 358h48M193 358h48M265 358h48M73 359h48M193 359h48M265 359h48M73 360h48M193 360h48M265 360h48M49 361h24M145 361h24M241 361h24M49 362h24M145 362h24M241 362h24M49 363h24M145 363h24M241 363h24M49 364h24M145 364h24M241 364h24M49 365h24M145 365h24M241 365h24M49 366h24M145 366h24M241 366h24M49 367h24M145 367h24M241 367h24M49 368h24M145 368h24M241 368h24M49 369h24M145 369h24M241 369h24M49 370h24M145 370h24M241 370h24M49 371h24M145 371h24M241 371h24M49 372h24M145 372h24M241 372h24M49 373h24M145 373h24M241 373h24M49 374h24M145 374h24M241 374h24M49 375h24M145 375h24M241 375h24M49 376h24M145 376h24M241 376h24M49 377h24M145 377h24M241 377h24M49 378h24M145 378h24M241 378h24M49 379h24M145 379h24M241 379h24M49 380h24M145 380h24M241 380h24M49 381h24M145 381h24M241 381h24M49 382h24M145 382h24M241 382h24M49 383h24M145 383h24M241 383h24M49 384h24M145 384h24M241 384h24" />
<path stroke="#ff4e23" d="M145 25h48M145 26h48M145 27h48M145 28h48M145 29h48M145 30h48M145 31h48M145 32h48M145 33h48M145 34h48M145 35h48M145 36h48M145 37h48M145 38h48M145 39h48M145 40h48M145 41h48M145 42h48M145 43h48M145 44h48M145 45h48M145 46h48M145 47h48M145 48h48M145 49h24M145 50h24M145 51h24M145 52h24M145 53h24M145 54h24M145 55h24M145 56h24M145 57h24M145 58h24M145 59h24M145 60h24M145 61h24M145 62h24M145 63h24M145 64h24M145 65h24M145 66h24M145 67h24M145 68h24M145 69h24M145 70h24M145 71h24M145 72h24" />
<path stroke="#c22323" d="M193 25h24M193 26h24M193 27h24M193 28h24M193 29h24M193 30h24M193 31h24M193 32h24M193 33h24M193 34h24M193 35h24M193 36h24M193 37h24M193 38h24M193 39h24M193 40h24M193 41h24M193 42h24M193 43h24M193 44h24M193 45h24M193 46h24M193 47h24M193 48h24M121 49h24M121 50h24M121 51h24M121 52h24M121 53h24M121 54h24M121 55h24M121 56h24M121 57h24M121 58h24M121 59h24M121 60h24M121 61h24M121 62h24M121 63h24M121 64h24M121 65h24M121 66h24M121 67h24M121 68h24M121 69h24M121 70h24M121 71h24M121 72h24" />
<path stroke="#dda059" d="M97 73h24M145 73h48M97 74h24M145 74h48M97 75h24M145 75h48M97 76h24M145 76h48M97 77h24M145 77h48M97 78h24M145 78h48M97 79h24M145 79h48M97 80h24M145 80h48M97 81h24M145 81h48M97 82h24M145 82h48M97 83h24M145 83h48M97 84h24M145 84h48M97 85h24M145 85h48M97 86h24M145 86h48M97 87h24M145 87h48M97 88h24M145 88h48M97 89h24M145 89h48M97 90h24M145 90h48M97 91h24M145 91h48M97 92h24M145 92h48M97 93h24M145 93h48M97 94h24M145 94h48M97 95h24M145 95h48M97 96h24M145 96h48M73 97h24M193 97h24M73 98h24M193 98h24M73 99h24M193 99h24M73 100h24M193 100h24M73 101h24M193 101h24M73 102h24M193 102h24M73 103h24M193 103h24M73 104h24M193 104h24M73 105h24M193 105h24M73 106h24M193 106h24M73 107h24M193 107h24M73 108h24M193 108h24M73 109h24M193 109h24M73 110h24M193 110h24M73 111h24M193 111h24M73 112h24M193 112h24M73 113h24M193 113h24M73 114h24M193 114h24M73 115h24M193 115h24M73 116h24M193 116h24M73 117h24M193 117h24M73 118h24M193 118h24M73 119h24M193 119h24M73 120h24M193 120h24M73 121h24M193 121h24M265 121h24M73 122h24M193 122h24M265 122h24M73 123h24M193 123h24M265 123h24M73 124h24M193 124h24M265 124h24M73 125h24M193 125h24M265 125h24M73 126h24M193 126h24M265 126h24M73 127h24M193 127h24M265 127h24M73 128h24M193 128h24M265 128h24M73 129h24M193 129h24M265 129h24M73 130h24M193 130h24M265 130h24M73 131h24M193 131h24M265 131h24M73 132h24M193 132h24M265 132h24M73 133h24M193 133h24M265 133h24M73 134h24M193 134h24M265 134h24M73 135h24M193 135h24M265 135h24M73 136h24M193 136h24M265 136h24M73 137h24M193 137h24M265 137h24M73 138h24M193 138h24M265 138h24M73 139h24M193 139h24M265 139h24M73 140h24M193 140h24M265 140h24M73 141h24M193 141h24M265 141h24M73 142h24M193 142h24M265 142h24M73 143h24M193 143h24M265 143h24M73 144h24M193 144h24M265 144h24M121 145h24M241 145h24M313 145h48M121 146h24M241 146h24M313 146h48M121 147h24M241 147h24M313 147h48M121 148h24M241 148h24M313 148h48M121 149h24M241 149h24M313 149h48M121 150h24M241 150h24M313 150h48M121 151h24M241 151h24M313 151h48M121 152h24M241 152h24M313 152h48M121 153h24M241 153h24M313 153h48M121 154h24M241 154h24M313 154h48M121 155h24M241 155h24M313 155h48M121 156h24M241 156h24M313 156h48M121 157h24M241 157h24M313 157h48M121 158h24M241 158h24M313 158h48M121 159h24M241 159h24M313 159h48M121 160h24M241 160h24M313 160h48M121 161h24M241 161h24M313 161h48M121 162h24M241 162h24M313 162h48M121 163h24M241 163h24M313 163h48M121 164h24M241 164h24M313 164h48M121 165h24M241 165h24M313 165h48M121 166h24M241 166h24M313 166h48M121 167h24M241 167h24M313 167h48M121 168h24M241 168h24M313 168h48M97 169h24M217 169h24M97 170h24M217 170h24M97 171h24M217 171h24M97 172h24M217 172h24M97 173h24M217 173h24M97 174h24M217 174h24M97 175h24M217 175h24M97 176h24M217 176h24M97 177h24M217 177h24M97 178h24M217 178h24M97 179h24M217 179h24M97 180h24M217 180h24M97 181h24M217 181h24M97 182h24M217 182h24M97 183h24M217 183h24M97 184h24M217 184h24M97 185h24M217 185h24M97 186h24M217 186h24M97 187h24M217 187h24M97 188h24M217 188h24M97 189h24M217 189h24M97 190h24M217 190h24M97 191h24M217 191h24M97 192h24M217 192h24M49 193h48M169 193h48M289 193h24M337 193h24M49 194h48M169 194h48M289 194h24M337 194h24M49 195h48M169 195h48M289 195h24M337 195h24M49 196h48M169 196h48M289 196h24M337 196h24M49 197h48M169 197h48M289 197h24M337 197h24M49 198h48M169 198h48M289 198h24M337 198h24M49 199h48M169 199h48M289 199h24M337 199h24M49 200h48M169 200h48M289 200h24M337 200h24M49 201h48M169 201h48M289 201h24M337 201h24M49 202h48M169 202h48M289 202h24M337 202h24M49 203h48M169 203h48M289 203h24M337 203h24M49 204h48M169 204h48M289 204h24M337 204h24M49 205h48M169 205h48M289 205h24M337 205h24M49 206h48M169 206h48M289 206h24M337 206h24M49 207h48M169 207h48M289 207h24M337 207h24M49 208h48M169 208h48M289 208h24M337 208h24M49 209h48M169 209h48M289 209h24M337 209h24M49 210h48M169 210h48M289 210h24M337 210h24M49 211h48M169 211h48M289 211h24M337 211h24M49 212h48M169 212h48M289 212h24M337 212h24M49 213h48M169 213h48M289 213h24M337 213h24M49 214h48M169 214h48M289 214h24M337 214h24M49 215h48M169 215h48M289 215h24M337 215h24M49 216h48M169 216h48M289 216h24M337 216h24M25 217h48M193 217h24M265 217h24M337 217h24M25 218h48M193 218h24M265 218h24M337 218h24M25 219h48M193 219h24M265 219h24M337 219h24M25 220h48M193 220h24M265 220h24M337 220h24M25 221h48M193 221h24M265 221h24M337 221h24M25 222h48M193 222h24M265 222h24M337 222h24M25 223h48M193 223h24M265 223h24M337 223h24M25 224h48M193 224h24M265 224h24M337 224h24M25 225h48M193 225h24M265 225h24M337 225h24M25 226h48M193 226h24M265 226h24M337 226h24M25 227h48M193 227h24M265 227h24M337 227h24M25 228h48M193 228h24M265 228h24M337 228h24M25 229h48M193 229h24M265 229h24M337 229h24M25 230h48M193 230h24M265 230h24M337 230h24M25 231h48M193 231h24M265 231h24M337 231h24M25 232h48M193 232h24M265 232h24M337 232h24M25 233h48M193 233h24M265 233h24M337 233h24M25 234h48M193 234h24M265 234h24M337 234h24M25 235h48M193 235h24M265 235h24M337 235h24M25 236h48M193 236h24M265 236h24M337 236h24M25 237h48M193 237h24M265 237h24M337 237h24M25 238h48M193 238h24M265 238h24M337 238h24M25 239h48M193 239h24M265 239h24M337 239h24M25 240h48M193 240h24M265 240h24M337 240h24M25 241h72M121 241h24M217 241h24M289 241h24M25 242h72M121 242h24M217 242h24M289 242h24M25 243h72M121 243h24M217 243h24M289 243h24M25 244h72M121 244h24M217 244h24M289 244h24M25 245h72M121 245h24M217 245h24M289 245h24M25 246h72M121 246h24M217 246h24M289 246h24M25 247h72M121 247h24M217 247h24M289 247h24M25 248h72M121 248h24M217 248h24M289 248h24M25 249h72M121 249h24M217 249h24M289 249h24M25 250h72M121 250h24M217 250h24M289 250h24M25 251h72M121 251h24M217 251h24M289 251h24M25 252h72M121 252h24M217 252h24M289 252h24M25 253h72M121 253h24M217 253h24M289 253h24M25 254h72M121 254h24M217 254h24M289 254h24M25 255h72M121 255h24M217 255h24M289 255h24M25 256h72M121 256h24M217 256h24M289 256h24M25 257h72M121 257h24M217 257h24M289 257h24M25 258h72M121 258h24M217 258h24M289 258h24M25 259h72M121 259h24M217 259h24M289 259h24M25 260h72M121 260h24M217 260h24M289 260h24M25 261h72M121 261h24M217 261h24M289 261h24M25 262h72M121 262h24M217 262h24M289 262h24M25 263h72M121 263h24M217 263h24M289 263h24M25 264h72M121 264h24M217 264h24M289 264h24M25 265h48M97 265h24M145 265h24M25 266h48M97 266h24M145 266h24M25 267h48M97 267h24M145 267h24M25 268h48M97 268h24M145 268h24M25 269h48M97 269h24M145 269h24M25 270h48M97 270h24M145 270h24M25 271h48M97 271h24M145 271h24M25 272h48M97 272h24M145 272h24M25 273h48M97 273h24M145 273h24M25 274h48M97 274h24M145 274h24M25 275h48M97 275h24M145 275h24M25 276h48M97 276h24M145 276h24M25 277h48M97 277h24M145 277h24M25 278h48M97 278h24M145 278h24M25 279h48M97 279h24M145 279h24M25 280h48M97 280h24M145 280h24M25 281h48M97 281h24M145 281h24M25 282h48M97 282h24M145 282h24M25 283h48M97 283h24M145 283h24M25 284h48M97 284h24M145 284h24M25 285h48M97 285h24M145 285h24M25 286h48M97 286h24M145 286h24M25 287h48M97 287h24M145 287h24M25 288h48M97 288h24M145 288h24M73 289h24M289 289h24M73 290h24M289 290h24M73 291h24M289 291h24M73 292h24M289 292h24M73 293h24M289 293h24M73 294h24M289 294h24M73 295h24M289 295h24M73 296h24M289 296h24M73 297h24M289 297h24M73 298h24M289 298h24M73 299h24M289 299h24M73 300h24M289 300h24M73 301h24M289 301h24M73 302h24M289 302h24M73 303h24M289 303h24M73 304h24M289 304h24M73 305h24M289 305h24M73 306h24M289 306h24M73 307h24M289 307h24M73 308h24M289 308h24M73 309h24M289 309h24M73 310h24M289 310h24M73 311h24M289 311h24M73 312h24M289 312h24M97 313h24M145 313h24M193 313h24M241 313h48M97 314h24M145 314h24M193 314h24M241 314h48M97 315h24M145 315h24M193 315h24M241 315h48M97 316h24M145 316h24M193 316h24M241 316h48M97 317h24M145 317h24M193 317h24M241 317h48M97 318h24M145 318h24M193 318h24M241 318h48M97 319h24M145 319h24M193 319h24M241 319h48M97 320h24M145 320h24M193 320h24M241 320h48M97 321h24M145 321h24M193 321h24M241 321h48M97 322h24M145 322h24M193 322h24M241 322h48M97 323h24M145 323h24M193 323h24M241 323h48M97 324h24M145 324h24M193 324h24M241 324h48M97 325h24M145 325h24M193 325h24M241 325h48M97 326h24M145 326h24M193 326h24M241 326h48M97 327h24M145 327h24M193 327h24M241 327h48M97 328h24M145 328h24M193 328h24M241 328h48M97 329h24M145 329h24M193 329h24M241 329h48M97 330h24M145 330h24M193 330h24M241 330h48M97 331h24M145 331h24M193 331h24M241 331h48M97 332h24M145 332h24M193 332h24M241 332h48M97 333h24M145 333h24M193 333h24M241 333h48M97 334h24M145 334h24M193 334h24M241 334h48M97 335h24M145 335h24M193 335h24M241 335h48M97 336h24M145 336h24M193 336h24M241 336h48" />
<path stroke="#ffe1ae" d="M121 73h24M121 74h24M121 75h24M121 76h24M121 77h24M121 78h24M121 79h24M121 80h24M121 81h24M121 82h24M121 83h24M121 84h24M121 85h24M121 86h24M121 87h24M121 88h24M121 89h24M121 90h24M121 91h24M121 92h24M121 93h24M121 94h24M121 95h24M121 96h24M121 97h48M121 98h48M121 99h48M121 100h48M121 101h48M121 102h48M121 103h48M121 104h48M121 105h48M121 106h48M121 107h48M121 108h48M121 109h48M121 110h48M121 111h48M121 112h48M121 113h48M121 114h48M121 115h48M121 116h48M121 117h48M121 118h48M121 119h48M121 120h48M121 121h48M289 121h72M121 122h48M289 122h72M121 123h48M289 123h72M121 124h48M289 124h72M121 125h48M289 125h72M121 126h48M289 126h72M121 127h48M289 127h72M121 128h48M289 128h72M121 129h48M289 129h72M121 130h48M289 130h72M121 131h48M289 131h72M121 132h48M289 132h72M121 133h48M289 133h72M121 134h48M289 134h72M121 135h48M289 135h72M121 136h48M289 136h72M121 137h48M289 137h72M121 138h48M289 138h72M121 139h48M289 139h72M121 140h48M289 140h72M121 141h48M289 141h72M121 142h48M289 142h72M121 143h48M289 143h72M121 144h48M289 144h72M145 145h24M193 145h24M265 145h48M145 146h24M193 146h24M265 146h48M145 147h24M193 147h24M265 147h48M145 148h24M193 148h24M265 148h48M145 149h24M193 149h24M265 149h48M145 150h24M193 150h24M265 150h48M145 151h24M193 151h24M265 151h48M145 152h24M193 152h24M265 152h48M145 153h24M193 153h24M265 153h48M145 154h24M193 154h24M265 154h48M145 155h24M193 155h24M265 155h48M145 156h24M193 156h24M265 156h48M145 157h24M193 157h24M265 157h48M145 158h24M193 158h24M265 158h48M145 159h24M193 159h24M265 159h48M145 160h24M193 160h24M265 160h48M145 161h24M193 161h24M265 161h48M145 162h24M193 162h24M265 162h48M145 163h24M193 163h24M265 163h48M145 164h24M193 164h24M265 164h48M145 165h24M193 165h24M265 165h48M145 166h24M193 166h24M265 166h48M145 167h24M193 167h24M265 167h48M145 168h24M193 168h24M265 168h48M121 169h96M241 169h96M121 170h96M241 170h96M121 171h96M241 171h96M121 172h96M241 172h96M121 173h96M241 173h96M121 174h96M241 174h96M121 175h96M241 175h96M121 176h96M241 176h96M121 177h96M241 177h96M121 178h96M241 178h96M121 179h96M241 179h96M121 180h96M241 180h96M121 181h96M241 181h96M121 182h96M241 182h96M121 183h96M241 183h96M121 184h96M241 184h96M121 185h96M241 185h96M121 186h96M241 186h96M121 187h96M241 187h96M121 188h96M241 188h96M121 189h96M241 189h96M121 190h96M241 190h96M121 191h96M241 191h96M121 192h96M241 192h96M97 193h72M217 193h72M313 193h24M97 194h72M217 194h72M313 194h24M97 195h72M217 195h72M313 195h24M97 196h72M217 196h72M313 196h24M97 197h72M217 197h72M313 197h24M97 198h72M217 198h72M313 198h24M97 199h72M217 199h72M313 199h24M97 200h72M217 200h72M313 200h24M97 201h72M217 201h72M313 201h24M97 202h72M217 202h72M313 202h24M97 203h72M217 203h72M313 203h24M97 204h72M217 204h72M313 204h24M97 205h72M217 205h72M313 205h24M97 206h72M217 206h72M313 206h24M97 207h72M217 207h72M313 207h24M97 208h72M217 208h72M313 208h24M97 209h72M217 209h72M313 209h24M97 210h72M217 210h72M313 210h24M97 211h72M217 211h72M313 211h24M97 212h72M217 212h72M313 212h24M97 213h72M217 213h72M313 213h24M97 214h72M217 214h72M313 214h24M97 215h72M217 215h72M313 215h24M97 216h72M217 216h72M313 216h24M73 217h120M241 217h24M313 217h24M73 218h120M241 218h24M313 218h24M73 219h120M241 219h24M313 219h24M73 220h120M241 220h24M313 220h24M73 221h120M241 221h24M313 221h24M73 222h120M241 222h24M313 222h24M73 223h120M241 223h24M313 223h24M73 224h120M241 224h24M313 224h24M73 225h120M241 225h24M313 225h24M73 226h120M241 226h24M313 226h24M73 227h120M241 227h24M313 227h24M73 228h120M241 228h24M313 228h24M73 229h120M241 229h24M313 229h24M73 230h120M241 230h24M313 230h24M73 231h120M241 231h24M313 231h24M73 232h120M241 232h24M313 232h24M73 233h120M241 233h24M313 233h24M73 234h120M241 234h24M313 234h24M73 235h120M241 235h24M313 235h24M73 236h120M241 236h24M313 236h24M73 237h120M241 237h24M313 237h24M73 238h120M241 238h24M313 238h24M73 239h120M241 239h24M313 239h24M73 240h120M241 240h24M313 240h24M97 241h24M145 241h72M313 241h24M97 242h24M145 242h72M313 242h24M97 243h24M145 243h72M313 243h24M97 244h24M145 244h72M313 244h24M97 245h24M145 245h72M313 245h24M97 246h24M145 246h72M313 246h24M97 247h24M145 247h72M313 247h24M97 248h24M145 248h72M313 248h24M97 249h24M145 249h72M313 249h24M97 250h24M145 250h72M313 250h24M97 251h24M145 251h72M313 251h24M97 252h24M145 252h72M313 252h24M97 253h24M145 253h72M313 253h24M97 254h24M145 254h72M313 254h24M97 255h24M145 255h72M313 255h24M97 256h24M145 256h72M313 256h24M97 257h24M145 257h72M313 257h24M97 258h24M145 258h72M313 258h24M97 259h24M145 259h72M313 259h24M97 260h24M145 260h72M313 260h24M97 261h24M145 261h72M313 261h24M97 262h24M145 262h72M313 262h24M97 263h24M145 263h72M313 263h24M97 264h24M145 264h72M313 264h24M73 265h24M121 265h24M169 265h144M73 266h24M121 266h24M169 266h144M73 267h24M121 267h24M169 267h144M73 268h24M121 268h24M169 268h144M73 269h24M121 269h24M169 269h144M73 270h24M121 270h24M169 270h144M73 271h24M121 271h24M169 271h144M73 272h24M121 272h24M169 272h144M73 273h24M121 273h24M169 273h144M73 274h24M121 274h24M169 274h144M73 275h24M121 275h24M169 275h144M73 276h24M121 276h24M169 276h144M73 277h24M121 277h24M169 277h144M73 278h24M121 278h24M169 278h144M73 279h24M121 279h24M169 279h144M73 280h24M121 280h24M169 280h144M73 281h24M121 281h24M169 281h144M73 282h24M121 282h24M169 282h144M73 283h24M121 283h24M169 283h144M73 284h24M121 284h24M169 284h144M73 285h24M121 285h24M169 285h144M73 286h24M121 286h24M169 286h144M73 287h24M121 287h24M169 287h144M73 288h24M121 288h24M169 288h144M97 289h192M97 290h192M97 291h192M97 292h192M97 293h192M97 294h192M97 295h192M97 296h192M97 297h192M97 298h192M97 299h192M97 300h192M97 301h192M97 302h192M97 303h192M97 304h192M97 305h192M97 306h192M97 307h192M97 308h192M97 309h192M97 310h192M97 311h192M97 312h192M121 313h24M169 313h24M217 313h24M121 314h24M169 314h24M217 314h24M121 315h24M169 315h24M217 315h24M121 316h24M169 316h24M217 316h24M121 317h24M169 317h24M217 317h24M121 318h24M169 318h24M217 318h24M121 319h24M169 319h24M217 319h24M121 320h24M169 320h24M217 320h24M121 321h24M169 321h24M217 321h24M121 322h24M169 322h24M217 322h24M121 323h24M169 323h24M217 323h24M121 324h24M169 324h24M217 324h24M121 325h24M169 325h24M217 325h24M121 326h24M169 326h24M217 326h24M121 327h24M169 327h24M217 327h24M121 328h24M169 328h24M217 328h24M121 329h24M169 329h24M217 329h24M121 330h24M169 330h24M217 330h24M121 331h24M169 331h24M217 331h24M121 332h24M169 332h24M217 332h24M121 333h24M169 333h24M217 333h24M121 334h24M169 334h24M217 334h24M121 335h24M169 335h24M217 335h24M121 336h24M169 336h24M217 336h24" />
<path stroke="#ffd921" d="M49 145h72M49 146h72M49 147h72M49 148h72M49 149h72M49 150h72M49 151h72M49 152h72M49 153h72M49 154h72M49 155h72M49 156h72M49 157h72M49 158h72M49 159h72M49 160h72M49 161h72M49 162h72M49 163h72M49 164h72M49 165h72M49 166h72M49 167h72M49 168h72M73 361h48M193 361h48M73 362h48M193 362h48M73 363h48M193 363h48M73 364h48M193 364h48M73 365h48M193 365h48M73 366h48M193 366h48M73 367h48M193 367h48M73 368h48M193 368h48M73 369h48M193 369h48M73 370h48M193 370h48M73 371h48M193 371h48M73 372h48M193 372h48M73 373h48M193 373h48M73 374h48M193 374h48M73 375h48M193 375h48M73 376h48M193 376h48M73 377h48M193 377h48M73 378h48M193 378h48M73 379h48M193 379h48M73 380h48M193 380h48M73 381h48M193 381h48M73 382h48M193 382h48M73 383h48M193 383h48M73 384h48M193 384h48" />
<path stroke="#994f16" d="M73 169h24M73 170h24M73 171h24M73 172h24M73 173h24M73 174h24M73 175h24M73 176h24M73 177h24M73 178h24M73 179h24M73 180h24M73 181h24M73 182h24M73 183h24M73 184h24M73 185h24M73 186h24M73 187h24M73 188h24M73 189h24M73 190h24M73 191h24M73 192h24M313 265h24M313 266h24M313 267h24M313 268h24M313 269h24M313 270h24M313 271h24M313 272h24M313 273h24M313 274h24M313 275h24M313 276h24M313 277h24M313 278h24M313 279h24M313 280h24M313 281h24M313 282h24M313 283h24M313 284h24M313 285h24M313 286h24M313 287h24M313 288h24M49 289h24M49 290h24M49 291h24M49 292h24M49 293h24M49 294h24M49 295h24M49 296h24M49 297h24M49 298h24M49 299h24M49 300h24M49 301h24M49 302h24M49 303h24M49 304h24M49 305h24M49 306h24M49 307h24M49 308h24M49 309h24M49 310h24M49 311h24M49 312h24M73 313h24M289 313h24M73 314h24M289 314h24M73 315h24M289 315h24M73 316h24M289 316h24M73 317h24M289 317h24M73 318h24M289 318h24M73 319h24M289 319h24M73 320h24M289 320h24M73 321h24M289 321h24M73 322h24M289 322h24M73 323h24M289 323h24M73 324h24M289 324h24M73 325h24M289 325h24M73 326h24M289 326h24M73 327h24M289 327h24M73 328h24M289 328h24M73 329h24M289 329h24M73 330h24M289 330h24M73 331h24M289 331h24M73 332h24M289 332h24M73 333h24M289 333h24M73 334h24M289 334h24M73 335h24M289 335h24M73 336h24M289 336h24M121 337h72M241 337h24M121 338h72M241 338h24M121 339h72M241 339h24M121 340h72M241 340h24M121 341h72M241 341h24M121 342h72M241 342h24M121 343h72M241 343h24M121 344h72M241 344h24M121 345h72M241 345h24M121 346h72M241 346h24M121 347h72M241 347h24M121 348h72M241 348h24M121 349h72M241 349h24M121 350h72M241 350h24M121 351h72M241 351h24M121 352h72M241 352h24M121 353h72M241 353h24M121 354h72M241 354h24M121 355h72M241 355h24M121 356h72M241 356h24M121 357h72M241 357h24M121 358h72M241 358h24M121 359h72M241 359h24M121 360h72M241 360h24" />
<path stroke="#e2943b" d="M121 361h24M169 361h24M121 362h24M169 362h24M121 363h24M169 363h24M121 364h24M169 364h24M121 365h24M169 365h24M121 366h24M169 366h24M121 367h24M169 367h24M121 368h24M169 368h24M121 369h24M169 369h24M121 370h24M169 370h24M121 371h24M169 371h24M121 372h24M169 372h24M121 373h24M169 373h24M121 374h24M169 374h24M121 375h24M169 375h24M121 376h24M169 376h24M121 377h24M169 377h24M121 378h24M169 378h24M121 379h24M169 379h24M121 380h24M169 380h24M121 381h24M169 381h24M121 382h24M169 382h24M121 383h24M169 383h24M121 384h24M169 384h24" />
</svg>