<?xml version="1.0" encoding="iso-8859-1"?>
<!-- Generator: Adobe Illustrator 19.0.0, SVG Export Plug-In . SVG Version: 6.00 Build 0)  -->
<svg version="1.1" id="Layer_1" xmlns="http://www.w3.org/2000/svg" xmlns:xlink="http://www.w3.org/1999/xlink" x="0px" y="0px"
	 viewBox="0 0 512 512" style="enable-background:new 0 0 512 512;" xml:space="preserve">
	 <style type="text/css">
		<!-- .st0{fill:brown;}
		.st1{fill:brown;}
		.st2{fill:brown;}
		.st3{fill:brown;}
		.st4{fill:rgb(50,50,50);}
		.st5{fill:rgb(50,50,50);}
		.st6{fill:rgb(50,50,50);}
		.st7{fill:rgb(50,50,50);}
		.st8{fill:brown;} -->
	 </style>
<g>
	<g>
		<polygon class="st8" points="32.554,394.593 0,512 117.407,479.446 		"/>
	</g>
</g>
<g>
	<g>
		<path class="st0" d="M498.874,34.339l-21.213-21.213c-17.501-17.501-46.139-17.501-63.64,0l-15.15,15.15l84.853,84.853l15.15-15.15
			C516.375,80.478,516.375,51.84,498.874,34.339z"/>
	</g>
</g>
<g>
	<g>
		<rect class="st1" x="394.482" y="42.516" transform="matrix(0.7071 -0.7071 0.7071 0.7071 47.4448 319.5727)" width="30" height="119.999"/>
	</g>
</g>
<g>
	<g>
		<rect class="st2" x="64.413" y="279.093" transform="matrix(0.7071 -0.7071 0.7071 0.7071 -136.0993 274.612)" width="398.046" height="45"/>
	</g>
</g>
<g>
	<g>
		<rect class="st3" x="11.39" y="226.054" transform="matrix(0.7071 -0.7071 0.7071 0.7071 -114.1252 221.5842)" width="398.046" height="45"/>
	</g>
</g>
<g>
	<g>
		<path class="st4" d="M483.447,345.567c-22.075-22.075-52.101-31.349-80.86-27.828l-40.523-40.524l-84.853,84.853l40.523,40.524
			c-2.946,24.059,3.07,49.002,18.037,69.438l89.34-89.34l76.219,76.219C520.078,422.265,514.121,376.241,483.447,345.567z"/>
	</g>
</g>
<g>
	<g>
		<path class="st5" d="M403.898,446.33l-46.908,46.908c29.95,21.935,69.581,24.64,101.914,8.098L403.898,446.33z"/>
	</g>
</g>
<g>
	<g>
		<path class="st6" d="M53.096,10.665l55.006,55.006l46.908-46.909C125.06-3.173,85.43-5.878,53.096,10.665z"/>
	</g>
</g>
<g>
	<g>
		<path class="st7" d="M194.266,109.408c2.946-24.059-3.07-49.002-18.037-69.438l-89.34,89.34L10.67,53.091
			C-8.078,89.735-2.121,135.759,28.552,166.433c22.076,22.075,52.102,31.349,80.861,27.828l40.523,40.523l84.853-84.853
			L194.266,109.408z"/>
	</g>
</g>
</svg>
