<?xml version="1.0" encoding="UTF-8" standalone="no"?>
<!-- Created with Inkscape (http://www.inkscape.org/) -->

<svg
   xmlns:dc="http://purl.org/dc/elements/1.1/"
   xmlns:cc="http://creativecommons.org/ns#"
   xmlns:rdf="http://www.w3.org/1999/02/22-rdf-syntax-ns#"
   xmlns:svg="http://www.w3.org/2000/svg"
   xmlns="http://www.w3.org/2000/svg"
   xmlns:xlink="http://www.w3.org/1999/xlink"
   version="1.1"
   width="1143.0828"
   height="80.371353"
   id="svg2">
  <defs
     id="defs4">
    <linearGradient
       id="linearGradient5390">
      <stop
         id="stop5392"
         style="stop-color:#ea4730;stop-opacity:1"
         offset="0" />
    </linearGradient>
    <linearGradient
       id="linearGradient5384">
      <stop
         id="stop5386"
         style="stop-color:#ea4730;stop-opacity:1"
         offset="0" />
    </linearGradient>
    <linearGradient
       id="linearGradient5378">
      <stop
         id="stop5380"
         style="stop-color:#ea4730;stop-opacity:1"
         offset="0" />
    </linearGradient>
    <linearGradient
       id="linearGradient5275">
      <stop
         id="stop5277"
         style="stop-color:#ea7d24;stop-opacity:1"
         offset="0" />
    </linearGradient>
    <linearGradient
       id="linearGradient5257">
      <stop
         id="stop5259"
         style="stop-color:#000000;stop-opacity:1"
         offset="0" />
    </linearGradient>
    <linearGradient
       id="linearGradient5249">
      <stop
         id="stop5251"
         style="stop-color:#000000;stop-opacity:1"
         offset="0" />
    </linearGradient>
    <linearGradient
       id="linearGradient5237">
      <stop
         id="stop5239"
         style="stop-color:#ea7d24;stop-opacity:1"
         offset="0" />
      <stop
         id="stop5241"
         style="stop-color:#ea7d24;stop-opacity:0"
         offset="1" />
    </linearGradient>
    <linearGradient
       id="linearGradient5231">
      <stop
         id="stop5233"
         style="stop-color:#ea7d24;stop-opacity:1"
         offset="0" />
    </linearGradient>
    <linearGradient
       x1="-5.9460912"
       y1="35.375416"
       x2="757.34869"
       y2="35.375416"
       id="linearGradient5279-2"
       xlink:href="#linearGradient5275-7"
       gradientUnits="userSpaceOnUse" />
    <linearGradient
       id="linearGradient5275-7">
      <stop
         id="stop5277-7"
         style="stop-color:#ea7d24;stop-opacity:1"
         offset="0" />
    </linearGradient>
    <linearGradient
       x1="-5.9460912"
       y1="35.375416"
       x2="757.34869"
       y2="35.375416"
       id="linearGradient5294"
       xlink:href="#linearGradient5275-7"
       gradientUnits="userSpaceOnUse" />
    <linearGradient
       id="linearGradient5296">
      <stop
         id="stop5298"
         style="stop-color:#ea7d24;stop-opacity:1"
         offset="0" />
    </linearGradient>
    <linearGradient
       id="linearGradient5275-7-0">
      <stop
         id="stop5277-7-4"
         style="stop-color:#ea4730;stop-opacity:0"
         offset="0" />
    </linearGradient>
    <linearGradient
       x1="-5.9460912"
       y1="35.375416"
       x2="757.34869"
       y2="35.375416"
       id="linearGradient5302-9"
       xlink:href="#linearGradient5275-7-0"
       gradientUnits="userSpaceOnUse" />
    <linearGradient
       id="linearGradient5347">
      <stop
         id="stop5349"
         style="stop-color:#ea7d24;stop-opacity:1"
         offset="0" />
    </linearGradient>
    <linearGradient
       x1="-4.1896334"
       y1="67.847343"
       x2="758.69452"
       y2="67.847343"
       id="linearGradient5382"
       xlink:href="#linearGradient5378"
       gradientUnits="userSpaceOnUse" />
    <linearGradient
       x1="-5.9460912"
       y1="48.518814"
       x2="757.72156"
       y2="48.518814"
       id="linearGradient5388"
       xlink:href="#linearGradient5384"
       gradientUnits="userSpaceOnUse" />
    <linearGradient
       x1="371.20456"
       y1="68.579414"
       x2="2435.5295"
       y2="68.579414"
       id="linearGradient5394"
       xlink:href="#linearGradient5390"
       gradientUnits="userSpaceOnUse" />
  </defs>
  <metadata
     id="metadata7">
    <rdf:RDF>
      <cc:Work
         rdf:about="">
        <dc:format>image/svg+xml</dc:format>
        <dc:type
           rdf:resource="http://purl.org/dc/dcmitype/StillImage" />
        <dc:title></dc:title>
      </cc:Work>
    </rdf:RDF>
  </metadata>
  <g
     transform="matrix(0.56049464,0,0,0.59543745,-222.01858,-0.18372462)"
     id="layer1"
     style="fill:url(#linearGradient5394);fill-opacity:1">
    <path
       d="m 417.6411,32.745565 c 32.4296,0.005 57.66996,-27.9414239 90.08308,-27.1766979 28.08241,0.662533 47.76335,27.3073879 75.85948,27.1766979 32.68787,-0.15204 55.02412,-32.36642391 87.71248,-32.43671491 30.39188,-0.06544 65.73287,10.71990691 81.78596,29.80671491 9.5999,11.41406 1682.4475,106.734705 1682.4475,106.734705 L 387.29152,130.5257 C 407.50175,-10.269919 321.69795,27.162087 417.6411,32.745565 z"
       id="path6"
       style="fill:url(#linearGradient5394);fill-opacity:1;stroke:none" />
  </g>
  <g
     transform="matrix(0.70248796,0,0,0.60189155,144.67015,-1.0891965)"
     id="layer1-1"
     style="fill:url(#linearGradient5388);fill-opacity:1">
    <path
       d="M 0.22241499,31.406656 C 19.461075,30.626283 22.917695,8.0958154 46.605635,8.2317314 70.832931,8.3707424 89.985893,33.802986 114.20327,34.498905 140.81199,35.263542 162.46879,9.5037624 190.06272,9.9522104 214.2647,10.345513 231.0493,33.356185 255.25444,33.622235 c 28.641,0.31482 49.59131,-25.8884646 78.23007,-26.3000466 30.29626,-0.4353973 53.85461,25.4180366 84.15659,25.4233766 32.4296,0.005 57.66996,-27.9414239 90.08308,-27.1766979 28.08241,0.662533 47.76335,27.3073879 75.85948,27.1766979 32.68787,-0.15204 55.02412,-32.36642391 87.71248,-32.43671491 30.39188,-0.06544 65.73287,10.71990691 81.78596,29.80671491 9.5999,11.41406 1.32485,66.613509 1.32485,66.613509 L -4.3271336,70.442275 c 0,0 -5.7975714,-38.615911 4.54954859,-39.035619 z"
       id="path6-2"
       style="fill:url(#linearGradient5388);fill-opacity:1;stroke:none" />
  </g>
  <g
     transform="matrix(0.70248796,0,0,0.60189155,612.10636,-0.62384946)"
     id="layer1-1-4"
     style="fill:url(#linearGradient5382);fill-opacity:1">
    <path
       d="M 0.22241499,31.406656 C 19.461075,30.626283 22.917695,8.0958154 46.605635,8.2317314 70.832931,8.3707424 89.985893,33.802986 114.20327,34.498905 140.81199,35.263542 162.46879,9.5037624 190.06272,9.9522104 214.2647,10.345513 231.0493,33.356185 255.25444,33.622235 c 28.641,0.31482 49.59131,-25.8884646 78.23007,-26.3000466 30.29626,-0.4353973 53.85461,25.4180366 84.15659,25.4233766 32.4296,0.005 57.66996,-27.9414239 90.08308,-27.1766979 28.08241,0.662533 47.76335,27.3073879 75.85948,27.1766979 32.68787,-0.15204 55.02412,-32.36642391 87.71248,-32.43671491 30.39188,-0.06544 65.73287,10.71990691 81.78596,29.80671491 9.5999,11.41406 3.97456,105.270565 3.97456,105.270565 L 0.97228386,112.1919 c 0,0 -11.09698886,-80.365536 -0.74986887,-80.785244 z"
       id="path6-2-6"
       style="fill:url(#linearGradient5382);fill-opacity:1;stroke:none" />
  </g>
</svg>
