<?xml version="1.0" encoding="UTF-8" standalone="no"?>
<!-- Created with Inkscape (http://www.inkscape.org/) -->

<svg
   xmlns:dc="http://purl.org/dc/elements/1.1/"
   xmlns:cc="http://creativecommons.org/ns#"
   xmlns:rdf="http://www.w3.org/1999/02/22-rdf-syntax-ns#"
   xmlns:svg="http://www.w3.org/2000/svg"
   xmlns="http://www.w3.org/2000/svg"
   version="1.1"
   width="752.86664"
   height="70.13372"
   id="svg2">
  <defs
     id="defs4" />
  <metadata
     id="metadata7">
    <rdf:RDF>
      <cc:Work
         rdf:about="">
        <dc:format>image/svg+xml</dc:format>
        <dc:type
           rdf:resource="http://purl.org/dc/dcmitype/StillImage" />
        <dc:title></dc:title>
      </cc:Work>
    </rdf:RDF>
  </metadata>
  <g
     transform="translate(2.817646,-0.30855402)"
     id="layer1">
    <path
       d="M 0.22241499,31.406656 C 19.461075,30.626283 22.917695,8.0958154 46.605635,8.2317314 70.832931,8.3707424 89.985893,33.802986 114.20327,34.498905 140.81199,35.263542 162.46879,9.5037624 190.06272,9.9522104 214.2647,10.345513 231.0493,33.356185 255.25444,33.622235 c 28.641,0.31482 49.59131,-25.8884646 78.23007,-26.3000466 30.29626,-0.4353973 53.85461,25.4180366 84.15659,25.4233766 32.4296,0.005 57.66996,-27.9414239 90.08308,-27.1766979 28.08241,0.662533 47.76335,27.3073879 75.85948,27.1766979 32.68787,-0.15204 55.02412,-32.36642391 87.71248,-32.43671491 30.39188,-0.06544 65.73287,10.71990691 81.78596,29.80671491 9.5999,11.41406 0,40.32671 0,40.32671 l -757.4092336,0 c 0,0 -5.7975714,-38.615911 4.54954859,-39.035619 z"
       style="fill:#f1c056;fill-opacity:1;stroke:none" />
  </g>
</svg>
