<?xml version="1.0" encoding="utf-8"?>
<!-- Generator: Adobe Illustrator 18.1.1, SVG Export Plug-In . SVG Version: 6.00 Build 0)  -->
<svg version="1.1" id="Layer_1" xmlns="http://www.w3.org/2000/svg" xmlns:xlink="http://www.w3.org/1999/xlink" x="0px" y="0px"
	 viewBox="0 0 752 107.1" enable-background="new 0 0 752 107.1" xml:space="preserve">
<polygon fill="#5F9EA0" points="68.1,24.6 68.1,94.8 108.4,56.5 119.5,39.3 114.1,19.7 101.7,12 88.7,12 75.3,19.7 "/>
<polygon fill="#E8BC4B" points="68.1,24.6 68.1,94.8 27.8,56.5 16.8,39.3 22.2,19.7 34.5,12 47.6,12 61,19.7 "/>
<g>
	<path fill="#010101" d="M114.6,35.9c0-3.3-0.4-6.1-1.3-8.6s-2-4.5-3.3-6c-1.4-1.5-3-2.7-4.9-3.6s-3.8-1.6-5.7-1.9s-3.8-0.5-5.9-0.5
		c-2.1,0-4.4,0.5-6.8,1.5c-2.4,1-4.6,2.3-6.7,3.9c-2,1.6-3.8,3-5.2,4.4c-1.5,1.4-2.7,2.6-3.6,3.7c-0.7,0.9-1.7,1.3-3,1.3
		c-1.2,0-2.2-0.4-3-1.3c-1-1.1-2.2-2.4-3.6-3.7c-1.5-1.4-3.2-2.8-5.2-4.4c-2-1.6-4.3-2.8-6.7-3.9c-2.4-1-4.7-1.5-6.8-1.5
		c-2.1,0-4.1,0.2-5.9,0.5s-3.7,0.9-5.7,1.9c-1.9,0.9-3.6,2.1-4.9,3.6c-1.4,1.5-2.5,3.5-3.3,6c-0.9,2.5-1.3,5.4-1.3,8.6
		c0,6.8,3.8,13.9,11.3,21.5l35.1,33.9l35.1-33.8C110.8,49.8,114.6,42.7,114.6,35.9L114.6,35.9z M122.3,35.9c0,8.9-4.6,18-13.8,27.2
		L70.8,99.4c-0.7,0.7-1.6,1.1-2.7,1.1s-1.9-0.4-2.7-1.1L27.7,63c-0.4-0.3-1-0.8-1.7-1.6c-0.7-0.7-1.8-2-3.4-4
		c-1.5-1.9-2.9-3.9-4.1-5.9c-1.2-2-2.3-4.5-3.2-7.3c-0.9-2.9-1.4-5.6-1.4-8.3c0-8.9,2.6-15.8,7.7-20.8s12.2-7.5,21.2-7.5
		c2.5,0,5,0.4,7.6,1.3s5,2,7.3,3.5c2.2,1.5,4.2,2.9,5.8,4.1c1.6,1.3,3.1,2.7,4.6,4.1c1.5-1.5,3-2.8,4.6-4.1c1.6-1.3,3.5-2.7,5.8-4.1
		s4.7-2.6,7.3-3.5s5.1-1.3,7.6-1.3c9,0,16.1,2.5,21.2,7.5S122.3,27,122.3,35.9L122.3,35.9z"/>
</g>
<g>
	<g>
		<path d="M74.1,91.2c0-21.7,0-43.4,0-65c0-7.7-12-7.7-12,0c0,21.7,0,43.4,0,65C62.1,98.9,74.1,98.9,74.1,91.2L74.1,91.2z"/>
	</g>
</g>
<g>
	<g>
		<path d="M47.6,51.3c13.7,0,27.4,0,41.1,0c7.7,0,7.7-12,0-12c-13.7,0-27.4,0-41.1,0C39.9,39.3,39.9,51.3,47.6,51.3L47.6,51.3z"/>
	</g>
</g>
<rect x="143" y="24.7" fill="none" width="610" height="66.5"/>
<text transform="matrix(1 0 0 1 143 74.7611)" font-family="'Comfortaa'" font-size="64">LoveThroughChrist</text>
</svg>
