<?xml version="1.0" encoding="UTF-8" standalone="no"?>
<!-- Created with Inkscape (http://www.inkscape.org/) -->

<svg
   version="1.1"
   id="svg2"
   xml:space="preserve"
   width="1576.6455"
   height="437.93793"
   viewBox="0 0 1576.6455 437.93792"
   sodipodi:docname="tcls-logo-blue.svg"
   inkscape:version="1.1.1 (3bf5ae0d25, 2021-09-20)"
   xmlns:inkscape="http://www.inkscape.org/namespaces/inkscape"
   xmlns:sodipodi="http://sodipodi.sourceforge.net/DTD/sodipodi-0.dtd"
   xmlns="http://www.w3.org/2000/svg"
   xmlns:svg="http://www.w3.org/2000/svg"><defs
     id="defs6"><clipPath
       clipPathUnits="userSpaceOnUse"
       id="clipPath12"><path
         d="M 404.535,838.996 H 1587.02 V 1167.45 H 404.535 Z"
         id="path10" /></clipPath><clipPath
       clipPathUnits="userSpaceOnUse"
       id="clipPath24"><path
         d="M 0,2000 H 2000 V 0 H 0 Z"
         id="path22" /></clipPath></defs><sodipodi:namedview
     id="namedview4"
     pagecolor="#ffffff"
     bordercolor="#666666"
     borderopacity="1.0"
     inkscape:pageshadow="2"
     inkscape:pageopacity="0.0"
     inkscape:pagecheckerboard="0"
     showgrid="false"
     inkscape:zoom="0.32324999"
     inkscape:cx="422.27379"
     inkscape:cy="-23.201857"
     inkscape:window-width="1920"
     inkscape:window-height="1051"
     inkscape:window-x="-9"
     inkscape:window-y="-9"
     inkscape:window-maximized="1"
     inkscape:current-layer="g8"
     fit-margin-top="0"
     fit-margin-left="0"
     fit-margin-right="0"
     fit-margin-bottom="0" /><g
     id="g8"
     inkscape:groupmode="layer"
     inkscape:label="Treasure Logo"
     transform="matrix(1.3333333,0,0,-1.3333333,-539.38105,1556.6)"
     clip-path="url(#clipPath12)"><g
       id="g14"
       transform="translate(805.425,1082.4739)"><path
         d="m 0,0 h -20.745 v -98.813 h -5.072 V 0 h -20.746 v 5.072 h 20.746 5.072 H 0 Z"
         style="fill:#1d1819;fill-opacity:1;fill-rule:nonzero;stroke:none"
         id="path16" /></g><g
       id="g18"><g
         id="g20"
         clip-path="url(#clipPath24)"><g
           id="g26"
           transform="translate(850.9142,1060.1909)"><path
             d="m 0,0 v -5.072 h -5.992 c -2.153,0 -4.151,-0.41 -5.994,-1.228 -1.845,-0.822 -3.484,-1.921 -4.919,-3.305 -1.434,-1.383 -2.561,-3.023 -3.379,-4.917 -0.821,-1.897 -1.23,-3.919 -1.23,-6.071 v -17.98 -37.957 h -5.071 v 37.957 17.98 14.754 h -5.072 v 5.07 h 5.072 5.071 v -5.07 -1.23 c 3.892,4.507 8.912,6.863 15.061,7.069 z"
             style="fill:#1d1819;fill-opacity:1;fill-rule:nonzero;stroke:none"
             id="path28" /></g><g
           id="g30"
           transform="translate(890.7165,1055.1194)"><path
             d="m 0,0 c -2.15,0 -4.174,-0.411 -6.07,-1.229 -1.896,-0.821 -3.534,-1.921 -4.917,-3.304 -1.383,-1.383 -2.485,-3.023 -3.305,-4.918 -0.821,-1.897 -1.228,-3.919 -1.228,-6.07 v -17.673 c 1.536,0.615 3.431,1.357 5.686,2.229 2.251,0.869 4.507,1.714 6.762,2.535 2.251,0.819 4.325,1.588 6.223,2.305 1.894,0.716 3.251,1.229 4.072,1.537 1.844,0.716 3.69,1.791 5.533,3.228 1.844,1.433 2.766,3.431 2.766,5.993 0,2.151 -0.411,4.149 -1.23,5.993 -0.821,1.844 -1.92,3.458 -3.303,4.841 C 9.606,-3.15 7.965,-2.05 6.071,-1.229 4.173,-0.411 2.152,0 0,0 m 8.915,-29.352 c -0.923,-0.307 -2.459,-0.898 -4.612,-1.767 -2.151,-0.872 -4.483,-1.767 -6.992,-2.689 -2.511,-0.923 -4.944,-1.845 -7.299,-2.767 -2.359,-0.922 -4.202,-1.589 -5.532,-1.998 v -13.062 c 0,-2.151 0.407,-4.175 1.228,-6.07 0.82,-1.897 1.922,-3.535 3.305,-4.917 1.383,-1.383 3.021,-2.486 4.917,-3.304 1.896,-0.821 3.92,-1.23 6.07,-1.23 2.152,0 4.173,0.409 6.071,1.23 1.894,0.818 3.535,1.921 4.918,3.304 1.383,1.382 2.482,3.02 3.303,4.917 0.819,1.895 1.23,3.919 1.23,6.07 h 5.071 c 0,-2.869 -0.537,-5.559 -1.614,-8.068 -1.076,-2.511 -2.535,-4.687 -4.379,-6.531 -1.844,-1.844 -4.022,-3.304 -6.531,-4.38 -2.513,-1.075 -5.201,-1.613 -8.069,-1.613 -2.87,0 -5.558,0.538 -8.067,1.613 -2.512,1.076 -4.687,2.536 -6.531,4.38 -1.844,1.844 -3.305,4.02 -4.381,6.531 -1.075,2.509 -1.613,5.199 -1.613,8.068 v 36.114 c 0,2.867 0.538,5.557 1.613,8.068 1.076,2.509 2.537,4.687 4.381,6.531 1.844,1.845 4.019,3.304 6.531,4.38 2.509,1.075 5.197,1.614 8.067,1.614 2.868,0 5.556,-0.539 8.069,-1.614 2.509,-1.076 4.687,-2.535 6.531,-4.38 1.844,-1.844 3.303,-4.022 4.379,-6.531 1.077,-2.511 1.614,-5.148 1.614,-7.914 v -0.154 c 0,-6.354 -3.894,-10.963 -11.678,-13.831"
             style="fill:#1d1819;fill-opacity:1;fill-rule:nonzero;stroke:none"
             id="path32" /></g><g
           id="g34"
           transform="translate(971.2429,1021.6182)"><path
             d="M 0,0 V 3.842 C -1.537,3.227 -3.434,2.509 -5.686,1.69 c -2.254,-0.821 -4.51,-1.666 -6.762,-2.535 -2.254,-0.872 -4.302,-1.667 -6.146,-2.382 -1.844,-0.718 -3.178,-1.229 -3.996,-1.537 -1.948,-0.718 -3.842,-1.793 -5.686,-3.227 -1.844,-1.436 -2.766,-3.381 -2.766,-5.84 v -4.303 c 0,-2.151 0.408,-4.175 1.229,-6.07 0.819,-1.897 1.921,-3.535 3.304,-4.917 1.383,-1.383 3.021,-2.486 4.917,-3.304 1.896,-0.821 3.92,-1.23 6.071,-1.23 2.151,0 4.172,0.409 6.07,1.23 1.894,0.818 3.535,1.921 4.918,3.304 1.383,1.382 2.482,3.02 3.303,4.917 0.82,1.895 1.23,3.919 1.23,6.07 z m -14.292,38.573 c 2.867,0 5.48,-0.538 7.837,-1.614 2.357,-1.076 4.381,-2.535 6.071,-4.38 1.691,-1.844 3.02,-4.022 3.996,-6.53 0.972,-2.512 1.459,-5.202 1.459,-8.069 V 0 -18.134 -37.958 H 0 v 6.301 c -1.947,-2.152 -4.252,-3.868 -6.916,-5.148 -2.665,-1.28 -5.532,-1.921 -8.605,-1.921 -2.87,0 -5.558,0.538 -8.068,1.613 -2.512,1.076 -4.687,2.536 -6.531,4.38 -1.844,1.844 -3.305,4.02 -4.381,6.532 -1.074,2.508 -1.613,5.198 -1.613,8.067 v 4.303 c 0,6.352 3.892,10.961 11.68,13.831 0.922,0.408 2.482,1.023 4.687,1.844 2.201,0.819 4.557,1.715 7.069,2.689 2.51,0.973 4.941,1.895 7.299,2.767 C -3.023,8.169 -1.23,8.861 0,9.374 v 8.606 c 0,4.303 -1.306,7.965 -3.918,10.988 -2.613,3.02 -6.07,4.533 -10.374,4.533 -2.152,0 -4.15,-0.41 -5.994,-1.229 -1.843,-0.821 -3.483,-1.92 -4.918,-3.304 -1.434,-1.383 -2.561,-3.023 -3.379,-4.918 -0.821,-1.897 -1.23,-3.918 -1.23,-6.07 h -5.071 c 0,2.867 0.537,5.557 1.613,8.069 1.077,2.508 2.536,4.686 4.38,6.53 1.844,1.845 4.02,3.304 6.531,4.38 2.509,1.076 5.199,1.614 8.068,1.614"
             style="fill:#1d1819;fill-opacity:1;fill-rule:nonzero;stroke:none"
             id="path36" /></g><g
           id="g38"
           transform="translate(1024.261,1023.9239)"><path
             d="m 0,0 c 2.253,-1.129 4.533,-2.332 6.838,-3.612 2.307,-1.282 4.381,-2.742 6.225,-4.379 1.844,-1.641 3.355,-3.458 4.533,-5.456 1.177,-1.998 1.768,-4.329 1.768,-6.992 0,-2.87 -0.539,-5.559 -1.614,-8.068 -1.076,-2.512 -2.537,-4.688 -4.38,-6.531 -1.844,-1.844 -4.022,-3.304 -6.532,-4.38 -2.511,-1.076 -5.2,-1.614 -8.067,-1.614 -2.87,0 -5.559,0.538 -8.068,1.614 -2.511,1.076 -4.688,2.536 -6.532,4.38 -1.844,1.843 -3.303,4.019 -4.379,6.531 -1.076,2.509 -1.613,5.198 -1.613,8.068 h 5.07 c 0,-2.152 0.409,-4.176 1.23,-6.071 0.819,-1.896 1.921,-3.534 3.304,-4.917 1.382,-1.383 3.02,-2.486 4.918,-3.304 1.894,-0.821 3.918,-1.229 6.07,-1.229 2.151,0 4.173,0.408 6.071,1.229 1.894,0.818 3.533,1.921 4.916,3.304 1.383,1.383 2.484,3.021 3.305,4.917 0.818,1.895 1.229,3.919 1.229,6.071 0,1.844 -0.461,3.508 -1.383,4.994 -0.922,1.484 -2.151,2.843 -3.688,4.072 -1.537,1.23 -3.305,2.383 -5.302,3.458 -1.998,1.076 -4.072,2.176 -6.224,3.304 -2.358,1.126 -4.688,2.33 -6.992,3.612 -2.305,1.28 -4.38,2.713 -6.224,4.303 -1.845,1.586 -3.357,3.381 -4.533,5.378 -1.18,1.998 -1.767,4.327 -1.767,6.992 0,2.868 0.537,5.557 1.613,8.069 1.076,2.508 2.535,4.687 4.379,6.531 1.844,1.844 4.021,3.303 6.532,4.38 2.509,1.075 5.198,1.613 8.068,1.613 2.867,0 5.556,-0.538 8.067,-1.613 2.51,-1.077 4.688,-2.536 6.532,-4.38 1.843,-1.844 3.304,-4.023 4.38,-6.531 1.075,-2.512 1.614,-5.201 1.614,-8.069 h -5.072 c 0,2.152 -0.411,4.174 -1.229,6.071 -0.821,1.894 -1.922,3.534 -3.305,4.917 -1.383,1.384 -3.022,2.483 -4.916,3.305 -1.898,0.818 -3.92,1.228 -6.071,1.228 -2.152,0 -4.176,-0.41 -6.07,-1.228 -1.898,-0.822 -3.536,-1.921 -4.918,-3.305 -1.383,-1.383 -2.485,-3.023 -3.304,-4.917 -0.821,-1.897 -1.23,-3.919 -1.23,-6.071 0,-1.843 0.461,-3.51 1.383,-4.994 0.922,-1.486 2.177,-2.843 3.766,-4.072 1.587,-1.23 3.381,-2.382 5.379,-3.458 C -4.225,2.074 -2.151,1.023 0,0"
             style="fill:#1d1819;fill-opacity:1;fill-rule:nonzero;stroke:none"
             id="path40" /></g><g
           id="g42"
           transform="translate(1110.1677,1059.4224)"><path
             d="m 0,0 v -37.804 -18.134 -19.824 h -5.072 v 6.3 c -1.946,-2.151 -4.253,-3.868 -6.915,-5.147 -2.665,-1.28 -5.533,-1.921 -8.605,-1.921 -2.87,0 -5.56,0.538 -8.069,1.613 -2.511,1.076 -4.688,2.536 -6.531,4.38 -1.844,1.844 -3.304,4.02 -4.38,6.531 -1.076,2.509 -1.613,5.199 -1.613,8.068 V -37.804 0 h 5.071 v -37.804 -18.134 c 0,-2.151 0.408,-4.175 1.23,-6.07 0.818,-1.897 1.92,-3.535 3.303,-4.917 1.383,-1.383 3.021,-2.486 4.918,-3.304 1.894,-0.821 3.918,-1.23 6.071,-1.23 2.15,0 4.173,0.409 6.07,1.23 1.894,0.818 3.534,1.921 4.917,3.304 1.382,1.382 2.483,3.02 3.304,4.917 0.818,1.895 1.229,3.919 1.229,6.07 V -37.804 0 Z"
             style="fill:#1d1819;fill-opacity:1;fill-rule:nonzero;stroke:none"
             id="path44" /></g><g
           id="g46"
           transform="translate(1167.9495,1060.1909)"><path
             d="m 0,0 v -5.072 h -5.994 c -2.151,0 -4.149,-0.41 -5.993,-1.228 -1.844,-0.822 -3.485,-1.921 -4.918,-3.305 -1.436,-1.383 -2.563,-3.023 -3.381,-4.917 -0.821,-1.897 -1.229,-3.919 -1.229,-6.071 v -17.98 -37.957 h -5.072 v 37.957 17.98 14.754 h -5.071 v 5.07 h 5.071 5.072 v -5.07 -1.23 c 3.893,4.507 8.913,6.863 15.06,7.069 z"
             style="fill:#1d1819;fill-opacity:1;fill-rule:nonzero;stroke:none"
             id="path48" /></g><g
           id="g50"
           transform="translate(1207.7517,1055.1194)"><path
             d="m 0,0 c -2.151,0 -4.175,-0.411 -6.071,-1.229 -1.895,-0.821 -3.533,-1.921 -4.916,-3.304 -1.383,-1.383 -2.485,-3.023 -3.305,-4.918 -0.821,-1.897 -1.229,-3.919 -1.229,-6.07 v -17.673 c 1.536,0.615 3.432,1.357 5.687,2.229 2.251,0.869 4.507,1.714 6.761,2.535 2.252,0.819 4.326,1.588 6.223,2.305 1.894,0.716 3.251,1.229 4.073,1.537 1.844,0.716 3.689,1.791 5.533,3.228 1.844,1.433 2.766,3.431 2.766,5.993 0,2.151 -0.411,4.149 -1.23,5.993 -0.822,1.844 -1.921,3.458 -3.304,4.841 C 9.605,-3.15 7.965,-2.05 6.07,-1.229 4.173,-0.411 2.152,0 0,0 m 8.914,-29.352 c -0.922,-0.307 -2.459,-0.898 -4.611,-1.767 -2.151,-0.872 -4.483,-1.767 -6.992,-2.689 -2.512,-0.923 -4.945,-1.845 -7.3,-2.767 -2.358,-0.922 -4.202,-1.589 -5.532,-1.998 v -13.062 c 0,-2.151 0.408,-4.175 1.229,-6.07 0.82,-1.897 1.922,-3.535 3.305,-4.917 1.383,-1.383 3.021,-2.486 4.916,-3.304 1.896,-0.821 3.92,-1.23 6.071,-1.23 2.152,0 4.173,0.409 6.07,1.23 1.895,0.818 3.535,1.921 4.918,3.304 1.383,1.382 2.482,3.02 3.304,4.917 0.819,1.895 1.23,3.919 1.23,6.07 h 5.07 c 0,-2.869 -0.537,-5.559 -1.613,-8.068 -1.076,-2.511 -2.535,-4.687 -4.379,-6.531 -1.844,-1.844 -4.022,-3.304 -6.532,-4.38 -2.512,-1.075 -5.2,-1.613 -8.068,-1.613 -2.87,0 -5.558,0.538 -8.067,1.613 -2.513,1.076 -4.688,2.536 -6.532,4.38 -1.843,1.844 -3.304,4.02 -4.38,6.531 -1.075,2.509 -1.614,5.199 -1.614,8.068 v 36.114 c 0,2.867 0.539,5.557 1.614,8.068 1.076,2.509 2.537,4.687 4.38,6.531 1.844,1.845 4.019,3.304 6.532,4.38 2.509,1.075 5.197,1.614 8.067,1.614 2.868,0 5.556,-0.539 8.068,-1.614 2.51,-1.076 4.688,-2.535 6.532,-4.38 1.844,-1.844 3.303,-4.022 4.379,-6.531 1.076,-2.511 1.613,-5.148 1.613,-7.914 v -0.154 c 0,-6.354 -3.893,-10.963 -11.678,-13.831"
             style="fill:#1d1819;fill-opacity:1;fill-rule:nonzero;stroke:none"
             id="path52" /></g><g
           id="g54"
           transform="translate(1315.9392,987.9634)"><path
             d="m 0,0 c 2.355,0 4.558,0.461 6.608,1.383 2.048,0.922 3.842,2.151 5.379,3.689 1.537,1.536 2.765,3.354 3.689,5.455 0.922,2.099 1.383,4.326 1.383,6.685 h 5.071 c 0,-3.074 -0.591,-5.97 -1.768,-8.683 C 19.184,5.813 17.596,3.457 15.598,1.46 13.6,-0.538 11.27,-2.128 8.606,-3.305 5.941,-4.481 3.074,-5.071 0,-5.071 c -3.073,0 -5.97,0.59 -8.682,1.766 -2.715,1.177 -5.072,2.767 -7.069,4.765 -1.998,1.997 -3.588,4.353 -4.764,7.069 -1.179,2.713 -1.767,5.609 -1.767,8.683 v 60.702 c 0,3.073 0.588,5.967 1.767,8.682 1.176,2.714 2.766,5.071 4.764,7.069 1.997,1.998 4.354,3.585 7.069,4.764 2.712,1.177 5.609,1.768 8.682,1.768 3.074,0 5.941,-0.574 8.606,-1.717 2.664,-1.143 4.994,-2.706 6.992,-4.687 1.998,-1.981 3.586,-4.33 4.764,-7.043 1.177,-2.716 1.768,-5.609 1.768,-8.683 h -5.071 c 0,2.356 -0.461,4.557 -1.383,6.608 -0.924,2.049 -2.152,3.842 -3.689,5.379 -1.537,1.537 -3.331,2.766 -5.379,3.688 -2.05,0.922 -4.253,1.384 -6.608,1.384 -2.358,0 -4.585,-0.464 -6.684,-1.386 -2.102,-0.925 -3.92,-2.156 -5.455,-3.696 -1.537,-1.538 -2.768,-3.335 -3.69,-5.386 -0.921,-2.053 -1.382,-4.259 -1.382,-6.617 v -60.8 c 0,-2.363 0.461,-4.594 1.382,-6.697 0.922,-2.104 2.153,-3.926 3.69,-5.466 1.535,-1.539 3.353,-2.771 5.455,-3.693 C -4.585,0.461 -2.358,0 0,0"
             style="fill:#1d1819;fill-opacity:1;fill-rule:nonzero;stroke:none"
             id="path56" /></g><g
           id="g58"
           transform="translate(1384.7859,1055.1194)"><path
             d="m 0,0 c -2.152,0 -4.176,-0.411 -6.071,-1.229 -1.897,-0.821 -3.535,-1.921 -4.918,-3.304 -1.383,-1.383 -2.485,-3.023 -3.303,-4.918 -0.821,-1.897 -1.23,-3.919 -1.23,-6.07 v -36.114 c 0,-2.151 0.409,-4.175 1.23,-6.07 0.818,-1.897 1.92,-3.535 3.303,-4.917 1.383,-1.383 3.021,-2.486 4.918,-3.304 1.895,-0.821 3.919,-1.23 6.071,-1.23 2.15,0 4.173,0.409 6.07,1.23 1.894,0.818 3.534,1.921 4.917,3.304 1.383,1.382 2.483,3.02 3.305,4.917 0.817,1.895 1.228,3.919 1.228,6.07 v 36.114 c 0,2.151 -0.411,4.173 -1.228,6.07 -0.822,1.895 -1.922,3.535 -3.305,4.918 C 9.604,-3.15 7.964,-2.05 6.07,-1.229 4.173,-0.411 2.15,0 0,0 m 0,-72.227 c -2.87,0 -5.56,0.538 -8.069,1.613 -2.511,1.076 -4.687,2.536 -6.531,4.38 -1.844,1.844 -3.303,4.02 -4.379,6.531 -1.077,2.509 -1.614,5.199 -1.614,8.068 v 36.114 c 0,2.867 0.537,5.557 1.614,8.068 1.076,2.509 2.535,4.687 4.379,6.531 1.844,1.845 4.02,3.304 6.531,4.38 2.509,1.075 5.199,1.614 8.069,1.614 2.866,0 5.556,-0.539 8.067,-1.614 2.509,-1.076 4.687,-2.535 6.531,-4.38 1.844,-1.844 3.305,-4.022 4.381,-6.531 1.075,-2.511 1.613,-5.201 1.613,-8.068 v -36.114 c 0,-2.869 -0.538,-5.559 -1.613,-8.068 -1.076,-2.511 -2.537,-4.687 -4.381,-6.531 -1.844,-1.844 -4.022,-3.304 -6.531,-4.38 C 5.556,-71.689 2.866,-72.227 0,-72.227"
             style="fill:#1d1819;fill-opacity:1;fill-rule:nonzero;stroke:none"
             id="path60" /></g><g
           id="g62"
           transform="translate(1467.6155,1021.6182)"><path
             d="M 0,0 V 3.842 C -1.536,3.227 -3.433,2.509 -5.686,1.69 -7.94,0.869 -10.195,0.024 -12.448,-0.845 c -2.254,-0.872 -4.302,-1.667 -6.147,-2.382 -1.843,-0.718 -3.176,-1.229 -3.994,-1.537 -1.948,-0.718 -3.842,-1.793 -5.687,-3.227 -1.845,-1.436 -2.766,-3.381 -2.766,-5.84 v -4.303 c 0,-2.151 0.409,-4.175 1.23,-6.07 0.818,-1.897 1.92,-3.535 3.303,-4.917 1.383,-1.383 3.021,-2.486 4.918,-3.304 1.894,-0.821 3.918,-1.23 6.07,-1.23 2.151,0 4.174,0.409 6.071,1.23 1.894,0.818 3.533,1.921 4.916,3.304 1.384,1.382 2.484,3.02 3.305,4.917 0.818,1.895 1.229,3.919 1.229,6.07 z m -14.292,38.573 c 2.868,0 5.48,-0.538 7.838,-1.614 2.355,-1.076 4.379,-2.535 6.071,-4.38 1.69,-1.844 3.021,-4.022 3.994,-6.53 0.972,-2.512 1.461,-5.202 1.461,-8.069 V 0 -18.134 -37.958 H 0 v 6.301 c -1.946,-2.152 -4.252,-3.868 -6.915,-5.148 -2.665,-1.28 -5.533,-1.921 -8.606,-1.921 -2.869,0 -5.559,0.538 -8.068,1.613 -2.511,1.076 -4.687,2.536 -6.532,4.38 -1.843,1.844 -3.302,4.02 -4.379,6.532 -1.076,2.508 -1.613,5.198 -1.613,8.067 v 4.303 c 0,6.352 3.892,10.961 11.678,13.831 0.922,0.408 2.484,1.023 4.688,1.844 2.203,0.819 4.558,1.715 7.069,2.689 2.509,0.973 4.942,1.895 7.301,2.767 2.355,0.869 4.148,1.561 5.377,2.074 v 8.606 c 0,4.303 -1.305,7.965 -3.918,10.988 -2.612,3.02 -6.071,4.533 -10.374,4.533 -2.15,0 -4.148,-0.41 -5.992,-1.229 -1.844,-0.821 -3.485,-1.92 -4.918,-3.304 -1.437,-1.383 -2.563,-3.023 -3.381,-4.918 -0.821,-1.897 -1.229,-3.918 -1.229,-6.07 h -5.072 c 0,2.867 0.538,5.557 1.613,8.069 1.076,2.508 2.537,4.686 4.381,6.53 1.844,1.845 4.019,3.304 6.531,4.38 2.508,1.076 5.198,1.614 8.067,1.614"
             style="fill:#1d1819;fill-opacity:1;fill-rule:nonzero;stroke:none"
             id="path64" /></g><g
           id="g66"
           transform="translate(1520.6345,1023.9239)"><path
             d="m 0,0 c 2.251,-1.129 4.534,-2.332 6.838,-3.612 2.305,-1.282 4.38,-2.742 6.224,-4.379 1.845,-1.641 3.355,-3.458 4.533,-5.456 1.176,-1.998 1.767,-4.329 1.767,-6.992 0,-2.87 -0.537,-5.559 -1.613,-8.068 -1.076,-2.512 -2.535,-4.688 -4.379,-6.531 -1.844,-1.844 -4.022,-3.304 -6.532,-4.38 -2.512,-1.076 -5.2,-1.614 -8.068,-1.614 -2.87,0 -5.558,0.538 -8.067,1.614 -2.513,1.076 -4.688,2.536 -6.532,4.38 -1.843,1.843 -3.304,4.019 -4.38,6.531 -1.075,2.509 -1.614,5.198 -1.614,8.068 h 5.073 c 0,-2.152 0.407,-4.176 1.228,-6.071 0.82,-1.896 1.922,-3.534 3.305,-4.917 1.383,-1.383 3.021,-2.486 4.916,-3.304 1.896,-0.821 3.92,-1.229 6.071,-1.229 2.152,0 4.173,0.408 6.07,1.229 1.894,0.818 3.535,1.921 4.918,3.304 1.383,1.383 2.482,3.021 3.304,4.917 0.819,1.895 1.23,3.919 1.23,6.071 0,1.844 -0.461,3.508 -1.383,4.994 -0.922,1.484 -2.152,2.843 -3.689,4.072 -1.536,1.23 -3.303,2.383 -5.302,3.458 -1.998,1.076 -4.072,2.176 -6.223,3.304 -2.358,1.126 -4.687,2.33 -6.992,3.612 -2.307,1.28 -4.381,2.713 -6.225,4.303 -1.844,1.586 -3.356,3.381 -4.533,5.378 -1.178,1.998 -1.768,4.327 -1.768,6.992 0,2.868 0.539,5.557 1.614,8.069 1.076,2.508 2.537,4.687 4.38,6.531 1.844,1.844 4.019,3.303 6.532,4.38 2.509,1.075 5.197,1.613 8.067,1.613 2.868,0 5.556,-0.538 8.068,-1.613 2.51,-1.077 4.688,-2.536 6.532,-4.38 1.844,-1.844 3.303,-4.023 4.379,-6.531 1.076,-2.512 1.613,-5.201 1.613,-8.069 h -5.07 c 0,2.152 -0.411,4.174 -1.23,6.071 -0.822,1.894 -1.921,3.534 -3.304,4.917 -1.383,1.384 -3.024,2.483 -4.918,3.305 -1.897,0.818 -3.918,1.228 -6.07,1.228 -2.151,0 -4.175,-0.41 -6.071,-1.228 -1.895,-0.822 -3.533,-1.921 -4.916,-3.305 -1.383,-1.383 -2.485,-3.023 -3.305,-4.917 -0.821,-1.897 -1.228,-3.919 -1.228,-6.071 0,-1.843 0.46,-3.51 1.382,-4.994 0.922,-1.486 2.176,-2.843 3.764,-4.072 1.588,-1.23 3.381,-2.382 5.379,-3.458 C -4.227,2.074 -2.152,1.023 0,0"
             style="fill:#1d1819;fill-opacity:1;fill-rule:nonzero;stroke:none"
             id="path68" /></g><g
           id="g70"
           transform="translate(1570.427,1021.6182)"><path
             d="m 0,0 v -18.134 c 0,-2.151 0.357,-4.175 1.075,-6.07 0.716,-1.897 1.691,-3.535 2.92,-4.917 1.23,-1.383 2.663,-2.486 4.302,-3.304 1.639,-0.821 3.382,-1.23 5.225,-1.23 v -5.071 c -2.561,0 -4.97,0.538 -7.221,1.613 -2.256,1.076 -4.227,2.536 -5.918,4.38 -1.69,1.844 -3.022,4.02 -3.994,6.532 -0.976,2.508 -1.461,5.198 -1.461,8.067 V 0 32.733 37.804 59.319 H 0 V 37.804 H 16.597 V 32.733 H 0 Z"
             style="fill:#1d1819;fill-opacity:1;fill-rule:nonzero;stroke:none"
             id="path72" /></g><g
           id="g74"
           transform="translate(876.1066,919.0247)"><path
             d="m 0,0 v 35.61 l 3.172,0.356 V 3.122 h 12.64 L 14.721,0 Z"
             style="fill:#1d1819;fill-opacity:1;fill-rule:nonzero;stroke:none"
             id="path76" /></g><g
           id="g78"
           transform="translate(931.0461,918.6187)"><path
             d="m 0,0 v 26.295 l 2.971,0.356 V 0.406 Z M -0.735,34.442 1.447,37.107 3.68,34.722 1.447,32.056 Z"
             style="fill:#1d1819;fill-opacity:1;fill-rule:nonzero;stroke:none"
             id="path80" /></g><g
           id="g82"
           transform="translate(978.0178,929.7354)"><path
             d="m 0,0 17.108,10.178 c -0.728,0.897 -1.647,1.574 -2.755,2.031 -1.108,0.456 -2.372,0.685 -3.793,0.685 -2.98,0 -5.5,-1.024 -7.565,-3.071 C 0.931,7.775 -0.101,5.262 -0.101,2.284 -0.101,1.811 -0.093,1.4 -0.076,1.054 -0.059,0.707 -0.033,0.356 0,0 m 20.838,-7.64 c -1.709,-1.269 -3.401,-2.204 -5.076,-2.804 -1.675,-0.601 -3.41,-0.901 -5.202,-0.901 -3.944,0 -7.219,1.298 -9.824,3.895 -2.606,2.598 -3.908,5.826 -3.908,9.684 0,3.858 1.312,7.072 3.934,9.645 2.622,2.571 5.889,3.858 9.798,3.858 2.469,0 4.631,-0.533 6.484,-1.6 1.853,-1.065 3.295,-2.605 4.327,-4.618 L 1.041,-2.487 c 0.965,-1.862 2.276,-3.3 3.934,-4.315 1.659,-1.015 3.52,-1.523 5.585,-1.523 1.641,0 3.265,0.343 4.872,1.028 1.608,0.685 3.41,1.815 5.406,3.389 z"
             style="fill:#1d1819;fill-opacity:1;fill-rule:nonzero;stroke:none"
             id="path84" /></g><g
           id="g86"
           transform="translate(1039.1516,918.669)"><path
             d="m 0,0 v 26.245 l 2.918,0.356 v -4.417 c 1.101,1.59 2.353,2.779 3.757,3.566 1.404,0.786 2.978,1.18 4.721,1.18 2.86,0 5.082,-0.871 6.663,-2.615 1.583,-1.742 2.373,-4.204 2.373,-7.385 V 0.356 L 17.59,0 v 15.483 c 0,2.995 -0.58,5.242 -1.738,6.739 -1.161,1.497 -2.892,2.246 -5.192,2.246 -2.082,0 -3.892,-0.774 -5.431,-2.322 C 3.689,20.597 2.918,18.723 2.918,16.524 V 0.356 Z"
             style="fill:#1d1819;fill-opacity:1;fill-rule:nonzero;stroke:none"
             id="path88" /></g><g
           id="g90"
           transform="translate(1152.9167,926.5125)"><path
             d="m 0,0 c 1.065,-1.71 2.314,-2.996 3.744,-3.858 1.429,-0.863 3.041,-1.294 4.834,-1.294 2.302,0 4.201,0.659 5.7,1.979 1.497,1.32 2.245,2.987 2.245,5 0,3.35 -2.842,5.88 -8.528,7.589 -0.592,0.169 -1.041,0.305 -1.345,0.406 -2.91,0.88 -5.043,2.077 -6.397,3.592 -1.354,1.514 -2.03,3.456 -2.03,5.825 0,2.691 1.011,4.966 3.033,6.827 2.023,1.861 4.564,2.793 7.628,2.793 1.877,0 3.57,-0.331 5.076,-0.99 1.505,-0.661 3.019,-1.735 4.543,-3.224 l -2.081,-2.411 c -1.37,1.303 -2.652,2.229 -3.846,2.779 -1.192,0.55 -2.491,0.825 -3.895,0.825 -1.997,0 -3.693,-0.647 -5.09,-1.942 -1.396,-1.294 -2.093,-2.864 -2.093,-4.708 0,-1.151 0.27,-2.157 0.812,-3.021 0.541,-0.862 1.361,-1.59 2.461,-2.182 0.829,-0.457 2.319,-0.999 4.468,-1.624 1.185,-0.339 2.09,-0.61 2.716,-0.812 2.622,-0.898 4.594,-2.133 5.913,-3.706 1.32,-1.574 1.98,-3.478 1.98,-5.711 0,-2.944 -1.066,-5.406 -3.198,-7.386 -2.132,-1.98 -4.839,-2.97 -8.122,-2.97 -2.267,0 -4.361,0.55 -6.281,1.65 -1.922,1.099 -3.525,2.665 -4.81,4.696 z"
             style="fill:#1d1819;fill-opacity:1;fill-rule:nonzero;stroke:none"
             id="path92" /></g><g
           id="g94"
           transform="translate(1215.4456,929.7354)"><path
             d="m 0,0 17.107,10.178 c -0.728,0.897 -1.647,1.574 -2.754,2.031 -1.109,0.456 -2.373,0.685 -3.793,0.685 -2.98,0 -5.5,-1.024 -7.565,-3.071 C 0.931,7.775 -0.101,5.262 -0.101,2.284 -0.101,1.811 -0.093,1.4 -0.077,1.054 -0.06,0.707 -0.034,0.356 0,0 m 20.838,-7.64 c -1.71,-1.269 -3.401,-2.204 -5.077,-2.804 -1.674,-0.601 -3.409,-0.901 -5.201,-0.901 -3.945,0 -7.219,1.298 -9.825,3.895 -2.605,2.598 -3.907,5.826 -3.907,9.684 0,3.858 1.311,7.072 3.934,9.645 2.622,2.571 5.888,3.858 9.798,3.858 2.469,0 4.63,-0.533 6.483,-1.6 1.853,-1.065 3.296,-2.605 4.328,-4.618 L 1.041,-2.487 c 0.964,-1.862 2.276,-3.3 3.933,-4.315 1.659,-1.015 3.52,-1.523 5.586,-1.523 1.64,0 3.264,0.343 4.872,1.028 1.607,0.685 3.41,1.815 5.406,3.389 z"
             style="fill:#1d1819;fill-opacity:1;fill-rule:nonzero;stroke:none"
             id="path96" /></g><g
           id="g98"
           transform="translate(1278.1023,927.9083)"><path
             d="m 0,0 c 0,-1.913 0.647,-3.507 1.941,-4.784 1.295,-1.278 2.931,-1.917 4.911,-1.917 1.98,0 3.575,0.618 4.785,1.853 1.209,1.235 1.815,2.851 1.815,4.848 0,1.98 -0.606,3.592 -1.815,4.835 C 10.427,6.079 8.849,6.701 6.904,6.701 4.889,6.701 3.236,6.066 1.941,4.797 0.647,3.528 0,1.929 0,0 m 13.452,-6.295 c -0.931,-1.066 -1.98,-1.87 -3.147,-2.411 -1.168,-0.542 -2.436,-0.812 -3.807,-0.812 -2.641,0 -4.886,0.926 -6.739,2.779 -1.853,1.853 -2.78,4.099 -2.78,6.739 0,2.622 0.931,4.865 2.792,6.726 1.861,1.861 4.103,2.792 6.727,2.792 1.318,0 2.58,-0.258 3.781,-0.774 1.201,-0.517 2.259,-1.265 3.173,-2.246 v 3.274 c 0,1.793 -0.453,3.118 -1.358,3.972 -0.906,0.854 -2.305,1.282 -4.201,1.282 -1.116,0 -2.326,-0.161 -3.63,-0.483 -1.302,-0.321 -2.792,-0.837 -4.466,-1.548 l 1.141,3.376 c 1.269,0.44 2.513,0.77 3.731,0.99 1.22,0.219 2.395,0.33 3.529,0.33 2.825,0 4.894,-0.66 6.205,-1.98 1.311,-1.32 1.968,-3.401 1.968,-6.243 V -8.884 l -2.919,-0.634 z"
             style="fill:#1d1819;fill-opacity:1;fill-rule:nonzero;stroke:none"
             id="path100" /></g><g
           id="g102"
           transform="translate(1336.2151,918.669)"><path
             d="m 0,0 v 26.245 l 2.894,0.356 v -5.61 c 1.049,2.03 2.331,3.553 3.845,4.569 1.514,1.014 3.271,1.522 5.268,1.522 h 0.709 L 11.524,24.214 C 8.58,23.926 6.405,22.64 5,20.356 3.596,18.072 2.894,14.662 2.894,10.128 V 0.356 Z"
             style="fill:#1d1819;fill-opacity:1;fill-rule:nonzero;stroke:none"
             id="path104" /></g><g
           id="g106"
           transform="translate(1408.9231,921.563)"><path
             d="m 0,0 c -1.456,-1.016 -3.016,-1.798 -4.683,-2.348 -1.667,-0.55 -3.329,-0.825 -4.986,-0.825 -3.893,0 -7.155,1.303 -9.786,3.909 -2.632,2.605 -3.946,5.829 -3.946,9.67 0,3.858 1.311,7.073 3.934,9.646 2.622,2.571 5.888,3.857 9.798,3.857 1.843,0 3.53,-0.237 5.063,-0.711 1.53,-0.474 3.016,-1.218 4.454,-2.233 l -1.93,-2.335 c -1.285,0.863 -2.534,1.493 -3.743,1.891 -1.21,0.397 -2.492,0.596 -3.844,0.596 -2.963,0 -5.497,-1.049 -7.603,-3.148 -2.107,-2.098 -3.16,-4.618 -3.16,-7.563 0,-2.944 1.053,-5.466 3.16,-7.564 2.106,-2.098 4.64,-3.146 7.603,-3.146 1.251,0 2.541,0.228 3.869,0.685 1.328,0.456 2.619,1.116 3.871,1.98 z"
             style="fill:#1d1819;fill-opacity:1;fill-rule:nonzero;stroke:none"
             id="path108" /></g><g
           id="g110"
           transform="translate(1449.3469,918.669)"><path
             d="m 0,0 v 36.702 l 2.918,0.355 V 22.184 c 1.101,1.59 2.353,2.779 3.757,3.566 1.404,0.786 2.978,1.18 4.721,1.18 2.86,0 5.081,-0.871 6.663,-2.615 1.583,-1.742 2.373,-4.204 2.373,-7.385 V 0.356 L 17.59,0 v 15.483 c 0,2.995 -0.58,5.242 -1.738,6.739 -1.161,1.497 -2.892,2.246 -5.192,2.246 -2.082,0 -3.892,-0.774 -5.431,-2.322 C 3.689,20.597 2.918,18.723 2.918,16.524 V 0.356 Z"
             style="fill:#1d1819;fill-opacity:1;fill-rule:nonzero;stroke:none"
             id="path112" /></g><path
           d="m 1587.024,932.624 h -96.208 v 1.083 h 96.208 z"
           style="fill:#1d1819;fill-opacity:1;fill-rule:nonzero;stroke:none"
           id="path114" /><path
           d="m 855.071,932.624 h -96.208 v 1.083 h 96.208 z"
           style="fill:#1d1819;fill-opacity:1;fill-rule:nonzero;stroke:none"
           id="path116" /><g
           id="g118"
           transform="translate(546.9343,1102.8059)"><path
             d="m 0,0 c -0.495,-0.495 -0.875,-1.052 -1.206,-1.631 1.496,0.639 3.293,0.355 4.513,-0.866 1.603,-1.603 1.603,-4.201 0,-5.804 -1.22,-1.221 -3.017,-1.506 -4.513,-0.867 0.331,-0.579 0.711,-1.137 1.206,-1.63 2.982,-2.982 7.817,-2.982 10.799,0 2.981,2.981 2.981,7.816 0,10.798 C 7.817,2.981 2.982,2.981 0,0"
             style="fill:#008a8a;fill-opacity:1;fill-rule:nonzero;stroke:none"
             id="path120" /></g><g
           id="g122"
           transform="translate(708.4689,1015.9373)"><path
             d="m 0,0 c 0,-0.001 -0.001,-0.002 -0.001,-0.003 0,-0.001 -0.001,-0.002 -0.001,-0.002 z"
             style="fill:#008a8a;fill-opacity:1;fill-rule:nonzero;stroke:none"
             id="path124" /></g><g
           id="g126"
           transform="translate(722.7658,1059.5686)"><path
             d="m 0,0 c -3.048,0.002 -6.302,-0.677 -9.358,-2.539 l -0.737,-0.448 0.013,-0.863 c 0.007,-0.443 0.01,-0.887 0.011,-1.331 10e-4,-12.835 -2.87,-25.619 -7.068,-37.448 l -0.002,-0.005 c -1.223,-3.487 -2.579,-6.888 -4.014,-10.174 l -10e-4,-0.003 c -2.724,-6.28 -5.717,-12.164 -8.711,-17.499 -1.702,23.155 -7.51,42.623 -15.392,58.821 -12.669,26.038 -30.666,43.624 -45.49,54.699 -10.427,7.79 -19.283,12.363 -23.656,14.405 14.555,15.563 37.962,35.881 67.44,45.542 l -9.031,-22.516 2.331,0.098 c 0,0 0.085,0.004 0.258,0.009 0.52,0.018 1.802,0.053 3.616,0.053 5.764,0.006 16.95,-0.367 26.022,-2.706 -1.556,-2.898 -4.68,-9.204 -6.753,-16.687 -0.433,-1.517 -0.804,-3.066 -1.114,-4.644 l -0.447,-2.276 2.261,0.516 c 10e-4,0.001 0.108,0.025 0.326,0.072 1.522,0.328 8.182,1.658 14.419,1.654 2.177,0.001 4.298,-0.162 6.095,-0.56 0.825,-0.18 1.565,-0.418 2.224,-0.694 -1.091,-0.697 -2.493,-1.668 -4.025,-2.918 -3.416,-2.791 -7.482,-6.966 -10.018,-12.586 l -0.76,-1.687 1.922,-0.429 v -0.001 c 0.864,-0.204 6.066,-1.453 11.801,-3.447 2.865,-0.996 5.862,-2.179 8.496,-3.494 C 2.04,30.227 3.316,29.497 4.421,28.752 1.012,28.035 -4.373,26.32 -9.516,22.218 l -1.672,-1.338 1.824,-1.123 c 0,0 0.075,-0.046 0.232,-0.146 1.175,-0.744 6.627,-4.3 11.819,-9.174 2.595,-2.435 5.124,-5.199 7.019,-8.063 1.231,-1.855 2.18,-3.745 2.748,-5.603 -0.512,0.256 -1.073,0.523 -1.693,0.792 C 7.973,-1.231 4.165,-0.004 0,0 m -56.271,-136.367 c -2.807,-2.807 -5.906,-5.338 -9.198,-7.639 -8.116,-5.435 -16.304,-9.156 -22.509,-11.507 -3.19,-1.209 -5.856,-2.06 -7.717,-2.608 -0.054,-0.015 -0.099,-0.028 -0.151,-0.043 l -0.014,0.05 h -0.001 c -24.195,-7.271 -47.904,-7.56 -51.332,-7.557 -0.288,0.001 -0.432,0.002 -0.432,0.002 l -0.354,0.003 -0.318,-0.156 c -9.252,-4.496 -14.031,-9.246 -18.02,-14.437 -3.998,-5.193 -7.254,-10.722 -13.876,-17.343 -17.268,-17.253 -33.749,-19.814 -41.61,-19.95 14.695,9.304 22.06,21.789 26.532,33.683 2.454,6.507 4.076,12.848 5.621,18.43 1.297,4.708 2.559,8.863 4.14,12.104 1.818,-1.814 3.939,-3.368 6.491,-4.556 l 1.277,2.73 c -4.855,2.281 -7.918,5.868 -10.37,10.637 -3.671,7.14 -5.708,16.869 -9.653,27.453 -3.527,9.447 -8.652,19.587 -17.957,29.143 6.075,-1.434 17.215,-5.381 27.914,-16.086 6.468,-6.467 11.298,-13.345 14.792,-18.9 1.748,-2.778 3.161,-5.223 4.289,-7.136 0.565,-0.957 1.058,-1.781 1.497,-2.46 0.445,-0.681 0.809,-1.206 1.243,-1.648 5.628,-5.631 13.195,-7.934 21.104,-7.927 7.251,0.003 14.846,1.901 21.839,4.976 6.992,3.079 13.381,7.333 18.196,12.144 7.699,7.698 12.364,16.344 15.09,24.698 2.727,8.357 3.527,16.425 3.527,23.044 0,3.712 -0.253,6.96 -0.561,9.56 7.815,-11.864 10.916,-23.112 10.918,-32.99 10e-4,-12.264 -4.789,-22.462 -11.444,-29.117 l 2.132,-2.132 c 7.225,7.226 12.326,18.191 12.327,31.249 0.002,12.004 -4.327,25.737 -15.147,39.893 l -0.014,0.044 -0.157,0.204 c -1.957,2.558 -4.14,5.118 -6.533,7.685 l 0.035,0.032 c -10.353,11.577 -23.509,18.991 -23.581,19.039 l -0.02,-0.035 -0.819,0.433 c -7.679,4.068 -14.637,5.855 -21.077,7.072 2.831,1.315 6.573,3.35 10.57,6.352 8.307,6.234 17.68,16.68 21.82,33.261 l -2.925,0.731 c -3.958,-15.813 -12.811,-25.641 -20.706,-31.582 -3.945,-2.966 -7.649,-4.947 -10.352,-6.18 -1.352,-0.616 -2.454,-1.047 -3.21,-1.32 -0.356,-0.129 -0.628,-0.221 -0.821,-0.283 -5.563,0.878 -10.618,0.981 -15.513,2.49 -4.502,1.389 -8.979,3.91 -13.876,9.475 0.315,0.105 0.629,0.221 0.941,0.359 1.377,0.61 2.706,1.543 3.977,2.814 l -2.13,2.131 c -1.054,-1.052 -2.075,-1.749 -3.067,-2.189 -0.994,-0.438 -1.964,-0.628 -2.968,-0.629 -1.518,-0.002 -3.135,0.453 -4.838,1.269 -2.551,1.219 -5.245,3.239 -7.946,5.412 -2.706,2.173 -5.421,4.492 -8.154,6.302 -3.461,2.288 -6.845,3.715 -9.842,4.702 l 0.024,0.083 c -0.792,0.229 -1.707,0.472 -2.703,0.725 -0.23,0.063 -0.468,0.131 -0.691,0.19 V 7.81 c -3.713,0.921 -8.432,1.943 -12.647,2.82 -1.592,0.331 -3.104,0.639 -4.462,0.913 4.463,1.264 10.925,2.905 17.109,3.807 v -0.01 c 0.492,0.08 0.995,0.149 1.501,0.215 0.167,0.021 0.334,0.041 0.5,0.061 0.478,0.056 0.957,0.111 1.438,0.155 2.797,0.259 5.594,0.329 7.767,0.329 1.227,0 2.255,-0.023 2.975,-0.045 0.359,-0.011 0.641,-0.022 0.832,-0.03 0.192,-0.008 0.286,-0.013 0.286,-0.013 l 3.074,-0.165 -1.754,2.528 c -10.948,15.763 -28.989,27.217 -44.281,34.815 -5.075,2.518 -9.846,4.604 -13.964,6.273 11.195,-1.586 22.461,-3.141 32.508,-4.454 14.472,-1.889 26.367,-3.274 32.009,-3.523 l 0.299,-0.012 0.282,0.102 c 11.112,4.044 26.118,8.285 43.057,8.284 9.06,0 18.673,-1.212 28.56,-4.312 l 0.914,-0.287 0.034,0.037 c 5.593,-2.532 22.837,-11.185 40.246,-28.518 20.544,-20.463 41.333,-52.93 43.718,-101.897 l 0.014,-0.342 c 0.052,-1.326 0.08,-2.655 0.08,-3.985 -0.019,-19.267 -5.695,-38.808 -23.784,-56.923 m -36.911,-33.166 c -1.739,-1.458 -3.349,-2.667 -4.703,-3.624 1.204,3.132 2.714,7.576 3.736,12.368 3.058,0.924 7.757,2.515 13.25,4.939 -3.684,-5.709 -8.299,-10.346 -12.283,-13.683 m -11.486,115.558 c -4.262,-4.302 -8.54,-9.335 -11.782,-14.801 -3.092,-5.218 -5.234,-10.853 -5.426,-16.637 -0.863,1.031 -1.849,2.335 -2.823,3.901 -2.566,4.126 -5.041,10.016 -5.042,17.443 0.005,7.551 2.56,16.763 10.41,27.469 1.898,-1.117 10.332,-6.28 18.275,-13.91 -1.189,-1.096 -2.393,-2.235 -3.612,-3.465 M 16.034,-6.036 C 15.787,-2.262 14.092,1.346 11.795,4.663 8.339,9.637 3.463,14.01 -0.558,17.184 c -2.156,1.698 -4.061,3.042 -5.376,3.931 3.223,2.21 6.468,3.489 9.031,4.21 1.507,0.424 2.776,0.658 3.657,0.786 0.441,0.064 0.785,0.101 1.013,0.121 l 0.253,0.021 0.058,0.003 0.008,0.001 3.345,0.152 -2.331,2.403 c -1.788,1.834 -4.293,3.395 -7.096,4.799 -4.203,2.096 -9.083,3.798 -13.1,5.03 -2.521,0.772 -4.7,1.357 -6.142,1.726 2.275,4.23 5.531,7.549 8.361,9.856 1.59,1.298 3.04,2.278 4.083,2.927 0.521,0.326 0.94,0.568 1.226,0.727 0.143,0.08 0.252,0.139 0.323,0.176 l 0.078,0.041 0.018,0.01 1.972,0.996 -1.646,1.472 c -1.482,1.317 -3.406,2.072 -5.509,2.541 -2.106,0.464 -4.42,0.631 -6.745,0.632 -5.088,-0.004 -10.245,-0.807 -13.117,-1.34 0.176,0.734 0.366,1.459 0.571,2.177 l 0.003,0.012 c 1.355,4.904 3.211,9.342 4.726,12.54 0.757,1.599 1.429,2.89 1.909,3.776 0.24,0.444 0.432,0.785 0.563,1.015 l 0.148,0.258 0.047,0.08 0.994,1.664 -1.858,0.552 c -9.922,2.945 -22.397,3.33 -28.7,3.336 -0.628,0 -1.192,-0.004 -1.688,-0.01 l 9.656,24.08 -2.992,-0.895 c -32.197,-9.635 -57.314,-31.698 -72.509,-48.09 -0.001,0 -0.005,0.002 -0.005,0.002 l -0.005,-0.014 c -0.061,-0.065 -0.121,-0.13 -0.182,-0.195 -9.88,2.991 -19.491,4.182 -28.537,4.181 -17.296,-0.001 -32.527,-4.284 -43.795,-8.361 -5.513,0.267 -17.274,1.63 -31.462,3.485 -14.438,1.886 -31.419,4.278 -47.074,6.538 -13.303,1.929 -25.653,3.764 -34.675,5.115 -4.511,0.677 -8.19,1.233 -10.742,1.62 -2.551,0.386 -3.97,0.603 -3.974,0.604 l -0.455,-2.981 c 0.002,10e-4 22.747,-3.475 49.334,-7.329 0.09,-0.027 0.228,-0.069 0.42,-0.129 2.731,-0.846 15.357,-4.94 29.744,-12.392 13.546,-7.006 28.626,-17.014 38.503,-29.938 -0.362,0.005 -0.739,0.008 -1.147,0.008 -2.984,-0.001 -7.103,-0.124 -10.971,-0.685 l -0.235,-0.038 v -0.012 c -5.348,-0.753 -10.84,-2.039 -15.206,-3.201 -5.023,-1.339 -8.543,-2.512 -8.563,-2.519 l -5.443,-1.815 5.635,-1.082 c 0.003,0 1.171,-0.224 3.049,-0.595 2.816,-0.558 7.215,-1.444 11.602,-2.392 3.192,-0.688 6.376,-1.412 8.926,-2.058 V 4.703 c 3.386,-0.938 7.41,-2.355 11.549,-5.09 3.352,-2.212 6.971,-5.509 10.708,-8.301 1.872,-1.397 3.782,-2.671 5.753,-3.617 1.887,-0.903 3.847,-1.505 5.873,-1.555 5.642,-6.919 11.12,-10.203 16.508,-11.84 5.534,-1.684 10.845,-1.731 16.249,-2.633 l -0.004,10e-4 c 7.448,-1.249 15.149,-2.573 23.883,-6.895 -7.928,-10.946 -10.697,-20.698 -10.692,-28.842 0,-8.372 2.89,-14.977 5.766,-19.462 2.881,-4.491 5.75,-6.895 5.831,-6.964 l 3.005,-2.508 -0.546,3.875 c -0.136,0.963 -0.2,1.928 -0.2,2.896 -0.005,5.316 1.975,10.752 5.042,15.919 3.937,6.649 9.632,12.776 14.86,17.607 3.094,-3.155 5.835,-6.283 8.233,-9.395 0.31,-1.352 1.52,-7.15 1.519,-15.122 0,-6.377 -0.775,-14.132 -3.379,-22.108 -2.605,-7.978 -7.028,-16.172 -14.355,-23.502 -4.496,-4.499 -10.606,-8.584 -17.279,-11.518 -6.672,-2.937 -13.905,-4.723 -20.625,-4.72 -7.357,0.007 -14.029,2.104 -18.972,7.044 -0.128,0.121 -0.457,0.549 -0.844,1.154 -1.393,2.15 -3.746,6.52 -7.168,11.751 -3.428,5.24 -7.954,11.384 -13.809,17.24 -16.628,16.617 -34.287,17.746 -34.491,17.76 l -4.281,0.265 3.174,-2.885 c 14.868,-13.519 20.003,-28.425 24.071,-41.461 2.035,-6.514 3.781,-12.553 6.408,-17.694 0.913,-1.792 1.955,-3.471 3.149,-5.017 -2.052,-3.788 -3.456,-8.483 -4.91,-13.722 -2.329,-8.432 -4.771,-18.246 -9.78,-27.629 -5.014,-9.382 -12.544,-18.34 -25.207,-25.175 l -3.757,-2.024 4.196,-0.784 c 0.078,-0.015 1.77,-0.324 4.681,-0.324 8.172,-0.014 26.032,2.493 44.362,20.839 6.87,6.871 10.291,12.664 14.131,17.632 3.804,4.913 7.978,9.121 16.651,13.416 h 0.086 c 3.473,0.004 25.923,0.26 49.704,6.961 0.016,0.004 0.027,0.006 0.043,0.011 -0.857,-3.583 -1.967,-6.934 -2.934,-9.524 -0.592,-1.588 -1.129,-2.892 -1.516,-3.795 -0.193,-0.451 -0.349,-0.803 -0.456,-1.04 l -0.122,-0.267 -0.039,-0.085 -2,-4.244 4.098,2.285 c 0.059,0.034 4.097,2.289 9.169,6.54 4.973,4.171 10.942,10.272 15.098,18.125 4.379,2.13 8.613,4.576 12.587,7.371 0.157,0.106 0.314,0.207 0.471,0.314 l -0.009,0.014 c 3.182,2.272 6.199,4.761 8.959,7.521 18.677,18.651 24.686,39.2 24.667,59.054 0,1.22 -0.03,2.437 -0.073,3.65 3.787,6.412 7.682,13.776 11.155,21.784 l -0.002,-0.004 c 1.461,3.346 2.845,6.814 4.095,10.379 4.279,12.063 7.239,25.169 7.241,38.454 0,0.159 -0.003,0.316 -0.004,0.474 2.301,1.222 4.697,1.691 7.061,1.693 3.561,0.004 7.017,-1.082 9.562,-2.188 1.272,-0.552 2.317,-1.105 3.036,-1.516 0.359,-0.205 0.637,-0.375 0.822,-0.491 l 0.205,-0.132 0.048,-0.031 0.009,-0.007 2.548,-1.731 z"
             style="fill:#008a8a;fill-opacity:1;fill-rule:nonzero;stroke:none"
             id="path128" /></g><g
           id="g130"
           transform="translate(692.2404,1120.9651)"><path
             d="M 0,0 C 0.001,0.004 0.002,0.008 0.003,0.012 Z"
             style="fill:#008a8a;fill-opacity:1;fill-rule:nonzero;stroke:none"
             id="path132" /></g></g></g></g></svg>
